{"glyphs":{"0":{"ha":917,"x_min":63,"x_max":856,"o":"m 457 -11 q 274 28 349 -11 q 151 135 199 67 q 83 295 104 204 q 63 489 63 386 q 84 686 63 594 q 153 847 106 778 q 277 956 201 917 q 460 994 353 994 q 647 954 571 994 q 769 842 722 914 q 835 681 815 771 q 856 492 856 590 q 835 300 856 390 q 768 140 814 210 q 646 29 722 69 q 457 -11 569 -11 m 457 172 q 565 203 525 172 q 624 285 604 235 q 651 390 644 335 q 657 492 657 444 q 651 591 657 536 q 625 695 644 646 q 567 776 606 744 q 461 808 528 808 q 354 777 394 808 q 294 696 314 746 q 267 592 274 646 q 260 492 260 538 q 266 390 260 446 q 292 285 272 335 q 351 203 311 235 q 457 172 390 172 z "},"1":{"ha":542,"x_min":18,"x_max":410,"o":"m 211 0 l 211 721 l 18 721 l 18 871 q 121 881 75 872 q 203 915 167 890 q 265 983 239 939 l 410 983 l 410 0 l 211 0 z "},"2":{"ha":779,"x_min":29,"x_max":721,"o":"m 29 0 l 29 164 l 301 390 q 369 447 331 415 q 442 514 407 478 q 501 590 478 550 q 524 674 524 631 q 487 771 524 733 q 379 808 450 808 q 274 778 313 808 q 226 703 236 749 l 35 703 q 94 866 43 801 q 222 963 144 931 q 386 994 300 994 q 556 960 479 994 q 676 859 632 925 q 721 696 721 793 q 690 545 721 613 q 604 420 658 478 q 482 310 550 363 l 326 183 l 719 183 l 719 0 l 29 0 z "},"3":{"ha":851,"x_min":29,"x_max":789,"o":"m 419 -10 q 283 7 349 -10 q 164 60 218 24 q 74 152 110 96 q 29 288 38 208 l 226 288 q 265 223 236 249 q 334 186 293 197 q 421 175 375 175 q 481 181 451 175 q 535 200 511 186 q 574 238 560 214 q 588 297 588 261 q 575 353 588 331 q 542 389 563 375 q 492 408 521 403 q 432 414 464 414 l 318 414 l 318 583 l 394 583 q 460 591 431 583 q 509 613 489 599 q 540 649 529 628 q 551 699 551 671 q 533 765 551 740 q 483 800 515 789 q 410 811 451 811 q 337 799 371 811 q 281 765 303 788 q 251 711 258 743 l 58 711 q 99 840 67 786 q 181 928 131 893 q 292 978 231 963 q 421 994 354 994 q 543 981 485 994 q 648 935 601 967 q 722 853 694 904 q 750 729 750 801 q 735 646 750 685 q 694 577 721 607 q 631 528 667 547 q 719 478 685 513 q 772 396 754 443 q 789 294 789 349 q 756 147 789 206 q 669 53 724 88 q 550 5 615 19 q 419 -10 485 -10 z "},"4":{"ha":885,"x_min":42,"x_max":850,"o":"m 540 0 l 540 181 l 42 181 l 42 332 l 499 983 l 739 983 l 739 361 l 850 361 l 850 181 l 739 181 l 739 0 l 540 0 m 269 361 l 540 361 l 540 764 l 269 361 z "},"5":{"ha":854,"x_min":69,"x_max":796,"o":"m 425 -11 q 296 6 356 -11 q 190 60 236 24 q 112 151 143 96 q 69 283 81 207 l 265 283 q 296 231 274 256 q 352 190 318 206 q 429 175 386 175 q 518 194 482 175 q 574 246 554 213 q 593 325 593 279 q 549 437 593 394 q 426 479 506 479 q 341 463 381 479 q 265 419 301 447 l 96 419 l 114 983 l 761 983 l 761 801 l 301 801 l 290 601 q 387 642 332 631 q 496 653 442 654 q 658 611 592 650 q 760 503 725 572 q 796 340 796 433 q 747 149 796 228 q 613 29 697 69 q 425 -11 529 -11 z "},"6":{"ha":867,"x_min":64,"x_max":808,"o":"m 453 -11 q 275 28 349 -11 q 154 135 201 67 q 85 290 107 203 q 64 472 64 376 q 88 672 64 578 q 161 838 111 765 q 288 953 211 911 q 474 994 365 994 q 626 965 557 994 q 742 877 694 936 q 803 726 789 818 l 614 726 q 558 790 597 767 q 465 814 518 814 q 381 797 417 814 q 319 749 344 779 q 276 682 293 719 q 253 603 260 644 q 246 522 246 563 q 323 594 279 568 q 411 631 367 621 q 492 642 456 642 q 661 603 590 642 q 770 494 732 564 q 808 328 808 424 q 763 149 808 225 q 637 31 717 72 q 453 -11 557 -11 m 454 171 q 538 192 504 171 q 590 247 572 213 q 608 319 608 281 q 590 395 608 361 q 539 450 572 429 q 457 471 506 471 q 373 451 411 471 q 314 397 335 431 q 293 319 293 363 q 313 247 293 281 q 368 192 332 213 q 454 171 404 171 z "},"7":{"ha":711,"x_min":0,"x_max":696,"o":"m 94 0 l 469 799 l 0 799 l 0 983 l 696 983 l 696 835 l 315 0 l 94 0 z "},"8":{"ha":868,"x_min":63,"x_max":806,"o":"m 432 -11 q 297 5 363 -11 q 178 56 232 21 q 94 150 125 92 q 63 290 63 208 q 78 388 63 344 q 126 466 94 432 q 201 521 157 500 q 140 577 164 544 q 106 649 117 610 q 94 728 94 688 q 124 852 94 801 q 201 934 153 903 q 311 980 250 965 q 435 994 372 994 q 558 980 499 994 q 667 933 618 965 q 744 848 715 900 q 774 722 774 796 q 762 647 774 685 q 726 576 750 608 q 664 522 701 544 q 740 469 708 503 q 789 390 772 436 q 806 288 806 344 q 774 149 806 206 q 688 56 742 92 q 567 5 633 21 q 432 -11 501 -11 m 433 168 q 494 175 464 168 q 550 198 525 182 q 590 238 575 214 q 604 299 604 263 q 582 372 604 343 q 522 415 560 400 q 433 429 483 429 q 345 415 385 429 q 283 372 306 400 q 261 299 261 343 q 276 238 261 263 q 316 198 292 214 q 371 175 340 182 q 433 168 401 168 m 435 581 q 510 595 479 581 q 559 637 542 610 q 576 697 576 664 q 558 766 576 739 q 508 808 540 793 q 431 822 475 822 q 356 808 388 822 q 308 767 325 793 q 290 703 290 740 q 308 638 290 665 q 359 595 326 610 q 435 581 392 581 z "},"9":{"ha":863,"x_min":58,"x_max":801,"o":"m 406 -11 q 249 17 321 -11 q 127 106 176 46 q 64 256 78 165 l 258 256 q 318 192 274 214 q 413 171 363 171 q 509 194 469 171 q 572 255 549 217 q 607 340 596 293 q 619 435 618 386 q 619 447 619 440 q 619 458 619 453 q 546 389 589 414 q 457 354 503 364 q 369 344 411 344 q 211 381 282 344 q 99 488 140 418 q 58 656 58 557 q 108 841 58 765 q 241 956 158 917 q 422 994 324 994 q 604 951 531 994 q 721 835 678 908 q 783 671 764 761 q 801 486 801 581 q 780 294 801 383 q 712 135 758 204 q 590 28 665 67 q 406 -11 514 -11 m 414 511 q 503 533 468 511 q 558 590 539 556 q 576 661 576 624 q 555 742 576 708 q 498 795 533 776 q 417 814 463 814 q 331 793 367 814 q 275 738 294 772 q 256 663 256 703 q 297 555 256 599 q 414 511 338 511 z "},"A":{"ha":988,"x_min":1,"x_max":986,"o":"m 1 0 l 385 983 l 607 983 l 986 0 l 772 0 l 711 168 l 276 168 l 215 0 l 1 0 m 340 347 l 649 347 l 496 772 l 340 347 z "},"Á":{"ha":988,"x_min":1,"x_max":986,"o":"m 1 0 l 385 983 l 607 983 l 986 0 l 772 0 l 711 168 l 276 168 l 215 0 l 1 0 m 340 347 l 649 347 l 496 772 l 340 347 m 389 1068 l 546 1307 l 753 1307 l 556 1068 l 389 1068 z "},"Ă":{"ha":988,"x_min":1,"x_max":986,"o":"m 1 0 l 385 983 l 607 983 l 986 0 l 772 0 l 711 168 l 276 168 l 215 0 l 1 0 m 340 347 l 649 347 l 496 772 l 340 347 m 493 1067 q 301 1124 371 1067 q 231 1300 232 1182 l 392 1300 q 422 1225 393 1246 q 494 1204 450 1204 q 569 1225 542 1204 q 597 1300 596 1246 l 758 1300 q 726 1170 758 1222 q 635 1092 694 1118 q 493 1067 576 1067 z "},"Â":{"ha":988,"x_min":1,"x_max":986,"o":"m 1 0 l 385 983 l 607 983 l 986 0 l 772 0 l 711 168 l 276 168 l 215 0 l 1 0 m 340 347 l 649 347 l 496 772 l 340 347 m 215 1069 l 428 1319 l 557 1319 l 772 1069 l 586 1069 l 492 1192 l 400 1069 l 215 1069 z "},"Ä":{"ha":988,"x_min":1,"x_max":986,"o":"m 1 0 l 385 983 l 607 983 l 986 0 l 772 0 l 711 168 l 276 168 l 215 0 l 1 0 m 340 347 l 649 347 l 496 772 l 340 347 m 664 1061 q 585 1089 618 1061 q 553 1168 553 1117 q 587 1250 553 1221 q 664 1279 621 1279 q 742 1251 710 1279 q 774 1169 774 1222 q 742 1089 774 1117 q 664 1061 710 1061 m 324 1061 q 246 1089 279 1061 q 213 1168 213 1117 q 246 1250 213 1221 q 324 1279 279 1279 q 401 1251 368 1279 q 435 1168 435 1222 q 402 1089 435 1117 q 324 1061 369 1061 z "},"À":{"ha":988,"x_min":1,"x_max":986,"o":"m 1 0 l 385 983 l 607 983 l 986 0 l 772 0 l 711 168 l 276 168 l 215 0 l 1 0 m 340 347 l 649 347 l 496 772 l 340 347 m 438 1069 l 240 1307 l 447 1307 l 604 1069 l 438 1069 z "},"Ā":{"ha":988,"x_min":1,"x_max":986,"o":"m 1 0 l 385 983 l 607 983 l 986 0 l 772 0 l 711 168 l 276 168 l 215 0 l 1 0 m 340 347 l 649 347 l 496 772 l 340 347 m 242 1117 l 242 1285 l 749 1285 l 749 1117 l 242 1117 z "},"Ą":{"ha":988,"x_min":1,"x_max":986,"o":"m 1 0 l 385 983 l 607 983 l 986 0 l 772 0 l 711 168 l 276 168 l 215 0 l 1 0 m 340 347 l 649 347 l 496 772 l 340 347 m 878 -289 q 744 -247 793 -287 q 696 -139 696 -207 q 728 -43 696 -85 q 811 18 761 -1 l 924 4 q 858 -37 886 -11 q 831 -99 831 -64 q 851 -148 831 -131 q 903 -165 871 -165 q 933 -162 919 -165 q 961 -151 947 -158 l 983 -264 q 930 -284 957 -279 q 878 -289 903 -289 z "},"Å":{"ha":988,"x_min":1,"x_max":986,"o":"m 1 0 l 385 983 l 607 983 l 986 0 l 772 0 l 711 168 l 276 168 l 215 0 l 1 0 m 340 347 l 649 347 l 496 772 l 340 347 m 494 1046 q 376 1089 422 1046 q 329 1201 329 1132 q 377 1317 329 1272 q 496 1363 425 1363 q 613 1318 567 1363 q 660 1201 660 1274 q 614 1089 660 1132 q 494 1046 568 1046 m 494 1147 q 536 1163 521 1147 q 551 1204 551 1179 q 535 1244 551 1228 q 494 1260 519 1260 q 453 1244 469 1260 q 438 1204 438 1228 q 453 1163 438 1179 q 494 1147 468 1147 z "},"Ã":{"ha":988,"x_min":1,"x_max":986,"o":"m 1 0 l 385 983 l 607 983 l 986 0 l 772 0 l 711 168 l 276 168 l 215 0 l 1 0 m 340 347 l 649 347 l 496 772 l 340 347 m 607 1063 q 538 1078 568 1063 q 483 1111 507 1093 q 440 1144 460 1129 q 403 1160 419 1160 q 374 1143 383 1160 q 363 1106 364 1126 q 364 1069 361 1085 l 231 1069 q 240 1179 226 1128 q 291 1264 253 1231 q 397 1297 329 1297 q 460 1283 433 1297 q 509 1251 488 1269 q 549 1219 531 1233 q 586 1206 567 1206 q 615 1220 607 1206 q 624 1255 622 1235 q 624 1289 625 1275 l 757 1289 q 750 1182 761 1235 q 706 1096 739 1129 q 607 1063 672 1063 z "},"Æ":{"ha":1297,"x_min":0,"x_max":1247,"o":"m 0 0 l 447 983 l 1247 983 l 1247 799 l 786 799 l 786 576 l 1175 576 l 1175 399 l 786 399 l 786 183 l 1247 183 l 1247 0 l 588 0 l 588 167 l 293 167 l 214 0 l 0 0 m 365 347 l 588 347 l 588 799 l 565 799 l 365 347 z "},"B":{"ha":940,"x_min":103,"x_max":889,"o":"m 103 0 l 103 983 l 533 983 q 658 970 601 983 q 756 928 714 957 q 820 850 797 899 q 843 726 843 801 q 815 613 843 665 q 733 532 788 560 q 847 451 806 508 q 889 299 889 393 q 857 156 889 214 q 769 64 825 99 q 640 15 714 29 q 483 0 567 0 l 103 0 m 301 183 l 507 183 q 577 189 544 183 q 635 208 610 194 q 674 244 660 221 q 689 303 689 268 q 677 356 689 335 q 644 392 665 378 q 594 411 622 406 q 531 417 565 417 l 301 417 l 301 183 m 301 582 l 483 582 q 551 589 521 582 q 603 611 582 596 q 635 649 624 626 q 646 703 646 672 q 628 765 647 744 q 575 792 608 785 q 500 800 542 800 l 301 800 l 301 582 z "},"C":{"ha":992,"x_min":50,"x_max":950,"o":"m 524 -11 q 266 51 372 -11 q 105 225 160 113 q 50 488 50 338 q 106 754 50 640 q 268 931 163 868 q 522 994 374 994 q 724 956 635 994 q 867 844 813 918 q 936 661 922 769 l 744 661 q 672 769 726 729 q 526 808 617 808 q 367 763 426 808 q 282 647 308 718 q 256 496 256 575 q 283 340 256 414 q 372 221 311 267 q 531 175 432 175 q 635 192 589 175 q 710 243 681 210 q 751 322 740 276 l 950 322 q 878 140 938 215 q 726 27 818 65 q 524 -11 635 -11 z "},"Ć":{"ha":992,"x_min":50,"x_max":950,"o":"m 524 -11 q 266 51 372 -11 q 105 225 160 113 q 50 488 50 338 q 106 754 50 640 q 268 931 163 868 q 522 994 374 994 q 724 956 635 994 q 867 844 813 918 q 936 661 922 769 l 744 661 q 672 769 726 729 q 526 808 617 808 q 367 763 426 808 q 282 647 308 718 q 256 496 256 575 q 283 340 256 414 q 372 221 311 267 q 531 175 432 175 q 635 192 589 175 q 710 243 681 210 q 751 322 740 276 l 950 322 q 878 140 938 215 q 726 27 818 65 q 524 -11 635 -11 m 410 1068 l 567 1307 l 774 1307 l 576 1068 l 410 1068 z "},"Č":{"ha":992,"x_min":50,"x_max":950,"o":"m 524 -11 q 266 51 372 -11 q 105 225 160 113 q 50 488 50 338 q 106 754 50 640 q 268 931 163 868 q 522 994 374 994 q 724 956 635 994 q 867 844 813 918 q 936 661 922 769 l 744 661 q 672 769 726 729 q 526 808 617 808 q 367 763 426 808 q 282 647 308 718 q 256 496 256 575 q 283 340 256 414 q 372 221 311 267 q 531 175 432 175 q 635 192 589 175 q 710 243 681 210 q 751 322 740 276 l 950 322 q 878 140 938 215 q 726 27 818 65 q 524 -11 635 -11 m 450 1069 l 235 1319 l 422 1319 l 517 1196 l 608 1319 l 793 1319 l 581 1069 l 450 1069 z "},"Ç":{"ha":992,"x_min":50,"x_max":950,"o":"m 524 -11 q 266 51 372 -11 q 105 225 160 113 q 50 488 50 338 q 106 754 50 640 q 268 931 163 868 q 522 994 374 994 q 724 956 635 994 q 867 844 813 918 q 936 661 922 769 l 744 661 q 672 769 726 729 q 526 808 617 808 q 367 763 426 808 q 282 647 308 718 q 256 496 256 575 q 283 340 256 414 q 372 221 311 267 q 531 175 432 175 q 635 192 589 175 q 710 243 681 210 q 751 322 740 276 l 950 322 q 878 140 938 215 q 726 27 818 65 q 524 -11 635 -11 m 482 -371 q 427 -371 450 -372 q 383 -367 404 -369 l 383 -250 q 444 -256 417 -256 q 494 -250 472 -256 q 527 -231 515 -244 q 539 -197 539 -218 q 528 -169 539 -179 q 499 -156 517 -160 q 465 -151 482 -151 q 422 -154 444 -150 q 386 -164 399 -158 l 443 46 l 571 46 l 544 -57 q 561 -57 553 -57 q 578 -58 569 -57 q 656 -96 626 -65 q 686 -192 686 -126 q 657 -292 686 -253 q 582 -349 628 -331 q 482 -371 536 -368 z "},"Ĉ":{"ha":992,"x_min":50,"x_max":950,"o":"m 524 -11 q 266 51 372 -11 q 105 225 160 113 q 50 488 50 338 q 106 754 50 640 q 268 931 163 868 q 522 994 374 994 q 724 956 635 994 q 867 844 813 918 q 936 661 922 769 l 744 661 q 672 769 726 729 q 526 808 617 808 q 367 763 426 808 q 282 647 308 718 q 256 496 256 575 q 283 340 256 414 q 372 221 311 267 q 531 175 432 175 q 635 192 589 175 q 710 243 681 210 q 751 322 740 276 l 950 322 q 878 140 938 215 q 726 27 818 65 q 524 -11 635 -11 m 236 1069 l 449 1319 l 578 1319 l 793 1069 l 607 1069 l 513 1192 l 421 1069 l 236 1069 z "},"Ċ":{"ha":992,"x_min":50,"x_max":950,"o":"m 524 -11 q 266 51 372 -11 q 105 225 160 113 q 50 488 50 338 q 106 754 50 640 q 268 931 163 868 q 522 994 374 994 q 724 956 635 994 q 867 844 813 918 q 936 661 922 769 l 744 661 q 672 769 726 729 q 526 808 617 808 q 367 763 426 808 q 282 647 308 718 q 256 496 256 575 q 283 340 256 414 q 372 221 311 267 q 531 175 432 175 q 635 192 589 175 q 710 243 681 210 q 751 322 740 276 l 950 322 q 878 140 938 215 q 726 27 818 65 q 524 -11 635 -11 m 514 1057 q 426 1090 460 1057 q 393 1174 393 1122 q 428 1261 393 1228 q 515 1294 463 1294 q 599 1262 564 1294 q 635 1175 635 1229 q 601 1090 635 1122 q 514 1057 567 1057 z "},"D":{"ha":1014,"x_min":104,"x_max":963,"o":"m 104 0 l 104 983 l 475 983 q 738 925 629 983 q 905 757 847 867 q 963 489 963 647 q 906 224 963 333 q 742 58 850 115 q 476 0 633 0 l 104 0 m 303 183 l 475 183 q 640 222 578 183 q 732 331 703 261 q 761 490 761 400 q 733 648 761 578 q 641 758 704 718 q 471 799 578 799 l 303 799 l 303 183 z "},"Ď":{"ha":1014,"x_min":104,"x_max":963,"o":"m 104 0 l 104 983 l 475 983 q 738 925 629 983 q 905 757 847 867 q 963 489 963 647 q 906 224 963 333 q 742 58 850 115 q 476 0 633 0 l 104 0 m 303 183 l 475 183 q 640 222 578 183 q 732 331 703 261 q 761 490 761 400 q 733 648 761 578 q 641 758 704 718 q 471 799 578 799 l 303 799 l 303 183 m 443 1069 l 228 1319 l 415 1319 l 510 1196 l 601 1319 l 786 1319 l 574 1069 l 443 1069 z "},"Đ":{"ha":1014,"x_min":-7,"x_max":963,"o":"m 104 0 l 104 406 l -7 406 l -7 576 l 104 576 l 104 983 l 475 983 q 740 924 631 983 q 906 755 849 865 q 963 488 963 644 q 907 224 963 333 q 743 58 851 115 q 476 0 635 0 l 104 0 m 303 183 l 475 183 q 638 220 575 183 q 731 326 701 257 q 761 490 761 396 q 730 656 761 588 q 635 762 699 725 q 471 799 571 799 l 303 799 l 303 576 l 497 576 l 497 406 l 303 406 l 303 183 z "},"Ð":{"ha":1014,"x_min":-7,"x_max":963,"o":"m 104 0 l 104 406 l -7 406 l -7 576 l 104 576 l 104 983 l 475 983 q 740 924 631 983 q 906 755 849 865 q 963 488 963 644 q 907 224 963 333 q 743 58 851 115 q 476 0 635 0 l 104 0 m 303 183 l 475 183 q 639 221 576 183 q 731 328 701 258 q 761 490 761 397 q 730 656 761 588 q 635 762 699 725 q 471 799 571 799 l 303 799 l 303 576 l 497 576 l 497 406 l 303 406 l 303 183 z "},"E":{"ha":863,"x_min":104,"x_max":813,"o":"m 104 0 l 104 983 l 813 983 l 813 799 l 303 799 l 303 576 l 740 576 l 740 399 l 303 399 l 303 183 l 813 183 l 813 0 l 104 0 z "},"É":{"ha":863,"x_min":104,"x_max":813,"o":"m 104 0 l 104 983 l 813 983 l 813 799 l 303 799 l 303 576 l 740 576 l 740 399 l 303 399 l 303 183 l 813 183 l 813 0 l 104 0 m 356 1068 l 513 1307 l 719 1307 l 522 1068 l 356 1068 z "},"Ĕ":{"ha":863,"x_min":104,"x_max":813,"o":"m 104 0 l 104 983 l 813 983 l 813 799 l 303 799 l 303 576 l 740 576 l 740 399 l 303 399 l 303 183 l 813 183 l 813 0 l 104 0 m 460 1067 q 268 1124 338 1067 q 197 1300 199 1182 l 358 1300 q 388 1225 360 1246 q 461 1204 417 1204 q 535 1225 508 1204 q 564 1300 563 1246 l 725 1300 q 693 1170 725 1222 q 602 1092 661 1118 q 460 1067 543 1067 z "},"Ě":{"ha":863,"x_min":104,"x_max":813,"o":"m 104 0 l 104 983 l 813 983 l 813 799 l 303 799 l 303 576 l 740 576 l 740 399 l 303 399 l 303 183 l 813 183 l 813 0 l 104 0 m 397 1069 l 182 1319 l 369 1319 l 464 1196 l 556 1319 l 740 1319 l 528 1069 l 397 1069 z "},"Ê":{"ha":863,"x_min":104,"x_max":813,"o":"m 104 0 l 104 983 l 813 983 l 813 799 l 303 799 l 303 576 l 740 576 l 740 399 l 303 399 l 303 183 l 813 183 l 813 0 l 104 0 m 182 1069 l 394 1319 l 524 1319 l 739 1069 l 553 1069 l 458 1192 l 367 1069 l 182 1069 z "},"Ë":{"ha":863,"x_min":104,"x_max":813,"o":"m 104 0 l 104 983 l 813 983 l 813 799 l 303 799 l 303 576 l 740 576 l 740 399 l 303 399 l 303 183 l 813 183 l 813 0 l 104 0 m 632 1061 q 553 1089 586 1061 q 521 1168 521 1117 q 555 1250 521 1221 q 632 1279 589 1279 q 710 1251 678 1279 q 742 1169 742 1222 q 710 1089 742 1117 q 632 1061 678 1061 m 292 1061 q 214 1089 247 1061 q 181 1168 181 1117 q 214 1250 181 1221 q 292 1279 247 1279 q 369 1251 336 1279 q 403 1168 403 1222 q 370 1089 403 1117 q 292 1061 338 1061 z "},"Ė":{"ha":863,"x_min":104,"x_max":813,"o":"m 104 0 l 104 983 l 813 983 l 813 799 l 303 799 l 303 576 l 740 576 l 740 399 l 303 399 l 303 183 l 813 183 l 813 0 l 104 0 m 461 1057 q 374 1090 407 1057 q 340 1174 340 1122 q 375 1261 340 1228 q 463 1294 410 1294 q 547 1262 511 1294 q 582 1175 582 1229 q 548 1090 582 1122 q 461 1057 514 1057 z "},"È":{"ha":863,"x_min":104,"x_max":813,"o":"m 104 0 l 104 983 l 813 983 l 813 799 l 303 799 l 303 576 l 740 576 l 740 399 l 303 399 l 303 183 l 813 183 l 813 0 l 104 0 m 404 1069 l 207 1307 l 414 1307 l 571 1069 l 404 1069 z "},"Ē":{"ha":863,"x_min":104,"x_max":813,"o":"m 104 0 l 104 983 l 813 983 l 813 799 l 303 799 l 303 576 l 740 576 l 740 399 l 303 399 l 303 183 l 813 183 l 813 0 l 104 0 m 208 1117 l 208 1285 l 715 1285 l 715 1117 l 208 1117 z "},"Ę":{"ha":863,"x_min":104,"x_max":871,"o":"m 104 0 l 104 983 l 813 983 l 813 799 l 303 799 l 303 576 l 740 576 l 740 399 l 303 399 l 303 183 l 813 183 l 813 0 l 104 0 m 765 -289 q 632 -247 681 -287 q 583 -139 583 -207 q 616 -43 583 -85 q 699 18 649 -1 l 811 4 q 746 -37 774 -11 q 718 -99 718 -64 q 738 -148 718 -131 q 790 -165 758 -165 q 821 -162 807 -165 q 849 -151 835 -158 l 871 -264 q 817 -284 844 -279 q 765 -289 790 -289 z "},"F":{"ha":839,"x_min":104,"x_max":804,"o":"m 104 0 l 104 983 l 804 983 l 804 799 l 303 799 l 303 544 l 726 544 l 726 361 l 303 361 l 303 0 l 104 0 z "},"G":{"ha":1017,"x_min":50,"x_max":967,"o":"m 522 -11 q 267 52 372 -11 q 106 228 161 115 q 50 493 50 342 q 81 698 50 606 q 173 857 113 790 q 321 959 233 924 q 519 994 408 994 q 721 958 632 994 q 869 851 810 922 q 946 672 928 779 l 744 672 q 704 748 733 718 q 631 793 675 778 q 532 808 588 808 q 403 782 456 808 q 317 710 350 756 q 270 608 285 665 q 256 489 256 550 q 283 334 256 406 q 371 219 311 263 q 529 175 431 175 q 645 195 594 175 q 727 256 696 215 q 763 356 758 297 l 494 356 l 494 526 l 967 526 l 967 472 q 917 214 967 322 q 768 47 867 106 q 522 -11 669 -11 z "},"Ğ":{"ha":1017,"x_min":50,"x_max":967,"o":"m 522 -11 q 267 52 372 -11 q 106 228 161 115 q 50 493 50 342 q 81 698 50 606 q 173 857 113 790 q 321 959 233 924 q 519 994 408 994 q 721 958 632 994 q 869 851 810 922 q 946 672 928 779 l 744 672 q 704 748 733 718 q 631 793 675 778 q 532 808 588 808 q 403 782 456 808 q 317 710 350 756 q 270 608 285 665 q 256 489 256 550 q 283 334 256 406 q 371 219 311 263 q 529 175 431 175 q 645 195 594 175 q 727 256 696 215 q 763 356 758 297 l 494 356 l 494 526 l 967 526 l 967 472 q 917 214 967 322 q 768 47 867 106 q 522 -11 669 -11 m 507 1067 q 315 1124 385 1067 q 244 1300 246 1182 l 406 1300 q 435 1225 407 1246 q 508 1204 464 1204 q 583 1225 556 1204 q 611 1300 610 1246 l 772 1300 q 740 1170 772 1222 q 649 1092 708 1118 q 507 1067 590 1067 z "},"Ĝ":{"ha":1017,"x_min":50,"x_max":967,"o":"m 522 -11 q 267 52 372 -11 q 106 228 161 115 q 50 493 50 342 q 81 698 50 606 q 173 857 113 790 q 321 959 233 924 q 519 994 408 994 q 721 958 632 994 q 869 851 810 922 q 946 672 928 779 l 744 672 q 704 748 733 718 q 631 793 675 778 q 532 808 588 808 q 403 782 456 808 q 317 710 350 756 q 270 608 285 665 q 256 489 256 550 q 283 334 256 406 q 371 219 311 263 q 529 175 431 175 q 645 195 594 175 q 727 256 696 215 q 763 356 758 297 l 494 356 l 494 526 l 967 526 l 967 472 q 917 214 967 322 q 768 47 867 106 q 522 -11 669 -11 m 229 1069 l 442 1319 l 571 1319 l 786 1069 l 600 1069 l 506 1192 l 414 1069 l 229 1069 z "},"Ģ":{"ha":1017,"x_min":50,"x_max":967,"o":"m 522 -11 q 267 52 372 -11 q 106 228 161 115 q 50 493 50 342 q 81 698 50 606 q 173 857 113 790 q 321 959 233 924 q 519 994 408 994 q 721 958 632 994 q 869 851 810 922 q 946 672 928 779 l 744 672 q 704 748 733 718 q 631 793 675 778 q 532 808 588 808 q 403 782 456 808 q 317 710 350 756 q 270 608 285 665 q 256 489 256 550 q 283 334 256 406 q 371 219 311 263 q 529 175 431 175 q 645 195 594 175 q 727 256 696 215 q 763 356 758 297 l 494 356 l 494 526 l 967 526 l 967 472 q 917 214 967 322 q 768 47 867 106 q 522 -11 669 -11 m 461 -415 l 415 -349 q 455 -322 433 -339 q 494 -284 476 -304 q 517 -247 511 -264 q 454 -222 481 -244 q 428 -158 428 -199 q 458 -87 428 -111 q 529 -64 489 -64 q 609 -102 582 -65 q 635 -193 636 -139 q 610 -290 635 -246 q 547 -367 586 -335 q 461 -415 507 -399 z "},"Ġ":{"ha":1017,"x_min":50,"x_max":967,"o":"m 522 -11 q 267 52 372 -11 q 106 228 161 115 q 50 493 50 342 q 81 698 50 606 q 173 857 113 790 q 321 959 233 924 q 519 994 408 994 q 721 958 632 994 q 869 851 810 922 q 946 672 928 779 l 744 672 q 704 748 733 718 q 631 793 675 778 q 532 808 588 808 q 403 782 456 808 q 317 710 350 756 q 270 608 285 665 q 256 489 256 550 q 283 334 256 406 q 371 219 311 263 q 529 175 431 175 q 645 195 594 175 q 727 256 696 215 q 763 356 758 297 l 494 356 l 494 526 l 967 526 l 967 472 q 917 214 967 322 q 768 47 867 106 q 522 -11 669 -11 m 508 1057 q 421 1090 454 1057 q 388 1174 388 1122 q 422 1261 388 1228 q 510 1294 457 1294 q 594 1262 558 1294 q 629 1175 629 1229 q 595 1090 629 1122 q 508 1057 561 1057 z "},"H":{"ha":1032,"x_min":104,"x_max":928,"o":"m 104 0 l 104 983 l 303 983 l 303 576 l 728 576 l 728 983 l 928 983 l 928 0 l 728 0 l 728 393 l 303 393 l 303 0 l 104 0 z "},"Ħ":{"ha":1032,"x_min":1,"x_max":1031,"o":"m 104 0 l 104 685 l 1 685 l 1 849 l 104 849 l 104 983 l 303 983 l 303 849 l 728 849 l 728 983 l 928 983 l 928 849 l 1031 849 l 1031 685 l 928 685 l 928 0 l 728 0 l 728 368 l 303 368 l 303 0 l 104 0 m 303 551 l 728 551 l 728 685 l 303 685 l 303 551 z "},"Ĥ":{"ha":1032,"x_min":104,"x_max":928,"o":"m 104 0 l 104 983 l 303 983 l 303 576 l 728 576 l 728 983 l 928 983 l 928 0 l 728 0 l 728 393 l 303 393 l 303 0 l 104 0 m 238 1069 l 450 1319 l 579 1319 l 794 1069 l 608 1069 l 514 1192 l 422 1069 l 238 1069 z "},"I":{"ha":407,"x_min":104,"x_max":303,"o":"m 104 0 l 104 983 l 303 983 l 303 0 l 104 0 z "},"Ĳ":{"ha":1131,"x_min":104,"x_max":1032,"o":"m 708 -11 q 572 6 635 -11 q 462 64 508 24 q 389 170 415 104 q 360 332 363 236 l 560 332 q 574 257 561 293 q 616 197 586 221 q 704 174 646 174 q 783 194 756 174 q 822 251 811 215 q 833 328 833 286 l 833 983 l 1032 983 l 1032 349 q 1013 196 1032 263 q 954 83 994 129 q 853 13 914 38 q 708 -11 793 -11 m 104 0 l 104 983 l 303 983 l 303 0 l 104 0 z "},"Í":{"ha":407,"x_min":99,"x_max":463,"o":"m 104 0 l 104 983 l 303 983 l 303 0 l 104 0 m 99 1068 l 256 1307 l 463 1307 l 265 1068 l 99 1068 z "},"Ĭ":{"ha":407,"x_min":-60,"x_max":468,"o":"m 104 0 l 104 983 l 303 983 l 303 0 l 104 0 m 203 1067 q 11 1124 81 1067 q -60 1300 -58 1182 l 101 1300 q 131 1225 103 1246 q 204 1204 160 1204 q 278 1225 251 1204 q 307 1300 306 1246 l 468 1300 q 436 1170 468 1222 q 345 1092 404 1118 q 203 1067 286 1067 z "},"Î":{"ha":407,"x_min":-75,"x_max":482,"o":"m 104 0 l 104 983 l 303 983 l 303 0 l 104 0 m -75 1069 l 138 1319 l 267 1319 l 482 1069 l 296 1069 l 201 1192 l 110 1069 l -75 1069 z "},"Ï":{"ha":407,"x_min":-76,"x_max":485,"o":"m 104 0 l 104 983 l 303 983 l 303 0 l 104 0 m 375 1061 q 297 1089 329 1061 q 264 1168 264 1117 q 298 1250 264 1221 q 375 1279 332 1279 q 453 1251 421 1279 q 485 1169 485 1222 q 453 1089 485 1117 q 375 1061 421 1061 m 35 1061 q -43 1089 -10 1061 q -76 1168 -76 1117 q -43 1250 -76 1221 q 35 1279 -10 1279 q 113 1251 79 1279 q 146 1168 146 1222 q 113 1089 146 1117 q 35 1061 81 1061 z "},"İ":{"ha":407,"x_min":83,"x_max":325,"o":"m 104 0 l 104 983 l 303 983 l 303 0 l 104 0 m 204 1057 q 117 1090 150 1057 q 83 1174 83 1122 q 118 1261 83 1228 q 206 1294 153 1294 q 290 1262 254 1294 q 325 1175 325 1229 q 291 1090 325 1122 q 204 1057 257 1057 z "},"Ì":{"ha":407,"x_min":-51,"x_max":314,"o":"m 104 0 l 104 983 l 303 983 l 303 0 l 104 0 m 147 1069 l -50 1307 l 157 1307 l 314 1069 l 147 1069 z "},"Ī":{"ha":407,"x_min":-50,"x_max":458,"o":"m 104 0 l 104 983 l 303 983 l 303 0 l 104 0 m -49 1117 l -49 1285 l 458 1285 l 458 1117 l -49 1117 z "},"Į":{"ha":407,"x_min":56,"x_max":343,"o":"m 104 0 l 104 983 l 303 983 l 303 0 l 104 0 m 238 -289 q 104 -247 153 -287 q 56 -139 56 -207 q 88 -43 56 -85 q 171 18 121 -1 l 283 4 q 218 -37 246 -11 q 190 -99 190 -64 q 210 -148 190 -131 q 263 -165 231 -165 q 293 -162 279 -165 q 321 -151 307 -158 l 343 -264 q 290 -284 317 -279 q 238 -289 263 -289 z "},"Ĩ":{"ha":407,"x_min":-64,"x_max":471,"o":"m 104 0 l 104 983 l 303 983 l 303 0 l 104 0 m 317 1063 q 247 1078 278 1063 q 193 1111 217 1093 q 149 1144 169 1129 q 113 1160 129 1160 q 83 1143 93 1160 q 72 1106 74 1126 q 74 1069 71 1085 l -60 1069 q -51 1179 -64 1128 q 1 1264 -37 1231 q 107 1297 39 1297 q 170 1283 143 1297 q 219 1251 197 1269 q 258 1219 240 1233 q 296 1206 276 1206 q 324 1220 317 1206 q 333 1255 332 1235 q 333 1289 335 1275 l 467 1289 q 460 1182 471 1235 q 415 1096 449 1129 q 317 1063 382 1063 z "},"J":{"ha":811,"x_min":42,"x_max":714,"o":"m 390 -11 q 253 6 315 -11 q 143 64 190 24 q 69 170 96 104 q 42 332 43 236 l 240 332 q 256 257 243 293 q 298 197 268 221 q 385 174 328 174 q 465 194 438 174 q 503 251 493 215 q 514 328 514 286 l 514 983 l 714 983 l 714 349 q 694 196 714 263 q 635 83 675 129 q 535 13 596 38 q 390 -11 474 -11 z "},"Ĵ":{"ha":811,"x_min":42,"x_max":893,"o":"m 390 -11 q 253 6 315 -11 q 143 64 190 24 q 69 170 96 104 q 42 332 43 236 l 240 332 q 256 257 243 293 q 298 197 268 221 q 385 174 328 174 q 465 194 438 174 q 503 251 493 215 q 514 328 514 286 l 514 983 l 714 983 l 714 349 q 694 196 714 263 q 635 83 675 129 q 535 13 596 38 q 390 -11 474 -11 m 336 1069 l 549 1319 l 678 1319 l 893 1069 l 707 1069 l 613 1192 l 521 1069 l 336 1069 z "},"K":{"ha":933,"x_min":104,"x_max":925,"o":"m 104 0 l 104 983 l 303 983 l 303 575 l 442 575 l 697 983 l 925 983 l 608 506 l 925 0 l 692 0 l 450 392 l 303 392 l 303 0 l 104 0 z "},"Ķ":{"ha":933,"x_min":104,"x_max":925,"o":"m 104 0 l 104 983 l 303 983 l 303 575 l 442 575 l 697 983 l 925 983 l 608 506 l 925 0 l 692 0 l 450 392 l 303 392 l 303 0 l 104 0 m 403 -415 l 357 -349 q 397 -322 375 -339 q 435 -284 418 -304 q 458 -247 453 -264 q 396 -222 422 -244 q 369 -158 369 -199 q 400 -87 369 -111 q 471 -64 431 -64 q 551 -102 524 -65 q 576 -193 578 -139 q 552 -290 576 -246 q 488 -367 528 -335 q 403 -415 449 -399 z "},"L":{"ha":825,"x_min":104,"x_max":801,"o":"m 104 0 l 104 983 l 303 983 l 303 183 l 801 183 l 801 0 l 104 0 z "},"Ĺ":{"ha":825,"x_min":104,"x_max":801,"o":"m 104 0 l 104 983 l 303 983 l 303 183 l 801 183 l 801 0 l 104 0 m 121 1068 l 278 1307 l 485 1307 l 288 1068 l 121 1068 z "},"Ľ":{"ha":825,"x_min":104,"x_max":801,"o":"m 104 0 l 104 983 l 303 983 l 303 183 l 801 183 l 801 0 l 104 0 m 501 596 l 449 674 q 492 703 468 683 q 537 744 517 722 q 563 785 557 767 q 493 815 522 789 q 464 889 464 842 q 498 969 464 942 q 578 996 532 996 q 669 953 639 996 q 699 854 699 911 q 670 740 699 793 q 597 649 642 686 q 501 596 551 611 z "},"Ļ":{"ha":825,"x_min":104,"x_max":801,"o":"m 104 0 l 104 983 l 303 983 l 303 183 l 801 183 l 801 0 l 104 0 m 399 -415 l 353 -349 q 392 -322 371 -339 q 431 -284 414 -304 q 454 -247 449 -264 q 392 -222 418 -244 q 365 -158 365 -199 q 396 -87 365 -111 q 467 -64 426 -64 q 547 -102 519 -65 q 572 -193 574 -139 q 548 -290 572 -246 q 484 -367 524 -335 q 399 -415 444 -399 z "},"Ŀ":{"ha":825,"x_min":104,"x_max":801,"o":"m 104 0 l 104 983 l 303 983 l 303 183 l 801 183 l 801 0 l 104 0 m 565 457 q 478 490 511 457 q 444 575 444 522 q 479 662 444 628 q 565 696 514 696 q 651 663 615 696 q 686 576 686 631 q 652 490 686 522 q 565 457 618 457 z "},"Ł":{"ha":832,"x_min":-44,"x_max":810,"o":"m 113 0 l 113 339 l 42 296 l -44 442 l 113 536 l 113 983 l 311 983 l 311 654 l 418 719 l 504 575 l 311 458 l 311 183 l 810 183 l 810 0 l 113 0 z "},"M":{"ha":1249,"x_min":104,"x_max":1144,"o":"m 104 0 l 104 983 l 368 983 l 631 508 l 890 983 l 1144 983 l 1144 0 l 946 0 l 946 718 l 667 219 l 586 219 l 303 718 l 303 0 l 104 0 z "},"N":{"ha":1064,"x_min":104,"x_max":960,"o":"m 104 0 l 104 983 l 307 983 l 761 318 l 761 983 l 960 983 l 960 0 l 763 0 l 303 658 l 303 0 l 104 0 z "},"Ń":{"ha":1064,"x_min":104,"x_max":960,"o":"m 104 0 l 104 983 l 307 983 l 761 318 l 761 983 l 960 983 l 960 0 l 763 0 l 303 658 l 303 0 l 104 0 m 428 1068 l 585 1307 l 792 1307 l 594 1068 l 428 1068 z "},"Ň":{"ha":1064,"x_min":104,"x_max":960,"o":"m 104 0 l 104 983 l 307 983 l 761 318 l 761 983 l 960 983 l 960 0 l 763 0 l 303 658 l 303 0 l 104 0 m 468 1069 l 253 1319 l 440 1319 l 535 1196 l 626 1319 l 811 1319 l 599 1069 l 468 1069 z "},"Ņ":{"ha":1064,"x_min":104,"x_max":960,"o":"m 104 0 l 104 983 l 307 983 l 761 318 l 761 983 l 960 983 l 960 0 l 763 0 l 303 658 l 303 0 l 104 0 m 472 -415 l 426 -349 q 466 -322 444 -339 q 505 -284 488 -304 q 528 -247 522 -264 q 465 -222 492 -244 q 439 -158 439 -199 q 469 -87 439 -111 q 540 -64 500 -64 q 620 -102 593 -65 q 646 -193 647 -139 q 622 -290 646 -246 q 558 -367 597 -335 q 472 -415 518 -399 z "},"Ñ":{"ha":1064,"x_min":104,"x_max":960,"o":"m 104 0 l 104 983 l 307 983 l 761 318 l 761 983 l 960 983 l 960 0 l 763 0 l 303 658 l 303 0 l 104 0 m 646 1063 q 576 1078 607 1063 q 522 1111 546 1093 q 478 1144 499 1129 q 442 1160 458 1160 q 413 1143 422 1160 q 401 1106 403 1126 q 403 1069 400 1085 l 269 1069 q 278 1179 265 1128 q 330 1264 292 1231 q 436 1297 368 1297 q 499 1283 472 1297 q 548 1251 526 1269 q 588 1219 569 1233 q 625 1206 606 1206 q 653 1220 646 1206 q 663 1255 661 1235 q 663 1289 664 1275 l 796 1289 q 789 1182 800 1235 q 744 1096 778 1129 q 646 1063 711 1063 z "},"Ŋ":{"ha":1064,"x_min":104,"x_max":960,"o":"m 611 -283 l 611 -110 l 672 -110 q 728 -99 708 -110 q 756 -64 749 -87 q 763 -6 764 -40 l 753 14 l 303 658 l 303 0 l 104 0 l 104 983 l 307 983 l 761 318 l 761 983 l 960 983 l 960 -31 q 935 -172 960 -115 q 859 -256 911 -228 q 719 -283 807 -283 l 611 -283 z "},"O":{"ha":1074,"x_min":50,"x_max":1024,"o":"m 535 -11 q 274 53 383 -11 q 108 230 165 117 q 50 490 50 343 q 109 754 50 640 q 278 931 168 868 q 539 994 388 994 q 797 932 689 994 q 965 757 906 869 q 1024 494 1024 644 q 965 233 1024 347 q 797 53 906 118 q 535 -11 688 -11 m 538 175 q 700 221 638 175 q 791 339 763 267 q 819 490 819 411 q 803 606 819 549 q 754 708 788 663 q 667 781 721 754 q 536 808 613 808 q 375 763 438 808 q 283 646 313 718 q 253 492 253 574 q 283 338 253 410 q 376 220 313 265 q 538 175 439 175 z "},"Ó":{"ha":1074,"x_min":50,"x_max":1024,"o":"m 535 -11 q 274 53 383 -11 q 108 230 165 117 q 50 490 50 343 q 109 754 50 640 q 278 931 168 868 q 539 994 388 994 q 797 932 689 994 q 965 757 906 869 q 1024 494 1024 644 q 965 233 1024 347 q 797 53 906 118 q 535 -11 688 -11 m 538 175 q 700 221 638 175 q 791 339 763 267 q 819 490 819 411 q 803 606 819 549 q 754 708 788 663 q 667 781 721 754 q 536 808 613 808 q 375 763 438 808 q 283 646 313 718 q 253 492 253 574 q 283 338 253 410 q 376 220 313 265 q 538 175 439 175 m 432 1068 l 589 1307 l 796 1307 l 599 1068 l 432 1068 z "},"Ŏ":{"ha":1074,"x_min":50,"x_max":1024,"o":"m 535 -11 q 274 53 383 -11 q 108 230 165 117 q 50 490 50 343 q 109 754 50 640 q 278 931 168 868 q 539 994 388 994 q 797 932 689 994 q 965 757 906 869 q 1024 494 1024 644 q 965 233 1024 347 q 797 53 906 118 q 535 -11 688 -11 m 538 175 q 700 221 638 175 q 791 339 763 267 q 819 490 819 411 q 803 606 819 549 q 754 708 788 663 q 667 781 721 754 q 536 808 613 808 q 375 763 438 808 q 283 646 313 718 q 253 492 253 574 q 283 338 253 410 q 376 220 313 265 q 538 175 439 175 m 536 1067 q 344 1124 414 1067 q 274 1300 275 1182 l 435 1300 q 465 1225 436 1246 q 538 1204 493 1204 q 612 1225 585 1204 q 640 1300 639 1246 l 801 1300 q 769 1170 801 1222 q 678 1092 738 1118 q 536 1067 619 1067 z "},"Ô":{"ha":1074,"x_min":50,"x_max":1024,"o":"m 535 -11 q 274 53 383 -11 q 108 230 165 117 q 50 490 50 343 q 109 754 50 640 q 278 931 168 868 q 539 994 388 994 q 797 932 689 994 q 965 757 906 869 q 1024 494 1024 644 q 965 233 1024 347 q 797 53 906 118 q 535 -11 688 -11 m 538 175 q 700 221 638 175 q 791 339 763 267 q 819 490 819 411 q 803 606 819 549 q 754 708 788 663 q 667 781 721 754 q 536 808 613 808 q 375 763 438 808 q 283 646 313 718 q 253 492 253 574 q 283 338 253 410 q 376 220 313 265 q 538 175 439 175 m 258 1069 l 471 1319 l 600 1319 l 815 1069 l 629 1069 l 535 1192 l 443 1069 l 258 1069 z "},"Ö":{"ha":1074,"x_min":50,"x_max":1024,"o":"m 535 -11 q 274 53 383 -11 q 108 230 165 117 q 50 490 50 343 q 109 754 50 640 q 278 931 168 868 q 539 994 388 994 q 797 932 689 994 q 965 757 906 869 q 1024 494 1024 644 q 965 233 1024 347 q 797 53 906 118 q 535 -11 688 -11 m 538 175 q 700 221 638 175 q 791 339 763 267 q 819 490 819 411 q 803 606 819 549 q 754 708 788 663 q 667 781 721 754 q 536 808 613 808 q 375 763 438 808 q 283 646 313 718 q 253 492 253 574 q 283 338 253 410 q 376 220 313 265 q 538 175 439 175 m 707 1061 q 628 1089 661 1061 q 596 1168 596 1117 q 630 1250 596 1221 q 707 1279 664 1279 q 785 1251 753 1279 q 817 1169 817 1222 q 785 1089 817 1117 q 707 1061 753 1061 m 367 1061 q 289 1089 322 1061 q 256 1168 256 1117 q 289 1250 256 1221 q 367 1279 322 1279 q 444 1251 411 1279 q 478 1168 478 1222 q 445 1089 478 1117 q 367 1061 413 1061 z "},"Ò":{"ha":1074,"x_min":50,"x_max":1024,"o":"m 535 -11 q 274 53 383 -11 q 108 230 165 117 q 50 490 50 343 q 109 754 50 640 q 278 931 168 868 q 539 994 388 994 q 797 932 689 994 q 965 757 906 869 q 1024 494 1024 644 q 965 233 1024 347 q 797 53 906 118 q 535 -11 688 -11 m 538 175 q 700 221 638 175 q 791 339 763 267 q 819 490 819 411 q 803 606 819 549 q 754 708 788 663 q 667 781 721 754 q 536 808 613 808 q 375 763 438 808 q 283 646 313 718 q 253 492 253 574 q 283 338 253 410 q 376 220 313 265 q 538 175 439 175 m 481 1069 l 283 1307 l 490 1307 l 647 1069 l 481 1069 z "},"Ő":{"ha":1074,"x_min":50,"x_max":1024,"o":"m 535 -11 q 274 53 383 -11 q 108 230 165 117 q 50 490 50 343 q 109 754 50 640 q 278 931 168 868 q 539 994 388 994 q 797 932 689 994 q 965 757 906 869 q 1024 494 1024 644 q 965 233 1024 347 q 797 53 906 118 q 535 -11 688 -11 m 538 175 q 700 221 638 175 q 791 339 763 267 q 819 490 819 411 q 803 606 819 549 q 754 708 788 663 q 667 781 721 754 q 536 808 613 808 q 375 763 438 808 q 283 646 313 718 q 253 492 253 574 q 283 338 253 410 q 376 220 313 265 q 538 175 439 175 m 565 1069 l 713 1307 l 907 1307 l 721 1069 l 565 1069 m 314 1069 l 422 1307 l 618 1307 l 465 1069 l 314 1069 z "},"Ō":{"ha":1074,"x_min":50,"x_max":1024,"o":"m 535 -11 q 274 53 383 -11 q 108 230 165 117 q 50 490 50 343 q 109 754 50 640 q 278 931 168 868 q 539 994 388 994 q 797 932 689 994 q 965 757 906 869 q 1024 494 1024 644 q 965 233 1024 347 q 797 53 906 118 q 535 -11 688 -11 m 538 175 q 700 221 638 175 q 791 339 763 267 q 819 490 819 411 q 803 606 819 549 q 754 708 788 663 q 667 781 721 754 q 536 808 613 808 q 375 763 438 808 q 283 646 313 718 q 253 492 253 574 q 283 338 253 410 q 376 220 313 265 q 538 175 439 175 m 285 1117 l 285 1285 l 792 1285 l 792 1117 l 285 1117 z "},"Ø":{"ha":1074,"x_min":50,"x_max":1024,"o":"m 200 -154 l 276 53 q 153 160 204 94 q 76 308 103 225 q 50 489 50 390 q 109 753 50 639 q 277 931 168 867 q 535 994 386 994 q 582 992 560 994 q 624 986 604 990 l 681 1138 l 872 1138 l 796 932 q 920 824 869 889 q 997 677 971 760 q 1024 494 1024 594 q 965 233 1024 347 q 797 53 906 118 q 538 -11 689 -11 q 490 -10 513 -11 q 449 -4 468 -8 l 392 -154 l 200 -154 m 353 240 l 565 803 q 536 806 551 806 q 504 806 521 806 q 365 755 421 799 q 281 643 310 711 q 253 492 253 575 q 264 392 253 439 q 298 307 275 346 q 353 240 321 268 m 571 178 q 710 228 654 185 q 792 341 765 272 q 819 492 819 410 q 808 591 819 544 q 775 677 797 638 q 719 743 753 717 l 506 179 q 571 178 538 175 z "},"Õ":{"ha":1074,"x_min":50,"x_max":1024,"o":"m 535 -11 q 274 53 383 -11 q 108 230 165 117 q 50 490 50 343 q 109 754 50 640 q 278 931 168 868 q 539 994 388 994 q 797 932 689 994 q 965 757 906 869 q 1024 494 1024 644 q 965 233 1024 347 q 797 53 906 118 q 535 -11 688 -11 m 538 175 q 700 221 638 175 q 791 339 763 267 q 819 490 819 411 q 803 606 819 549 q 754 708 788 663 q 667 781 721 754 q 536 808 613 808 q 375 763 438 808 q 283 646 313 718 q 253 492 253 574 q 283 338 253 410 q 376 220 313 265 q 538 175 439 175 m 650 1063 q 581 1078 611 1063 q 526 1111 550 1093 q 483 1144 503 1129 q 446 1160 463 1160 q 417 1143 426 1160 q 406 1106 407 1126 q 407 1069 404 1085 l 274 1069 q 283 1179 269 1128 q 334 1264 296 1231 q 440 1297 372 1297 q 503 1283 476 1297 q 552 1251 531 1269 q 592 1219 574 1233 q 629 1206 610 1206 q 658 1220 650 1206 q 667 1255 665 1235 q 667 1289 668 1275 l 800 1289 q 793 1182 804 1235 q 749 1096 782 1129 q 650 1063 715 1063 z "},"Œ":{"ha":1560,"x_min":50,"x_max":1510,"o":"m 538 -11 q 276 53 385 -11 q 108 229 167 117 q 50 489 50 342 q 109 753 50 639 q 278 931 168 867 q 540 994 388 994 q 685 976 621 994 q 801 914 749 957 l 801 983 l 1510 983 l 1510 799 l 1000 799 l 1000 576 l 1436 576 l 1436 399 l 1000 399 l 1000 183 l 1510 183 l 1510 0 l 801 0 l 801 71 q 684 8 749 28 q 538 -11 619 -11 m 538 175 q 667 205 613 175 q 756 285 722 235 q 803 399 790 335 l 803 583 q 763 693 794 642 q 674 776 731 744 q 538 808 618 808 q 382 766 446 808 q 285 651 318 724 q 253 492 253 579 q 285 331 253 403 q 381 217 318 260 q 538 175 444 175 z "},"P":{"ha":907,"x_min":104,"x_max":860,"o":"m 104 0 l 104 983 l 488 983 q 684 949 600 983 q 814 841 768 915 q 860 643 860 767 q 809 450 860 528 q 671 334 758 372 q 472 296 583 296 l 303 296 l 303 0 l 104 0 m 303 474 l 469 474 q 610 516 558 474 q 663 644 663 558 q 619 760 663 721 q 479 799 575 799 l 303 799 l 303 474 z "},"Þ":{"ha":900,"x_min":104,"x_max":851,"o":"m 104 0 l 104 983 l 303 983 l 303 831 l 479 831 q 678 797 594 831 q 806 689 761 763 q 851 493 851 615 q 800 301 851 378 q 660 186 749 224 q 464 149 572 149 l 303 149 l 303 0 l 104 0 m 303 326 l 461 326 q 560 343 517 326 q 629 396 604 360 q 654 490 654 432 q 605 613 654 578 q 471 647 556 647 l 303 647 l 303 326 z "},"Q":{"ha":1075,"x_min":50,"x_max":1024,"o":"m 863 -164 l 721 24 q 632 -2 679 7 q 538 -11 585 -11 q 274 53 383 -11 q 108 229 165 117 q 50 489 50 342 q 109 754 50 640 q 277 931 168 868 q 539 994 386 994 q 798 932 689 994 q 965 757 907 869 q 1024 494 1024 644 q 987 287 1024 378 q 882 131 950 196 l 1017 -46 l 863 -164 m 535 175 q 698 222 635 175 q 790 341 761 268 q 819 494 819 414 q 791 647 819 575 q 700 763 763 718 q 539 808 638 808 q 374 762 438 808 q 282 642 311 715 q 253 489 253 569 q 282 337 253 408 q 374 220 311 265 q 535 175 436 175 z "},"R":{"ha":957,"x_min":104,"x_max":894,"o":"m 104 0 l 104 983 l 500 983 q 641 969 574 983 q 763 919 708 954 q 848 823 817 885 q 879 665 879 761 q 856 538 879 594 q 786 440 832 481 q 676 378 740 400 l 894 0 l 671 0 l 479 346 l 303 346 l 303 0 l 104 0 m 303 522 l 486 522 q 565 530 529 522 q 626 554 600 538 q 666 599 651 571 q 681 667 681 626 q 659 747 682 718 q 595 787 636 775 q 499 799 554 799 l 303 799 l 303 522 z "},"Ŕ":{"ha":957,"x_min":104,"x_max":894,"o":"m 104 0 l 104 983 l 500 983 q 641 969 574 983 q 763 919 708 954 q 848 823 817 885 q 879 665 879 761 q 856 538 879 594 q 786 440 832 481 q 676 378 740 400 l 894 0 l 671 0 l 479 346 l 303 346 l 303 0 l 104 0 m 303 522 l 486 522 q 565 530 529 522 q 626 554 600 538 q 666 599 651 571 q 681 667 681 626 q 659 747 682 718 q 595 787 636 775 q 499 799 554 799 l 303 799 l 303 522 m 374 1068 l 531 1307 l 738 1307 l 540 1068 l 374 1068 z "},"Ř":{"ha":957,"x_min":104,"x_max":894,"o":"m 104 0 l 104 983 l 500 983 q 641 969 574 983 q 763 919 708 954 q 848 823 817 885 q 879 665 879 761 q 856 538 879 594 q 786 440 832 481 q 676 378 740 400 l 894 0 l 671 0 l 479 346 l 303 346 l 303 0 l 104 0 m 303 522 l 486 522 q 565 530 529 522 q 626 554 600 538 q 666 599 651 571 q 681 667 681 626 q 659 747 682 718 q 595 787 636 775 q 499 799 554 799 l 303 799 l 303 522 m 414 1069 l 199 1319 l 386 1319 l 481 1196 l 572 1319 l 757 1319 l 544 1069 l 414 1069 z "},"Ŗ":{"ha":957,"x_min":104,"x_max":894,"o":"m 104 0 l 104 983 l 500 983 q 641 969 574 983 q 763 919 708 954 q 848 823 817 885 q 879 665 879 761 q 856 538 879 594 q 786 440 832 481 q 676 378 740 400 l 894 0 l 671 0 l 479 346 l 303 346 l 303 0 l 104 0 m 303 522 l 486 522 q 565 530 529 522 q 626 554 600 538 q 666 599 651 571 q 681 667 681 626 q 659 747 682 718 q 595 787 636 775 q 499 799 554 799 l 303 799 l 303 522 m 414 -415 l 368 -349 q 408 -322 386 -339 q 447 -284 429 -304 q 469 -247 464 -264 q 407 -222 433 -244 q 381 -158 381 -199 q 411 -87 381 -111 q 482 -64 442 -64 q 562 -102 535 -65 q 588 -193 589 -139 q 563 -290 588 -246 q 499 -367 539 -335 q 414 -415 460 -399 z "},"S":{"ha":917,"x_min":63,"x_max":853,"o":"m 475 -11 q 284 21 372 -11 q 137 122 196 53 q 63 301 78 192 l 265 301 q 311 226 278 254 q 391 185 344 197 q 489 172 438 172 q 565 182 528 172 q 627 215 603 192 q 651 279 651 239 q 638 329 651 310 q 601 360 625 349 q 542 382 576 372 q 481 396 513 390 q 420 410 450 401 q 363 429 390 418 q 261 463 310 443 q 175 515 213 483 q 116 593 138 546 q 94 707 94 640 q 119 829 94 779 q 184 912 143 879 q 276 963 225 944 q 378 988 326 981 q 475 994 429 994 q 647 961 571 994 q 772 861 724 928 q 828 693 821 794 l 635 693 q 604 761 629 735 q 541 800 579 788 q 456 813 503 813 q 396 807 425 813 q 344 790 367 801 q 308 758 321 778 q 294 711 294 739 q 310 663 294 683 q 355 628 325 643 q 425 601 385 614 q 513 579 467 588 q 600 557 558 571 q 699 524 653 543 q 779 477 744 506 q 833 405 814 449 q 853 297 853 361 q 822 153 853 213 q 737 58 790 94 q 615 6 683 22 q 475 -11 547 -11 z "},"Ś":{"ha":917,"x_min":63,"x_max":853,"o":"m 475 -11 q 284 21 372 -11 q 137 122 196 53 q 63 301 78 192 l 265 301 q 311 226 278 254 q 391 185 344 197 q 489 172 438 172 q 565 182 528 172 q 627 215 603 192 q 651 279 651 239 q 638 329 651 310 q 601 360 625 349 q 542 382 576 372 q 481 396 513 390 q 420 410 450 401 q 363 429 390 418 q 261 463 310 443 q 175 515 213 483 q 116 593 138 546 q 94 707 94 640 q 119 829 94 779 q 184 912 143 879 q 276 963 225 944 q 378 988 326 981 q 475 994 429 994 q 647 961 571 994 q 772 861 724 928 q 828 693 821 794 l 635 693 q 604 761 629 735 q 541 800 579 788 q 456 813 503 813 q 396 807 425 813 q 344 790 367 801 q 308 758 321 778 q 294 711 294 739 q 310 663 294 683 q 355 628 325 643 q 425 601 385 614 q 513 579 467 588 q 600 557 558 571 q 699 524 653 543 q 779 477 744 506 q 833 405 814 449 q 853 297 853 361 q 822 153 853 213 q 737 58 790 94 q 615 6 683 22 q 475 -11 547 -11 m 353 1068 l 510 1307 l 717 1307 l 519 1068 l 353 1068 z "},"Š":{"ha":917,"x_min":63,"x_max":853,"o":"m 475 -11 q 284 21 372 -11 q 137 122 196 53 q 63 301 78 192 l 265 301 q 311 226 278 254 q 391 185 344 197 q 489 172 438 172 q 565 182 528 172 q 627 215 603 192 q 651 279 651 239 q 638 329 651 310 q 601 360 625 349 q 542 382 576 372 q 481 396 513 390 q 420 410 450 401 q 363 429 390 418 q 261 463 310 443 q 175 515 213 483 q 116 593 138 546 q 94 707 94 640 q 119 829 94 779 q 184 912 143 879 q 276 963 225 944 q 378 988 326 981 q 475 994 429 994 q 647 961 571 994 q 772 861 724 928 q 828 693 821 794 l 635 693 q 604 761 629 735 q 541 800 579 788 q 456 813 503 813 q 396 807 425 813 q 344 790 367 801 q 308 758 321 778 q 294 711 294 739 q 310 663 294 683 q 355 628 325 643 q 425 601 385 614 q 513 579 467 588 q 600 557 558 571 q 699 524 653 543 q 779 477 744 506 q 833 405 814 449 q 853 297 853 361 q 822 153 853 213 q 737 58 790 94 q 615 6 683 22 q 475 -11 547 -11 m 394 1069 l 179 1319 l 367 1319 l 461 1196 l 553 1319 l 738 1319 l 525 1069 l 394 1069 z "},"Ş":{"ha":917,"x_min":63,"x_max":853,"o":"m 475 -11 q 284 21 372 -11 q 137 122 196 53 q 63 301 78 192 l 265 301 q 311 226 278 254 q 391 185 344 197 q 489 172 438 172 q 565 182 528 172 q 627 215 603 192 q 651 279 651 239 q 638 329 651 310 q 601 360 625 349 q 542 382 576 372 q 481 396 513 390 q 420 410 450 401 q 363 429 390 418 q 261 463 310 443 q 175 515 213 483 q 116 593 138 546 q 94 707 94 640 q 119 829 94 779 q 184 912 143 879 q 276 963 225 944 q 378 988 326 981 q 475 994 429 994 q 647 961 571 994 q 772 861 724 928 q 828 693 821 794 l 635 693 q 604 761 629 735 q 541 800 579 788 q 456 813 503 813 q 396 807 425 813 q 344 790 367 801 q 308 758 321 778 q 294 711 294 739 q 310 663 294 683 q 355 628 325 643 q 425 601 385 614 q 513 579 467 588 q 600 557 558 571 q 699 524 653 543 q 779 477 744 506 q 833 405 814 449 q 853 297 853 361 q 822 153 853 213 q 737 58 790 94 q 615 6 683 22 q 475 -11 547 -11 m 443 -371 q 388 -371 411 -372 q 344 -367 365 -369 l 344 -250 q 406 -256 378 -256 q 455 -250 433 -256 q 488 -231 476 -244 q 500 -197 500 -218 q 489 -169 500 -179 q 460 -156 478 -160 q 426 -151 443 -151 q 383 -154 406 -150 q 347 -164 360 -158 l 404 46 l 532 46 l 506 -57 q 522 -57 514 -57 q 539 -58 531 -57 q 617 -96 588 -65 q 647 -192 647 -126 q 618 -292 647 -253 q 543 -349 589 -331 q 443 -371 497 -368 z "},"Ŝ":{"ha":917,"x_min":63,"x_max":853,"o":"m 475 -11 q 284 21 372 -11 q 137 122 196 53 q 63 301 78 192 l 265 301 q 311 226 278 254 q 391 185 344 197 q 489 172 438 172 q 565 182 528 172 q 627 215 603 192 q 651 279 651 239 q 638 329 651 310 q 601 360 625 349 q 542 382 576 372 q 481 396 513 390 q 420 410 450 401 q 363 429 390 418 q 261 463 310 443 q 175 515 213 483 q 116 593 138 546 q 94 707 94 640 q 119 829 94 779 q 184 912 143 879 q 276 963 225 944 q 378 988 326 981 q 475 994 429 994 q 647 961 571 994 q 772 861 724 928 q 828 693 821 794 l 635 693 q 604 761 629 735 q 541 800 579 788 q 456 813 503 813 q 396 807 425 813 q 344 790 367 801 q 308 758 321 778 q 294 711 294 739 q 310 663 294 683 q 355 628 325 643 q 425 601 385 614 q 513 579 467 588 q 600 557 558 571 q 699 524 653 543 q 779 477 744 506 q 833 405 814 449 q 853 297 853 361 q 822 153 853 213 q 737 58 790 94 q 615 6 683 22 q 475 -11 547 -11 m 179 1069 l 392 1319 l 521 1319 l 736 1069 l 550 1069 l 456 1192 l 364 1069 l 179 1069 z "},"Ș":{"ha":917,"x_min":63,"x_max":853,"o":"m 475 -11 q 284 21 372 -11 q 137 122 196 53 q 63 301 78 192 l 265 301 q 311 226 278 254 q 391 185 344 197 q 489 172 438 172 q 565 182 528 172 q 627 215 603 192 q 651 279 651 239 q 638 329 651 310 q 601 360 625 349 q 542 382 576 372 q 481 396 513 390 q 420 410 450 401 q 363 429 390 418 q 261 463 310 443 q 175 515 213 483 q 116 593 138 546 q 94 707 94 640 q 119 829 94 779 q 184 912 143 879 q 276 963 225 944 q 378 988 326 981 q 475 994 429 994 q 647 961 571 994 q 772 861 724 928 q 828 693 821 794 l 635 693 q 604 761 629 735 q 541 800 579 788 q 456 813 503 813 q 396 807 425 813 q 344 790 367 801 q 308 758 321 778 q 294 711 294 739 q 310 663 294 683 q 355 628 325 643 q 425 601 385 614 q 513 579 467 588 q 600 557 558 571 q 699 524 653 543 q 779 477 744 506 q 833 405 814 449 q 853 297 853 361 q 822 153 853 213 q 737 58 790 94 q 615 6 683 22 q 475 -11 547 -11 m 394 -415 l 349 -349 q 388 -322 367 -339 q 427 -284 410 -304 q 450 -247 444 -264 q 388 -222 414 -244 q 361 -158 361 -199 q 392 -87 361 -111 q 463 -64 422 -64 q 542 -102 515 -65 q 568 -193 569 -139 q 544 -290 568 -246 q 480 -367 519 -335 q 394 -415 440 -399 z "},"ẞ":{"ha":1013,"x_min":103,"x_max":956,"o":"m 674 -11 q 524 20 588 -11 q 426 109 461 51 q 386 246 390 167 l 571 246 q 601 192 575 213 q 669 172 626 172 q 736 197 713 172 q 760 257 760 222 q 731 326 760 299 q 660 376 703 354 q 571 415 617 397 q 503 444 536 431 q 438 471 469 458 l 618 725 q 556 790 597 769 q 468 810 514 810 q 388 793 426 810 q 326 742 350 776 q 303 654 303 708 l 303 0 l 103 0 l 103 671 q 151 851 103 779 q 283 958 200 922 q 468 994 365 994 q 629 967 553 994 q 761 885 706 940 q 836 746 817 831 l 676 549 q 738 523 706 538 q 797 490 769 508 q 877 430 842 464 q 934 351 913 396 q 956 244 956 306 q 922 113 956 171 q 826 22 889 56 q 674 -11 763 -11 z "},"T":{"ha":826,"x_min":13,"x_max":814,"o":"m 313 0 l 313 799 l 13 799 l 13 983 l 814 983 l 814 799 l 513 799 l 513 0 l 313 0 z "},"Ŧ":{"ha":826,"x_min":13,"x_max":814,"o":"m 313 0 l 313 331 l 150 331 l 150 497 l 313 497 l 313 799 l 13 799 l 13 983 l 814 983 l 814 799 l 513 799 l 513 497 l 675 497 l 675 331 l 513 331 l 513 0 l 313 0 z "},"Ť":{"ha":826,"x_min":13,"x_max":814,"o":"m 313 0 l 313 799 l 13 799 l 13 983 l 814 983 l 814 799 l 513 799 l 513 0 l 313 0 m 349 1069 l 133 1319 l 321 1319 l 415 1196 l 507 1319 l 692 1319 l 479 1069 l 349 1069 z "},"Ţ":{"ha":826,"x_min":13,"x_max":814,"o":"m 313 0 l 313 799 l 13 799 l 13 983 l 814 983 l 814 799 l 513 799 l 513 0 l 313 0 m 399 -371 q 344 -371 367 -372 q 300 -367 321 -369 l 300 -250 q 361 -256 333 -256 q 410 -250 389 -256 q 444 -231 432 -244 q 456 -197 456 -218 q 444 -169 456 -179 q 416 -156 433 -160 q 382 -151 399 -151 q 338 -154 361 -150 q 303 -164 315 -158 l 360 46 l 488 46 l 461 -57 q 478 -57 469 -57 q 494 -58 486 -57 q 573 -96 543 -65 q 603 -192 603 -126 q 574 -292 603 -253 q 499 -349 544 -331 q 399 -371 453 -368 z "},"Ț":{"ha":826,"x_min":13,"x_max":814,"o":"m 313 0 l 313 799 l 13 799 l 13 983 l 814 983 l 814 799 l 513 799 l 513 0 l 313 0 m 349 -415 l 303 -349 q 342 -322 321 -339 q 381 -284 364 -304 q 404 -247 399 -264 q 342 -222 368 -244 q 315 -158 315 -199 q 346 -87 315 -111 q 417 -64 376 -64 q 497 -102 469 -65 q 522 -193 524 -139 q 498 -290 522 -246 q 434 -367 474 -335 q 349 -415 394 -399 z "},"U":{"ha":1024,"x_min":97,"x_max":926,"o":"m 514 -11 q 277 43 369 -11 q 141 199 185 97 q 97 442 97 300 l 97 983 l 296 983 l 296 432 q 316 306 296 365 q 384 210 336 247 q 515 174 432 174 q 646 210 600 174 q 710 307 692 247 q 728 432 728 367 l 728 983 l 926 983 l 926 442 q 883 199 926 301 q 749 43 840 97 q 514 -11 657 -11 z "},"Ú":{"ha":1024,"x_min":97,"x_max":926,"o":"m 514 -11 q 277 43 369 -11 q 141 199 185 97 q 97 442 97 300 l 97 983 l 296 983 l 296 432 q 316 306 296 365 q 384 210 336 247 q 515 174 432 174 q 646 210 600 174 q 710 307 692 247 q 728 432 728 367 l 728 983 l 926 983 l 926 442 q 883 199 926 301 q 749 43 840 97 q 514 -11 657 -11 m 407 1068 l 564 1307 l 771 1307 l 574 1068 l 407 1068 z "},"Ŭ":{"ha":1024,"x_min":97,"x_max":926,"o":"m 514 -11 q 277 43 369 -11 q 141 199 185 97 q 97 442 97 300 l 97 983 l 296 983 l 296 432 q 316 306 296 365 q 384 210 336 247 q 515 174 432 174 q 646 210 600 174 q 710 307 692 247 q 728 432 728 367 l 728 983 l 926 983 l 926 442 q 883 199 926 301 q 749 43 840 97 q 514 -11 657 -11 m 511 1067 q 319 1124 389 1067 q 249 1300 250 1182 l 410 1300 q 440 1225 411 1246 q 513 1204 468 1204 q 587 1225 560 1204 q 615 1300 614 1246 l 776 1300 q 744 1170 776 1222 q 653 1092 713 1118 q 511 1067 594 1067 z "},"Û":{"ha":1024,"x_min":97,"x_max":926,"o":"m 514 -11 q 277 43 369 -11 q 141 199 185 97 q 97 442 97 300 l 97 983 l 296 983 l 296 432 q 316 306 296 365 q 384 210 336 247 q 515 174 432 174 q 646 210 600 174 q 710 307 692 247 q 728 432 728 367 l 728 983 l 926 983 l 926 442 q 883 199 926 301 q 749 43 840 97 q 514 -11 657 -11 m 233 1069 l 446 1319 l 575 1319 l 790 1069 l 604 1069 l 510 1192 l 418 1069 l 233 1069 z "},"Ü":{"ha":1024,"x_min":97,"x_max":926,"o":"m 514 -11 q 277 43 369 -11 q 141 199 185 97 q 97 442 97 300 l 97 983 l 296 983 l 296 432 q 316 306 296 365 q 384 210 336 247 q 515 174 432 174 q 646 210 600 174 q 710 307 692 247 q 728 432 728 367 l 728 983 l 926 983 l 926 442 q 883 199 926 301 q 749 43 840 97 q 514 -11 657 -11 m 682 1061 q 603 1089 636 1061 q 571 1168 571 1117 q 605 1250 571 1221 q 682 1279 639 1279 q 760 1251 728 1279 q 792 1169 792 1222 q 760 1089 792 1117 q 682 1061 728 1061 m 342 1061 q 264 1089 297 1061 q 231 1168 231 1117 q 264 1250 231 1221 q 342 1279 297 1279 q 419 1251 386 1279 q 453 1168 453 1222 q 420 1089 453 1117 q 342 1061 388 1061 z "},"Ù":{"ha":1024,"x_min":97,"x_max":926,"o":"m 514 -11 q 277 43 369 -11 q 141 199 185 97 q 97 442 97 300 l 97 983 l 296 983 l 296 432 q 316 306 296 365 q 384 210 336 247 q 515 174 432 174 q 646 210 600 174 q 710 307 692 247 q 728 432 728 367 l 728 983 l 926 983 l 926 442 q 883 199 926 301 q 749 43 840 97 q 514 -11 657 -11 m 456 1069 l 258 1307 l 465 1307 l 622 1069 l 456 1069 z "},"Ű":{"ha":1024,"x_min":97,"x_max":926,"o":"m 514 -11 q 277 43 369 -11 q 141 199 185 97 q 97 442 97 300 l 97 983 l 296 983 l 296 432 q 316 306 296 365 q 384 210 336 247 q 515 174 432 174 q 646 210 600 174 q 710 307 692 247 q 728 432 728 367 l 728 983 l 926 983 l 926 442 q 883 199 926 301 q 749 43 840 97 q 514 -11 657 -11 m 540 1069 l 688 1307 l 882 1307 l 696 1069 l 540 1069 m 289 1069 l 397 1307 l 593 1307 l 440 1069 l 289 1069 z "},"Ū":{"ha":1024,"x_min":97,"x_max":926,"o":"m 514 -11 q 277 43 369 -11 q 141 199 185 97 q 97 442 97 300 l 97 983 l 296 983 l 296 432 q 316 306 296 365 q 384 210 336 247 q 515 174 432 174 q 646 210 600 174 q 710 307 692 247 q 728 432 728 367 l 728 983 l 926 983 l 926 442 q 883 199 926 301 q 749 43 840 97 q 514 -11 657 -11 m 260 1117 l 260 1285 l 767 1285 l 767 1117 l 260 1117 z "},"Ų":{"ha":1024,"x_min":97,"x_max":926,"o":"m 514 -11 q 277 43 369 -11 q 141 199 185 97 q 97 442 97 300 l 97 983 l 296 983 l 296 432 q 316 306 296 365 q 384 210 336 247 q 515 174 432 174 q 646 210 600 174 q 710 307 692 247 q 728 432 728 367 l 728 983 l 926 983 l 926 442 q 883 199 926 301 q 749 43 840 97 q 514 -11 657 -11 m 579 -289 q 446 -247 494 -287 q 397 -139 397 -207 q 430 -43 397 -85 q 513 18 463 -1 l 625 4 q 560 -37 588 -11 q 532 -99 532 -64 q 552 -148 532 -131 q 604 -165 572 -165 q 635 -162 621 -165 q 663 -151 649 -158 l 685 -264 q 631 -284 658 -279 q 579 -289 604 -289 z "},"Ů":{"ha":1024,"x_min":97,"x_max":926,"o":"m 514 -11 q 277 43 369 -11 q 141 199 185 97 q 97 442 97 300 l 97 983 l 296 983 l 296 432 q 316 306 296 365 q 384 210 336 247 q 515 174 432 174 q 646 210 600 174 q 710 307 692 247 q 728 432 728 367 l 728 983 l 926 983 l 926 442 q 883 199 926 301 q 749 43 840 97 q 514 -11 657 -11 m 513 1046 q 394 1089 440 1046 q 347 1201 347 1132 q 395 1317 347 1272 q 514 1363 443 1363 q 631 1318 585 1363 q 678 1201 678 1274 q 632 1089 678 1132 q 513 1046 586 1046 m 513 1147 q 554 1163 539 1147 q 569 1204 569 1179 q 553 1244 569 1228 q 513 1260 538 1260 q 472 1244 488 1260 q 456 1204 456 1228 q 471 1163 456 1179 q 513 1147 486 1147 z "},"Ũ":{"ha":1024,"x_min":97,"x_max":926,"o":"m 514 -11 q 277 43 369 -11 q 141 199 185 97 q 97 442 97 300 l 97 983 l 296 983 l 296 432 q 316 306 296 365 q 384 210 336 247 q 515 174 432 174 q 646 210 600 174 q 710 307 692 247 q 728 432 728 367 l 728 983 l 926 983 l 926 442 q 883 199 926 301 q 749 43 840 97 q 514 -11 657 -11 m 625 1063 q 556 1078 586 1063 q 501 1111 525 1093 q 458 1144 478 1129 q 421 1160 438 1160 q 392 1143 401 1160 q 381 1106 382 1126 q 382 1069 379 1085 l 249 1069 q 258 1179 244 1128 q 309 1264 271 1231 q 415 1297 347 1297 q 478 1283 451 1297 q 527 1251 506 1269 q 567 1219 549 1233 q 604 1206 585 1206 q 633 1220 625 1206 q 642 1255 640 1235 q 642 1289 643 1275 l 775 1289 q 768 1182 779 1235 q 724 1096 757 1129 q 625 1063 690 1063 z "},"V":{"ha":993,"x_min":8,"x_max":985,"o":"m 367 0 l 8 983 l 225 983 l 500 168 l 769 983 l 985 983 l 628 0 l 367 0 z "},"W":{"ha":1394,"x_min":8,"x_max":1386,"o":"m 249 0 l 8 983 l 229 983 l 401 218 l 575 983 l 838 983 l 1008 218 l 1176 983 l 1386 983 l 1149 0 l 874 0 l 701 744 l 532 0 l 249 0 z "},"Ẃ":{"ha":1394,"x_min":8,"x_max":1386,"o":"m 249 0 l 8 983 l 229 983 l 401 218 l 575 983 l 838 983 l 1008 218 l 1176 983 l 1386 983 l 1149 0 l 874 0 l 701 744 l 532 0 l 249 0 m 592 1068 l 749 1307 l 956 1307 l 758 1068 l 592 1068 z "},"Ŵ":{"ha":1394,"x_min":8,"x_max":1386,"o":"m 249 0 l 8 983 l 229 983 l 401 218 l 575 983 l 838 983 l 1008 218 l 1176 983 l 1386 983 l 1149 0 l 874 0 l 701 744 l 532 0 l 249 0 m 418 1069 l 631 1319 l 760 1319 l 975 1069 l 789 1069 l 694 1192 l 603 1069 l 418 1069 z "},"Ẅ":{"ha":1394,"x_min":8,"x_max":1386,"o":"m 249 0 l 8 983 l 229 983 l 401 218 l 575 983 l 838 983 l 1008 218 l 1176 983 l 1386 983 l 1149 0 l 874 0 l 701 744 l 532 0 l 249 0 m 868 1061 q 790 1089 822 1061 q 757 1168 757 1117 q 791 1250 757 1221 q 868 1279 825 1279 q 946 1251 914 1279 q 978 1169 978 1222 q 946 1089 978 1117 q 868 1061 914 1061 m 528 1061 q 450 1089 483 1061 q 417 1168 417 1117 q 450 1250 417 1221 q 528 1279 483 1279 q 606 1251 572 1279 q 639 1168 639 1222 q 606 1089 639 1117 q 528 1061 574 1061 z "},"Ẁ":{"ha":1394,"x_min":8,"x_max":1386,"o":"m 249 0 l 8 983 l 229 983 l 401 218 l 575 983 l 838 983 l 1008 218 l 1176 983 l 1386 983 l 1149 0 l 874 0 l 701 744 l 532 0 l 249 0 m 640 1069 l 443 1307 l 650 1307 l 807 1069 l 640 1069 z "},"X":{"ha":929,"x_min":8,"x_max":921,"o":"m 8 0 l 342 492 l 18 983 l 258 983 l 468 639 l 675 983 l 911 983 l 588 493 l 921 0 l 681 0 l 461 344 l 235 0 l 8 0 z "},"Y":{"ha":947,"x_min":8,"x_max":939,"o":"m 374 0 l 374 367 l 8 983 l 238 983 l 474 551 l 714 983 l 939 983 l 572 368 l 572 0 l 374 0 z "},"Ý":{"ha":947,"x_min":8,"x_max":939,"o":"m 374 0 l 374 367 l 8 983 l 238 983 l 474 551 l 714 983 l 939 983 l 572 368 l 572 0 l 374 0 m 368 1068 l 525 1307 l 732 1307 l 535 1068 l 368 1068 z "},"Ŷ":{"ha":947,"x_min":8,"x_max":939,"o":"m 374 0 l 374 367 l 8 983 l 238 983 l 474 551 l 714 983 l 939 983 l 572 368 l 572 0 l 374 0 m 194 1069 l 407 1319 l 536 1319 l 751 1069 l 565 1069 l 471 1192 l 379 1069 l 194 1069 z "},"Ÿ":{"ha":947,"x_min":8,"x_max":939,"o":"m 374 0 l 374 367 l 8 983 l 238 983 l 474 551 l 714 983 l 939 983 l 572 368 l 572 0 l 374 0 m 644 1061 q 566 1089 599 1061 q 533 1168 533 1117 q 567 1250 533 1221 q 644 1279 601 1279 q 722 1251 690 1279 q 754 1169 754 1222 q 722 1089 754 1117 q 644 1061 690 1061 m 304 1061 q 226 1089 260 1061 q 193 1168 193 1117 q 226 1250 193 1221 q 304 1279 260 1279 q 382 1251 349 1279 q 415 1168 415 1222 q 383 1089 415 1117 q 304 1061 350 1061 z "},"Ỳ":{"ha":947,"x_min":8,"x_max":939,"o":"m 374 0 l 374 367 l 8 983 l 238 983 l 474 551 l 714 983 l 939 983 l 572 368 l 572 0 l 374 0 m 417 1069 l 219 1307 l 426 1307 l 583 1069 l 417 1069 z "},"Z":{"ha":857,"x_min":44,"x_max":813,"o":"m 44 0 l 44 157 l 550 799 l 60 799 l 60 983 l 813 983 l 813 828 l 306 183 l 804 183 l 804 0 l 44 0 z "},"Ź":{"ha":857,"x_min":44,"x_max":813,"o":"m 44 0 l 44 157 l 550 799 l 60 799 l 60 983 l 813 983 l 813 828 l 306 183 l 804 183 l 804 0 l 44 0 m 324 1068 l 481 1307 l 688 1307 l 490 1068 l 324 1068 z "},"Ž":{"ha":857,"x_min":44,"x_max":813,"o":"m 44 0 l 44 157 l 550 799 l 60 799 l 60 983 l 813 983 l 813 828 l 306 183 l 804 183 l 804 0 l 44 0 m 365 1069 l 150 1319 l 338 1319 l 432 1196 l 524 1319 l 708 1319 l 496 1069 l 365 1069 z "},"Ż":{"ha":857,"x_min":44,"x_max":813,"o":"m 44 0 l 44 157 l 550 799 l 60 799 l 60 983 l 813 983 l 813 828 l 306 183 l 804 183 l 804 0 l 44 0 m 429 1057 q 342 1090 375 1057 q 308 1174 308 1122 q 343 1261 308 1228 q 431 1294 378 1294 q 515 1262 479 1294 q 550 1175 550 1229 q 516 1090 550 1122 q 429 1057 482 1057 z "},"a":{"ha":789,"x_min":51,"x_max":714,"o":"m 308 -10 q 212 3 258 -10 q 129 44 165 17 q 72 114 93 72 q 51 211 51 156 q 82 331 51 286 q 164 400 113 376 q 283 432 215 424 q 422 440 350 440 l 528 440 q 513 512 528 481 q 469 560 499 543 q 394 578 440 578 q 338 570 365 578 q 293 549 311 563 q 269 513 275 535 l 72 513 q 111 617 81 574 q 188 689 142 661 q 288 730 233 717 q 401 743 343 743 q 638 652 561 743 q 714 394 714 561 l 714 0 l 539 0 l 536 94 q 458 24 501 46 q 374 -4 414 1 q 308 -10 333 -10 m 353 144 q 442 164 401 144 q 506 217 482 183 q 529 292 529 250 l 529 310 l 396 310 q 340 307 367 310 q 291 297 313 304 q 257 272 269 289 q 244 228 244 256 q 259 181 244 200 q 299 153 274 163 q 353 144 324 144 z "},"á":{"ha":789,"x_min":51,"x_max":714,"o":"m 308 -10 q 212 3 258 -10 q 129 44 165 17 q 72 114 93 72 q 51 211 51 156 q 82 331 51 286 q 164 400 113 376 q 283 432 215 424 q 422 440 350 440 l 528 440 q 513 512 528 481 q 469 560 499 543 q 394 578 440 578 q 338 570 365 578 q 293 549 311 563 q 269 513 275 535 l 72 513 q 111 617 81 574 q 188 689 142 661 q 288 730 233 717 q 401 743 343 743 q 638 652 561 743 q 714 394 714 561 l 714 0 l 539 0 l 536 94 q 458 24 501 46 q 374 -4 414 1 q 308 -10 333 -10 m 353 144 q 442 164 401 144 q 506 217 482 183 q 529 292 529 250 l 529 310 l 396 310 q 340 307 367 310 q 291 297 313 304 q 257 272 269 289 q 244 228 244 256 q 259 181 244 200 q 299 153 274 163 q 353 144 324 144 m 299 821 l 456 1060 l 663 1060 l 465 821 l 299 821 z "},"ă":{"ha":789,"x_min":51,"x_max":714,"o":"m 308 -10 q 212 3 258 -10 q 129 44 165 17 q 72 114 93 72 q 51 211 51 156 q 82 331 51 286 q 164 400 113 376 q 283 432 215 424 q 422 440 350 440 l 528 440 q 513 512 528 481 q 469 560 499 543 q 394 578 440 578 q 338 570 365 578 q 293 549 311 563 q 269 513 275 535 l 72 513 q 111 617 81 574 q 188 689 142 661 q 288 730 233 717 q 401 743 343 743 q 638 652 561 743 q 714 394 714 561 l 714 0 l 539 0 l 536 94 q 458 24 501 46 q 374 -4 414 1 q 308 -10 333 -10 m 353 144 q 442 164 401 144 q 506 217 482 183 q 529 292 529 250 l 529 310 l 396 310 q 340 307 367 310 q 291 297 313 304 q 257 272 269 289 q 244 228 244 256 q 259 181 244 200 q 299 153 274 163 q 353 144 324 144 m 403 818 q 211 876 281 818 q 140 1051 142 933 l 301 1051 q 331 976 303 997 q 404 956 360 956 q 478 976 451 956 q 507 1051 506 997 l 668 1051 q 636 922 668 974 q 545 844 604 869 q 403 818 486 818 z "},"â":{"ha":789,"x_min":51,"x_max":714,"o":"m 308 -10 q 212 3 258 -10 q 129 44 165 17 q 72 114 93 72 q 51 211 51 156 q 82 331 51 286 q 164 400 113 376 q 283 432 215 424 q 422 440 350 440 l 528 440 q 513 512 528 481 q 469 560 499 543 q 394 578 440 578 q 338 570 365 578 q 293 549 311 563 q 269 513 275 535 l 72 513 q 111 617 81 574 q 188 689 142 661 q 288 730 233 717 q 401 743 343 743 q 638 652 561 743 q 714 394 714 561 l 714 0 l 539 0 l 536 94 q 458 24 501 46 q 374 -4 414 1 q 308 -10 333 -10 m 353 144 q 442 164 401 144 q 506 217 482 183 q 529 292 529 250 l 529 310 l 396 310 q 340 307 367 310 q 291 297 313 304 q 257 272 269 289 q 244 228 244 256 q 259 181 244 200 q 299 153 274 163 q 353 144 324 144 m 125 821 l 338 1071 l 467 1071 l 682 821 l 496 821 l 401 943 l 310 821 l 125 821 z "},"ä":{"ha":789,"x_min":51,"x_max":714,"o":"m 308 -10 q 212 3 258 -10 q 129 44 165 17 q 72 114 93 72 q 51 211 51 156 q 82 331 51 286 q 164 400 113 376 q 283 432 215 424 q 422 440 350 440 l 528 440 q 513 512 528 481 q 469 560 499 543 q 394 578 440 578 q 338 570 365 578 q 293 549 311 563 q 269 513 275 535 l 72 513 q 111 617 81 574 q 188 689 142 661 q 288 730 233 717 q 401 743 343 743 q 638 652 561 743 q 714 394 714 561 l 714 0 l 539 0 l 536 94 q 458 24 501 46 q 374 -4 414 1 q 308 -10 333 -10 m 353 144 q 442 164 401 144 q 506 217 482 183 q 529 292 529 250 l 529 310 l 396 310 q 340 307 367 310 q 291 297 313 304 q 257 272 269 289 q 244 228 244 256 q 259 181 244 200 q 299 153 274 163 q 353 144 324 144 m 575 813 q 497 840 529 813 q 464 919 464 868 q 498 1001 464 972 q 575 1031 532 1031 q 653 1002 621 1031 q 685 921 685 974 q 653 840 685 868 q 575 813 621 813 m 235 813 q 157 840 190 813 q 124 919 124 868 q 157 1001 124 972 q 235 1031 190 1031 q 313 1002 279 1031 q 346 919 346 974 q 313 840 346 868 q 235 813 281 813 z "},"à":{"ha":789,"x_min":51,"x_max":714,"o":"m 308 -10 q 212 3 258 -10 q 129 44 165 17 q 72 114 93 72 q 51 211 51 156 q 82 331 51 286 q 164 400 113 376 q 283 432 215 424 q 422 440 350 440 l 528 440 q 513 512 528 481 q 469 560 499 543 q 394 578 440 578 q 338 570 365 578 q 293 549 311 563 q 269 513 275 535 l 72 513 q 111 617 81 574 q 188 689 142 661 q 288 730 233 717 q 401 743 343 743 q 638 652 561 743 q 714 394 714 561 l 714 0 l 539 0 l 536 94 q 458 24 501 46 q 374 -4 414 1 q 308 -10 333 -10 m 353 144 q 442 164 401 144 q 506 217 482 183 q 529 292 529 250 l 529 310 l 396 310 q 340 307 367 310 q 291 297 313 304 q 257 272 269 289 q 244 228 244 256 q 259 181 244 200 q 299 153 274 163 q 353 144 324 144 m 347 821 l 150 1058 l 357 1058 l 514 821 l 347 821 z "},"ā":{"ha":789,"x_min":51,"x_max":714,"o":"m 308 -10 q 212 3 258 -10 q 129 44 165 17 q 72 114 93 72 q 51 211 51 156 q 82 331 51 286 q 164 400 113 376 q 283 432 215 424 q 422 440 350 440 l 528 440 q 513 512 528 481 q 469 560 499 543 q 394 578 440 578 q 338 570 365 578 q 293 549 311 563 q 269 513 275 535 l 72 513 q 111 617 81 574 q 188 689 142 661 q 288 730 233 717 q 401 743 343 743 q 638 652 561 743 q 714 394 714 561 l 714 0 l 539 0 l 536 94 q 458 24 501 46 q 374 -4 414 1 q 308 -10 333 -10 m 353 144 q 442 164 401 144 q 506 217 482 183 q 529 292 529 250 l 529 310 l 396 310 q 340 307 367 310 q 291 297 313 304 q 257 272 269 289 q 244 228 244 256 q 259 181 244 200 q 299 153 274 163 q 353 144 324 144 m 151 868 l 151 1036 l 658 1036 l 658 868 l 151 868 z "},"ą":{"ha":789,"x_min":51,"x_max":751,"o":"m 308 -10 q 212 3 258 -10 q 129 44 165 17 q 72 114 93 72 q 51 211 51 156 q 82 331 51 286 q 164 400 113 376 q 283 432 215 424 q 422 440 350 440 l 528 440 q 513 512 528 481 q 469 560 499 543 q 394 578 440 578 q 338 570 365 578 q 293 549 311 563 q 269 513 275 535 l 72 513 q 111 617 81 574 q 188 689 142 661 q 288 730 233 717 q 401 743 343 743 q 638 652 561 743 q 714 394 714 561 l 714 0 l 539 0 l 536 94 q 458 24 501 46 q 374 -4 414 1 q 308 -10 333 -10 m 353 144 q 442 164 401 144 q 506 217 482 183 q 529 292 529 250 l 529 310 l 396 310 q 340 307 367 310 q 291 297 313 304 q 257 272 269 289 q 244 228 244 256 q 259 181 244 200 q 299 153 274 163 q 353 144 324 144 m 646 -289 q 513 -247 561 -287 q 464 -139 464 -207 q 497 -43 464 -85 q 579 18 529 -1 l 692 4 q 626 -37 654 -11 q 599 -99 599 -64 q 619 -148 599 -131 q 671 -165 639 -165 q 701 -162 688 -165 q 729 -151 715 -158 l 751 -264 q 698 -284 725 -279 q 646 -289 671 -289 z "},"å":{"ha":789,"x_min":51,"x_max":714,"o":"m 308 -10 q 212 3 258 -10 q 129 44 165 17 q 72 114 93 72 q 51 211 51 156 q 82 331 51 286 q 164 400 113 376 q 283 432 215 424 q 422 440 350 440 l 528 440 q 513 512 528 481 q 469 560 499 543 q 394 578 440 578 q 338 570 365 578 q 293 549 311 563 q 269 513 275 535 l 72 513 q 111 617 81 574 q 188 689 142 661 q 288 730 233 717 q 401 743 343 743 q 638 652 561 743 q 714 394 714 561 l 714 0 l 539 0 l 536 94 q 458 24 501 46 q 374 -4 414 1 q 308 -10 333 -10 m 353 144 q 442 164 401 144 q 506 217 482 183 q 529 292 529 250 l 529 310 l 396 310 q 340 307 367 310 q 291 297 313 304 q 257 272 269 289 q 244 228 244 256 q 259 181 244 200 q 299 153 274 163 q 353 144 324 144 m 404 797 q 285 840 332 797 q 239 953 239 883 q 287 1069 239 1024 q 406 1114 335 1114 q 523 1069 476 1114 q 569 953 569 1025 q 524 840 569 883 q 404 797 478 797 m 404 899 q 446 915 431 899 q 461 956 461 931 q 445 995 461 979 q 404 1011 429 1011 q 363 995 379 1011 q 347 956 347 979 q 363 915 347 931 q 404 899 378 899 z "},"ã":{"ha":789,"x_min":51,"x_max":714,"o":"m 308 -10 q 212 3 258 -10 q 129 44 165 17 q 72 114 93 72 q 51 211 51 156 q 82 331 51 286 q 164 400 113 376 q 283 432 215 424 q 422 440 350 440 l 528 440 q 513 512 528 481 q 469 560 499 543 q 394 578 440 578 q 338 570 365 578 q 293 549 311 563 q 269 513 275 535 l 72 513 q 111 617 81 574 q 188 689 142 661 q 288 730 233 717 q 401 743 343 743 q 638 652 561 743 q 714 394 714 561 l 714 0 l 539 0 l 536 94 q 458 24 501 46 q 374 -4 414 1 q 308 -10 333 -10 m 353 144 q 442 164 401 144 q 506 217 482 183 q 529 292 529 250 l 529 310 l 396 310 q 340 307 367 310 q 291 297 313 304 q 257 272 269 289 q 244 228 244 256 q 259 181 244 200 q 299 153 274 163 q 353 144 324 144 m 517 814 q 447 829 478 814 q 393 863 417 844 q 349 896 369 881 q 313 911 329 911 q 283 894 293 911 q 272 857 274 878 q 274 821 271 836 l 140 821 q 149 931 136 879 q 201 1015 163 982 q 307 1049 239 1049 q 370 1035 343 1049 q 419 1003 397 1021 q 458 971 440 985 q 496 957 476 957 q 524 972 517 957 q 533 1006 532 986 q 533 1040 535 1026 l 667 1040 q 660 933 671 986 q 615 847 649 881 q 517 814 582 814 z "},"æ":{"ha":1267,"x_min":51,"x_max":1218,"o":"m 333 -10 q 195 15 260 -10 q 91 89 131 39 q 51 214 51 139 q 79 329 51 285 q 153 397 107 374 q 256 430 200 421 q 369 439 313 439 l 528 439 q 510 515 526 485 q 465 562 494 546 q 394 578 435 578 q 319 564 358 578 q 269 513 281 550 l 72 513 q 132 643 83 592 q 251 719 181 694 q 399 743 321 743 q 527 722 464 743 q 635 647 590 701 q 740 718 678 692 q 882 744 801 744 q 1059 699 983 744 q 1176 572 1135 653 q 1218 385 1218 492 q 1217 345 1218 365 q 1211 307 1215 325 l 711 307 q 735 223 714 257 q 794 172 757 189 q 876 156 831 156 q 934 162 906 156 q 986 184 963 168 q 1019 226 1010 200 l 1213 226 q 1144 93 1193 146 q 1027 15 1096 40 q 878 -10 958 -10 q 722 19 793 -10 q 604 107 650 49 q 531 40 572 67 q 440 2 489 14 q 333 -10 392 -10 m 357 144 q 444 163 407 144 q 504 217 482 182 q 531 300 526 251 l 531 307 l 360 307 q 319 303 339 307 q 282 292 299 300 q 255 267 265 283 q 244 228 244 251 q 261 178 244 197 q 304 152 278 160 q 357 144 331 144 m 714 439 l 1032 439 q 1011 517 1032 485 q 956 568 990 550 q 878 586 922 586 q 796 568 832 586 q 738 517 760 550 q 714 439 717 485 z "},"b":{"ha":867,"x_min":76,"x_max":818,"o":"m 493 -10 q 417 -3 457 -10 q 340 24 378 4 q 268 82 301 44 l 267 0 l 76 0 l 76 983 l 271 983 l 271 646 q 374 720 313 696 q 503 744 436 744 q 681 695 611 744 q 784 561 750 646 q 818 367 818 476 q 783 174 818 260 q 677 40 749 89 q 493 -10 606 -10 m 451 164 q 557 194 519 164 q 610 272 594 225 q 625 371 625 319 q 608 467 625 422 q 553 540 592 513 q 451 567 515 567 q 352 538 393 567 q 290 464 311 510 q 269 365 269 418 q 288 266 269 313 q 347 192 307 219 q 451 164 388 164 z "},"c":{"ha":781,"x_min":49,"x_max":739,"o":"m 404 -10 q 212 36 292 -10 q 90 166 132 82 q 49 364 49 250 q 92 565 49 479 q 216 697 135 650 q 413 744 297 744 q 571 713 501 744 q 683 621 640 681 q 732 474 725 561 l 542 474 q 494 544 529 522 q 410 567 458 567 q 310 536 347 567 q 258 458 274 506 q 242 364 242 411 q 258 267 242 313 q 312 194 275 222 q 408 165 349 165 q 496 188 458 165 q 544 260 533 211 l 739 260 q 685 110 732 169 q 565 20 638 50 q 404 -10 492 -10 z "},"ć":{"ha":781,"x_min":49,"x_max":739,"o":"m 404 -10 q 212 36 292 -10 q 90 166 132 82 q 49 364 49 250 q 92 565 49 479 q 216 697 135 650 q 413 744 297 744 q 571 713 501 744 q 683 621 640 681 q 732 474 725 561 l 542 474 q 494 544 529 522 q 410 567 458 567 q 310 536 347 567 q 258 458 274 506 q 242 364 242 411 q 258 267 242 313 q 312 194 275 222 q 408 165 349 165 q 496 188 458 165 q 544 260 533 211 l 739 260 q 685 110 732 169 q 565 20 638 50 q 404 -10 492 -10 m 285 818 l 442 1057 l 649 1057 l 451 818 l 285 818 z "},"č":{"ha":781,"x_min":49,"x_max":739,"o":"m 404 -10 q 212 36 292 -10 q 90 166 132 82 q 49 364 49 250 q 92 565 49 479 q 216 697 135 650 q 413 744 297 744 q 571 713 501 744 q 683 621 640 681 q 732 474 725 561 l 542 474 q 494 544 529 522 q 410 567 458 567 q 310 536 347 567 q 258 458 274 506 q 242 364 242 411 q 258 267 242 313 q 312 194 275 222 q 408 165 349 165 q 496 188 458 165 q 544 260 533 211 l 739 260 q 685 110 732 169 q 565 20 638 50 q 404 -10 492 -10 m 326 818 l 111 1068 l 299 1068 l 393 944 l 485 1068 l 669 1068 l 457 818 l 326 818 z "},"ç":{"ha":781,"x_min":49,"x_max":739,"o":"m 404 -10 q 212 36 292 -10 q 90 166 132 82 q 49 364 49 250 q 92 565 49 479 q 216 697 135 650 q 413 744 297 744 q 571 713 501 744 q 683 621 640 681 q 732 474 725 561 l 542 474 q 494 544 529 522 q 410 567 458 567 q 310 536 347 567 q 258 458 274 506 q 242 364 242 411 q 258 267 242 313 q 312 194 275 222 q 408 165 349 165 q 496 188 458 165 q 544 260 533 211 l 739 260 q 685 110 732 169 q 565 20 638 50 q 404 -10 492 -10 m 375 -371 q 320 -371 343 -372 q 276 -367 297 -369 l 276 -250 q 338 -256 310 -256 q 387 -250 365 -256 q 420 -231 408 -244 q 432 -197 432 -218 q 421 -169 432 -179 q 392 -156 410 -160 q 358 -151 375 -151 q 315 -154 338 -150 q 279 -164 292 -158 l 336 46 l 464 46 l 438 -57 q 454 -57 446 -57 q 471 -58 463 -57 q 549 -96 519 -65 q 579 -192 579 -126 q 550 -292 579 -253 q 475 -349 521 -331 q 375 -371 429 -368 z "},"ĉ":{"ha":781,"x_min":49,"x_max":739,"o":"m 404 -10 q 212 36 292 -10 q 90 166 132 82 q 49 364 49 250 q 92 565 49 479 q 216 697 135 650 q 413 744 297 744 q 571 713 501 744 q 683 621 640 681 q 732 474 725 561 l 542 474 q 494 544 529 522 q 410 567 458 567 q 310 536 347 567 q 258 458 274 506 q 242 364 242 411 q 258 267 242 313 q 312 194 275 222 q 408 165 349 165 q 496 188 458 165 q 544 260 533 211 l 739 260 q 685 110 732 169 q 565 20 638 50 q 404 -10 492 -10 m 111 818 l 324 1068 l 453 1068 l 668 818 l 482 818 l 388 940 l 296 818 l 111 818 z "},"ċ":{"ha":781,"x_min":49,"x_max":739,"o":"m 404 -10 q 212 36 292 -10 q 90 166 132 82 q 49 364 49 250 q 92 565 49 479 q 216 697 135 650 q 413 744 297 744 q 571 713 501 744 q 683 621 640 681 q 732 474 725 561 l 542 474 q 494 544 529 522 q 410 567 458 567 q 310 536 347 567 q 258 458 274 506 q 242 364 242 411 q 258 267 242 313 q 312 194 275 222 q 408 165 349 165 q 496 188 458 165 q 544 260 533 211 l 739 260 q 685 110 732 169 q 565 20 638 50 q 404 -10 492 -10 m 390 806 q 303 838 336 806 q 269 922 269 871 q 304 1010 269 976 q 392 1043 339 1043 q 476 1010 440 1043 q 511 924 511 978 q 477 838 511 871 q 390 806 443 806 z "},"d":{"ha":868,"x_min":49,"x_max":792,"o":"m 378 -10 q 194 41 267 -10 q 85 177 121 92 q 49 367 49 263 q 88 562 49 476 q 203 696 126 647 q 393 744 279 744 q 470 735 432 744 q 541 709 508 726 q 597 664 574 692 l 597 983 l 792 983 l 792 0 l 603 0 l 600 82 q 540 30 575 50 q 464 0 504 10 q 378 -10 424 -10 m 417 165 q 519 194 479 165 q 578 269 558 224 q 597 368 597 315 q 578 467 597 422 q 520 540 560 513 q 417 567 481 567 q 314 538 353 567 q 259 462 275 508 q 243 363 243 415 q 252 288 243 324 q 282 225 261 253 q 336 181 303 197 q 417 165 369 165 z "},"ď":{"ha":868,"x_min":49,"x_max":1068,"o":"m 378 -10 q 194 41 267 -10 q 85 177 121 92 q 49 367 49 263 q 88 562 49 476 q 203 696 126 647 q 393 744 279 744 q 470 735 432 744 q 541 709 508 726 q 597 664 574 692 l 597 983 l 792 983 l 792 0 l 603 0 l 600 82 q 540 30 575 50 q 464 0 504 10 q 378 -10 424 -10 m 417 165 q 519 194 479 165 q 578 269 558 224 q 597 368 597 315 q 578 467 597 422 q 520 540 560 513 q 417 567 481 567 q 314 538 353 567 q 259 462 275 508 q 243 363 243 415 q 252 288 243 324 q 282 225 261 253 q 336 181 303 197 q 417 165 369 165 m 872 597 l 819 675 q 863 704 839 685 q 908 746 888 724 q 933 786 928 768 q 864 817 893 790 q 835 890 835 843 q 869 970 835 943 q 949 997 903 997 q 1040 955 1010 997 q 1069 856 1069 913 q 1041 741 1069 794 q 967 650 1013 688 q 872 597 922 613 z "},"đ":{"ha":868,"x_min":49,"x_max":901,"o":"m 378 -10 q 193 41 267 -10 q 84 177 119 92 q 49 367 49 263 q 88 561 49 476 q 203 694 126 646 q 393 743 279 743 q 470 735 432 743 q 541 709 508 726 q 597 664 574 692 l 597 775 l 457 775 l 457 904 l 597 904 l 597 983 l 792 983 l 792 904 l 901 904 l 901 775 l 792 775 l 792 0 l 603 0 l 600 82 q 540 30 575 50 q 464 0 504 10 q 378 -10 424 -10 m 417 165 q 522 195 482 165 q 579 272 561 225 q 597 368 597 318 q 578 467 597 422 q 520 540 560 513 q 417 567 481 567 q 314 538 353 567 q 259 462 275 508 q 243 363 243 415 q 252 288 243 324 q 282 225 261 253 q 336 181 303 197 q 417 165 369 165 z "},"ð":{"ha":836,"x_min":49,"x_max":788,"o":"m 407 -10 q 217 35 297 -10 q 92 161 136 81 q 49 349 49 242 q 88 526 49 449 q 201 649 128 604 q 372 694 274 694 q 503 669 442 694 q 604 586 565 643 q 584 671 603 625 q 538 756 565 717 q 485 817 511 796 l 332 726 l 265 843 l 364 903 q 280 935 331 924 q 183 951 229 947 l 210 1097 q 370 1064 294 1088 q 513 1000 446 1040 l 665 1092 l 738 974 l 631 908 q 721 779 686 847 q 772 628 756 711 q 788 439 788 546 q 766 266 788 347 q 698 122 744 185 q 579 25 651 60 q 407 -10 507 -10 m 413 163 q 502 185 464 163 q 561 249 540 208 q 582 338 582 289 q 560 430 582 390 q 499 492 538 469 q 407 514 460 514 q 319 491 357 514 q 263 430 282 468 q 243 343 243 392 q 263 251 243 292 q 322 187 283 211 q 413 163 361 163 z "},"e":{"ha":799,"x_min":49,"x_max":751,"o":"m 411 -10 q 215 36 296 -10 q 92 166 135 82 q 49 363 49 250 q 93 562 49 476 q 219 696 138 647 q 411 744 300 744 q 558 717 494 744 q 665 639 621 689 q 730 523 708 589 q 750 381 751 457 q 749 343 750 361 q 743 307 747 325 l 242 307 q 265 231 246 265 q 320 176 285 196 q 408 156 356 156 q 472 163 443 156 q 522 188 501 171 q 551 226 543 204 l 743 226 q 676 92 725 144 q 557 15 626 39 q 411 -10 488 -10 m 246 443 l 564 443 q 545 513 563 481 q 494 566 528 546 q 407 586 460 586 q 319 565 354 586 q 266 512 283 544 q 246 443 249 479 z "},"é":{"ha":799,"x_min":49,"x_max":751,"o":"m 411 -10 q 215 36 296 -10 q 92 166 135 82 q 49 363 49 250 q 93 562 49 476 q 219 696 138 647 q 411 744 300 744 q 558 717 494 744 q 665 639 621 689 q 730 523 708 589 q 750 381 751 457 q 749 343 750 361 q 743 307 747 325 l 242 307 q 265 231 246 265 q 320 176 285 196 q 408 156 356 156 q 472 163 443 156 q 522 188 501 171 q 551 226 543 204 l 743 226 q 676 92 725 144 q 557 15 626 39 q 411 -10 488 -10 m 246 443 l 564 443 q 545 513 563 481 q 494 566 528 546 q 407 586 460 586 q 319 565 354 586 q 266 512 283 544 q 246 443 249 479 m 307 818 l 464 1057 l 671 1057 l 474 818 l 307 818 z "},"ĕ":{"ha":799,"x_min":49,"x_max":751,"o":"m 411 -10 q 215 36 296 -10 q 92 166 135 82 q 49 363 49 250 q 93 562 49 476 q 219 696 138 647 q 411 744 300 744 q 558 717 494 744 q 665 639 621 689 q 730 523 708 589 q 750 381 751 457 q 749 343 750 361 q 743 307 747 325 l 242 307 q 265 231 246 265 q 320 176 285 196 q 408 156 356 156 q 472 163 443 156 q 522 188 501 171 q 551 226 543 204 l 743 226 q 676 92 725 144 q 557 15 626 39 q 411 -10 488 -10 m 246 443 l 564 443 q 545 513 563 481 q 494 566 528 546 q 407 586 460 586 q 319 565 354 586 q 266 512 283 544 q 246 443 249 479 m 411 815 q 219 873 289 815 q 149 1049 150 931 l 310 1049 q 340 974 311 994 q 413 953 368 953 q 487 974 460 953 q 515 1049 514 994 l 676 1049 q 644 919 676 971 q 553 841 613 867 q 411 815 494 815 z "},"ě":{"ha":799,"x_min":49,"x_max":751,"o":"m 411 -10 q 215 36 296 -10 q 92 166 135 82 q 49 363 49 250 q 93 562 49 476 q 219 696 138 647 q 411 744 300 744 q 558 717 494 744 q 665 639 621 689 q 730 523 708 589 q 750 381 751 457 q 749 343 750 361 q 743 307 747 325 l 242 307 q 265 231 246 265 q 320 176 285 196 q 408 156 356 156 q 472 163 443 156 q 522 188 501 171 q 551 226 543 204 l 743 226 q 676 92 725 144 q 557 15 626 39 q 411 -10 488 -10 m 246 443 l 564 443 q 545 513 563 481 q 494 566 528 546 q 407 586 460 586 q 319 565 354 586 q 266 512 283 544 q 246 443 249 479 m 347 818 l 132 1068 l 319 1068 l 414 944 l 506 1068 l 690 1068 l 478 818 l 347 818 z "},"ê":{"ha":799,"x_min":49,"x_max":751,"o":"m 411 -10 q 215 36 296 -10 q 92 166 135 82 q 49 363 49 250 q 93 562 49 476 q 219 696 138 647 q 411 744 300 744 q 558 717 494 744 q 665 639 621 689 q 730 523 708 589 q 750 381 751 457 q 749 343 750 361 q 743 307 747 325 l 242 307 q 265 231 246 265 q 320 176 285 196 q 408 156 356 156 q 472 163 443 156 q 522 188 501 171 q 551 226 543 204 l 743 226 q 676 92 725 144 q 557 15 626 39 q 411 -10 488 -10 m 246 443 l 564 443 q 545 513 563 481 q 494 566 528 546 q 407 586 460 586 q 319 565 354 586 q 266 512 283 544 q 246 443 249 479 m 133 818 l 346 1068 l 475 1068 l 690 818 l 504 818 l 410 940 l 318 818 l 133 818 z "},"ë":{"ha":799,"x_min":49,"x_max":751,"o":"m 411 -10 q 215 36 296 -10 q 92 166 135 82 q 49 363 49 250 q 93 562 49 476 q 219 696 138 647 q 411 744 300 744 q 558 717 494 744 q 665 639 621 689 q 730 523 708 589 q 750 381 751 457 q 749 343 750 361 q 743 307 747 325 l 242 307 q 265 231 246 265 q 320 176 285 196 q 408 156 356 156 q 472 163 443 156 q 522 188 501 171 q 551 226 543 204 l 743 226 q 676 92 725 144 q 557 15 626 39 q 411 -10 488 -10 m 246 443 l 564 443 q 545 513 563 481 q 494 566 528 546 q 407 586 460 586 q 319 565 354 586 q 266 512 283 544 q 246 443 249 479 m 582 810 q 503 838 536 810 q 471 917 471 865 q 505 999 471 969 q 582 1028 539 1028 q 660 999 628 1028 q 692 918 692 971 q 660 838 692 865 q 582 810 628 810 m 242 810 q 164 838 197 810 q 131 917 131 865 q 164 999 131 969 q 242 1028 197 1028 q 319 999 286 1028 q 353 917 353 971 q 320 838 353 865 q 242 810 288 810 z "},"ė":{"ha":799,"x_min":49,"x_max":751,"o":"m 411 -10 q 215 36 296 -10 q 92 166 135 82 q 49 363 49 250 q 93 562 49 476 q 219 696 138 647 q 411 744 300 744 q 558 717 494 744 q 665 639 621 689 q 730 523 708 589 q 750 381 751 457 q 749 343 750 361 q 743 307 747 325 l 242 307 q 265 231 246 265 q 320 176 285 196 q 408 156 356 156 q 472 163 443 156 q 522 188 501 171 q 551 226 543 204 l 743 226 q 676 92 725 144 q 557 15 626 39 q 411 -10 488 -10 m 246 443 l 564 443 q 545 513 563 481 q 494 566 528 546 q 407 586 460 586 q 319 565 354 586 q 266 512 283 544 q 246 443 249 479 m 411 806 q 324 838 357 806 q 290 922 290 871 q 325 1010 290 976 q 413 1043 360 1043 q 497 1010 461 1043 q 532 924 532 978 q 498 838 532 871 q 411 806 464 806 z "},"è":{"ha":799,"x_min":49,"x_max":751,"o":"m 411 -10 q 215 36 296 -10 q 92 166 135 82 q 49 363 49 250 q 93 562 49 476 q 219 696 138 647 q 411 744 300 744 q 558 717 494 744 q 665 639 621 689 q 730 523 708 589 q 750 381 751 457 q 749 343 750 361 q 743 307 747 325 l 242 307 q 265 231 246 265 q 320 176 285 196 q 408 156 356 156 q 472 163 443 156 q 522 188 501 171 q 551 226 543 204 l 743 226 q 676 92 725 144 q 557 15 626 39 q 411 -10 488 -10 m 246 443 l 564 443 q 545 513 563 481 q 494 566 528 546 q 407 586 460 586 q 319 565 354 586 q 266 512 283 544 q 246 443 249 479 m 354 818 l 157 1056 l 364 1056 l 521 818 l 354 818 z "},"ē":{"ha":799,"x_min":49,"x_max":751,"o":"m 411 -10 q 215 36 296 -10 q 92 166 135 82 q 49 363 49 250 q 93 562 49 476 q 219 696 138 647 q 411 744 300 744 q 558 717 494 744 q 665 639 621 689 q 730 523 708 589 q 750 381 751 457 q 749 343 750 361 q 743 307 747 325 l 242 307 q 265 231 246 265 q 320 176 285 196 q 408 156 356 156 q 472 163 443 156 q 522 188 501 171 q 551 226 543 204 l 743 226 q 676 92 725 144 q 557 15 626 39 q 411 -10 488 -10 m 246 443 l 564 443 q 545 513 563 481 q 494 566 528 546 q 407 586 460 586 q 319 565 354 586 q 266 512 283 544 q 246 443 249 479 m 158 865 l 158 1033 l 665 1033 l 665 865 l 158 865 z "},"ę":{"ha":799,"x_min":49,"x_max":751,"o":"m 411 -10 q 215 36 296 -10 q 92 166 135 82 q 49 363 49 250 q 93 562 49 476 q 219 696 138 647 q 411 744 300 744 q 558 717 494 744 q 665 639 621 689 q 730 523 708 589 q 750 381 751 457 q 749 343 750 361 q 743 307 747 325 l 242 307 q 265 231 246 265 q 320 176 285 196 q 408 156 356 156 q 472 163 443 156 q 522 188 501 171 q 551 226 543 204 l 743 226 q 676 92 725 144 q 557 15 626 39 q 411 -10 488 -10 m 246 443 l 564 443 q 545 513 563 481 q 494 566 528 546 q 407 586 460 586 q 319 565 354 586 q 266 512 283 544 q 246 443 249 479 m 468 -289 q 335 -247 383 -287 q 286 -139 286 -207 q 319 -43 286 -85 q 401 18 351 -1 l 514 4 q 449 -37 476 -11 q 421 -99 421 -64 q 441 -148 421 -131 q 493 -165 461 -165 q 524 -162 510 -165 q 551 -151 538 -158 l 574 -264 q 520 -284 547 -279 q 468 -289 493 -289 z "},"f":{"ha":533,"x_min":28,"x_max":513,"o":"m 138 0 l 138 558 l 28 558 l 28 732 l 138 732 l 138 799 q 165 935 138 882 q 248 1014 192 989 q 392 1039 304 1039 l 513 1039 l 513 867 l 417 867 q 366 857 385 867 q 340 827 347 847 q 333 778 333 807 l 333 732 l 513 732 l 513 558 l 333 558 l 333 0 l 138 0 z "},"g":{"ha":868,"x_min":49,"x_max":792,"o":"m 429 -339 q 271 -312 343 -339 q 149 -226 199 -285 q 81 -76 99 -168 l 279 -76 q 310 -123 289 -104 q 363 -151 332 -142 q 429 -161 394 -161 q 531 -133 494 -161 q 581 -60 567 -106 q 594 39 594 -15 l 594 90 q 532 29 569 50 q 453 -1 494 8 q 375 -10 413 -10 q 188 42 260 -10 q 82 177 115 93 q 49 358 49 261 q 86 553 49 465 q 199 692 124 640 q 386 743 274 743 q 507 722 454 743 q 597 658 560 700 l 614 732 l 792 732 l 792 93 q 757 -137 792 -40 q 642 -286 722 -233 q 429 -339 563 -339 m 418 165 q 519 193 479 165 q 578 267 558 221 q 597 368 597 314 q 578 470 597 425 q 519 542 558 515 q 419 569 481 569 q 314 538 353 569 q 259 460 275 507 q 243 363 243 414 q 260 265 243 310 q 315 192 276 219 q 418 165 354 165 z "},"ğ":{"ha":868,"x_min":49,"x_max":792,"o":"m 429 -339 q 271 -312 343 -339 q 149 -226 199 -285 q 81 -76 99 -168 l 279 -76 q 310 -123 289 -104 q 363 -151 332 -142 q 429 -161 394 -161 q 531 -133 494 -161 q 581 -60 567 -106 q 594 39 594 -15 l 594 90 q 532 29 569 50 q 453 -1 494 8 q 375 -10 413 -10 q 188 42 260 -10 q 82 177 115 93 q 49 358 49 261 q 86 553 49 465 q 199 692 124 640 q 386 743 274 743 q 507 722 454 743 q 597 658 560 700 l 614 732 l 792 732 l 792 93 q 757 -137 792 -40 q 642 -286 722 -233 q 429 -339 563 -339 m 418 165 q 519 193 479 165 q 578 267 558 221 q 597 368 597 314 q 578 470 597 425 q 519 542 558 515 q 419 569 481 569 q 314 538 353 569 q 259 460 275 507 q 243 363 243 414 q 260 265 243 310 q 315 192 276 219 q 418 165 354 165 m 438 815 q 246 873 315 815 q 175 1049 176 931 l 336 1049 q 366 974 338 994 q 439 953 394 953 q 513 974 486 953 q 542 1049 540 994 l 703 1049 q 671 919 703 971 q 580 841 639 867 q 438 815 521 815 z "},"ĝ":{"ha":868,"x_min":49,"x_max":792,"o":"m 429 -339 q 271 -312 343 -339 q 149 -226 199 -285 q 81 -76 99 -168 l 279 -76 q 310 -123 289 -104 q 363 -151 332 -142 q 429 -161 394 -161 q 531 -133 494 -161 q 581 -60 567 -106 q 594 39 594 -15 l 594 90 q 532 29 569 50 q 453 -1 494 8 q 375 -10 413 -10 q 188 42 260 -10 q 82 177 115 93 q 49 358 49 261 q 86 553 49 465 q 199 692 124 640 q 386 743 274 743 q 507 722 454 743 q 597 658 560 700 l 614 732 l 792 732 l 792 93 q 757 -137 792 -40 q 642 -286 722 -233 q 429 -339 563 -339 m 418 165 q 519 193 479 165 q 578 267 558 221 q 597 368 597 314 q 578 470 597 425 q 519 542 558 515 q 419 569 481 569 q 314 538 353 569 q 259 460 275 507 q 243 363 243 414 q 260 265 243 310 q 315 192 276 219 q 418 165 354 165 m 160 818 l 372 1068 l 501 1068 l 717 818 l 531 818 l 436 940 l 344 818 l 160 818 z "},"ģ":{"ha":868,"x_min":49,"x_max":792,"o":"m 429 -339 q 271 -312 343 -339 q 149 -226 199 -285 q 81 -76 99 -168 l 279 -76 q 310 -123 289 -104 q 363 -151 332 -142 q 429 -161 394 -161 q 531 -133 494 -161 q 581 -60 567 -106 q 594 39 594 -15 l 594 90 q 532 29 569 50 q 453 -1 494 8 q 375 -10 413 -10 q 188 42 260 -10 q 82 177 115 93 q 49 358 49 261 q 86 553 49 465 q 199 692 124 640 q 386 743 274 743 q 507 722 454 743 q 597 658 560 700 l 614 732 l 792 732 l 792 93 q 757 -137 792 -40 q 642 -286 722 -233 q 429 -339 563 -339 m 418 165 q 519 193 479 165 q 578 267 558 221 q 597 368 597 314 q 578 470 597 425 q 519 542 558 515 q 419 569 481 569 q 314 538 353 569 q 259 460 275 507 q 243 363 243 414 q 260 265 243 310 q 315 192 276 219 q 418 165 354 165 m 433 803 q 344 842 375 803 q 314 940 314 881 q 342 1049 314 997 q 415 1138 369 1100 q 511 1190 460 1175 l 564 1115 q 521 1087 546 1106 q 475 1047 496 1068 q 449 1006 454 1025 q 519 976 489 1003 q 549 906 549 950 q 513 828 549 854 q 433 803 478 803 z "},"ġ":{"ha":868,"x_min":49,"x_max":792,"o":"m 429 -339 q 271 -312 343 -339 q 149 -226 199 -285 q 81 -76 99 -168 l 279 -76 q 310 -123 289 -104 q 363 -151 332 -142 q 429 -161 394 -161 q 531 -133 494 -161 q 581 -60 567 -106 q 594 39 594 -15 l 594 90 q 532 29 569 50 q 453 -1 494 8 q 375 -10 413 -10 q 188 42 260 -10 q 82 177 115 93 q 49 358 49 261 q 86 553 49 465 q 199 692 124 640 q 386 743 274 743 q 507 722 454 743 q 597 658 560 700 l 614 732 l 792 732 l 792 93 q 757 -137 792 -40 q 642 -286 722 -233 q 429 -339 563 -339 m 418 165 q 519 193 479 165 q 578 267 558 221 q 597 368 597 314 q 578 470 597 425 q 519 542 558 515 q 419 569 481 569 q 314 538 353 569 q 259 460 275 507 q 243 363 243 414 q 260 265 243 310 q 315 192 276 219 q 418 165 354 165 m 438 806 q 350 838 383 806 q 317 922 317 871 q 351 1010 317 976 q 439 1043 386 1043 q 523 1010 488 1043 q 558 924 558 978 q 524 838 558 871 q 438 806 490 806 z "},"h":{"ha":840,"x_min":76,"x_max":768,"o":"m 76 0 l 76 983 l 271 983 l 271 647 q 342 706 303 685 q 423 735 382 726 q 499 744 464 744 q 660 699 601 744 q 743 575 718 653 q 768 404 768 497 l 768 0 l 574 0 l 574 376 q 567 443 574 410 q 546 505 561 476 q 503 551 531 533 q 429 568 475 568 q 356 550 386 568 q 306 502 325 532 q 279 436 288 472 q 271 364 271 400 l 271 0 l 76 0 z "},"ħ":{"ha":840,"x_min":-19,"x_max":768,"o":"m 76 0 l 76 775 l -19 775 l -19 904 l 76 904 l 76 983 l 271 983 l 271 904 l 410 904 l 410 775 l 271 775 l 271 647 q 371 720 311 696 q 494 744 431 744 q 658 699 599 744 q 743 576 718 653 q 768 404 768 499 l 768 0 l 574 0 l 574 376 q 567 447 574 413 q 545 508 561 481 q 501 552 529 536 q 428 568 472 568 q 355 550 385 568 q 306 503 325 532 q 279 437 288 474 q 271 364 271 400 l 271 0 l 76 0 z "},"ĥ":{"ha":840,"x_min":76,"x_max":768,"o":"m 76 0 l 76 983 l 271 983 l 271 647 q 342 706 303 685 q 423 735 382 726 q 499 744 464 744 q 660 699 601 744 q 743 575 718 653 q 768 404 768 497 l 768 0 l 574 0 l 574 376 q 567 443 574 410 q 546 505 561 476 q 503 551 531 533 q 429 568 475 568 q 356 550 386 568 q 306 502 325 532 q 279 436 288 472 q 271 364 271 400 l 271 0 l 76 0 m 143 1057 l 356 1307 l 485 1307 l 700 1057 l 514 1057 l 419 1179 l 328 1057 l 143 1057 z "},"i":{"ha":349,"x_min":53,"x_max":296,"o":"m 76 0 l 76 732 l 271 732 l 271 0 l 76 0 m 174 806 q 86 838 119 806 q 53 922 53 871 q 88 1010 53 976 q 175 1043 122 1043 q 259 1010 224 1043 q 294 924 294 978 q 260 838 294 871 q 174 806 226 806 z "},"ı":{"ha":349,"x_min":76,"x_max":271,"o":"m 76 0 l 76 732 l 271 732 l 271 0 l 76 0 z "},"í":{"ha":349,"x_min":69,"x_max":433,"o":"m 76 0 l 76 732 l 271 732 l 271 0 l 76 0 m 69 818 l 226 1057 l 433 1057 l 236 818 l 69 818 z "},"ĭ":{"ha":349,"x_min":-90,"x_max":439,"o":"m 76 0 l 76 732 l 271 732 l 271 0 l 76 0 m 174 815 q -18 873 51 815 q -89 1049 -87 931 l 72 1049 q 102 974 74 994 q 175 953 131 953 q 249 974 222 953 q 278 1049 276 994 l 439 1049 q 407 919 439 971 q 316 841 375 867 q 174 815 257 815 z "},"î":{"ha":349,"x_min":-106,"x_max":453,"o":"m 76 0 l 76 732 l 271 732 l 271 0 l 76 0 m -104 818 l 108 1068 l 238 1068 l 453 818 l 267 818 l 172 940 l 81 818 l -104 818 z "},"ï":{"ha":349,"x_min":-72,"x_max":422,"o":"m 76 0 l 76 732 l 271 732 l 271 0 l 76 0 m 36 818 q -40 845 -8 818 q -72 924 -72 872 q -40 1003 -72 975 q 36 1032 -7 1032 q 113 1003 79 1032 q 146 924 146 975 q 113 845 146 872 q 36 818 81 818 m 315 818 q 238 845 271 818 q 204 924 204 872 q 238 1003 204 975 q 315 1032 271 1032 q 390 1003 358 1032 q 422 925 422 975 q 391 845 422 872 q 315 818 360 818 z "},"ì":{"ha":349,"x_min":-81,"x_max":283,"o":"m 76 0 l 76 732 l 271 732 l 271 0 l 76 0 m 117 818 l -81 1056 l 126 1056 l 283 818 l 117 818 z "},"ī":{"ha":349,"x_min":-79,"x_max":428,"o":"m 76 0 l 76 732 l 271 732 l 271 0 l 76 0 m -79 865 l -79 1033 l 428 1033 l 428 865 l -79 865 z "},"į":{"ha":349,"x_min":21,"x_max":307,"o":"m 76 0 l 76 732 l 271 732 l 271 0 l 76 0 m 174 806 q 86 838 119 806 q 53 922 53 871 q 88 1010 53 976 q 175 1043 122 1043 q 259 1010 224 1043 q 294 924 294 978 q 260 838 294 871 q 174 806 226 806 m 203 -289 q 69 -247 118 -287 q 21 -139 21 -207 q 53 -43 21 -85 q 136 18 86 -1 l 249 4 q 183 -37 211 -11 q 156 -99 156 -64 q 176 -148 156 -131 q 228 -165 196 -165 q 258 -162 244 -165 q 286 -151 272 -158 l 308 -264 q 255 -284 282 -279 q 203 -289 228 -289 z "},"ĩ":{"ha":349,"x_min":-94,"x_max":442,"o":"m 76 0 l 76 732 l 271 732 l 271 0 l 76 0 m 288 811 q 218 826 249 811 q 164 860 188 842 q 120 893 140 878 q 83 908 100 908 q 54 892 64 908 q 43 854 44 875 q 44 818 42 833 l -89 818 q -80 928 -93 876 q -28 1013 -67 979 q 78 1046 10 1046 q 141 1032 114 1046 q 190 1000 168 1018 q 229 968 211 982 q 267 954 247 954 q 295 969 288 954 q 304 1003 303 983 q 304 1038 306 1024 l 438 1038 q 431 931 442 983 q 386 844 419 878 q 288 811 353 811 z "},"ĳ":{"ha":729,"x_min":65,"x_max":664,"o":"m 297 -283 l 297 -110 l 351 -110 q 414 -94 394 -110 q 439 -56 433 -79 q 444 -7 444 -32 l 444 732 l 639 732 l 639 -35 q 616 -174 639 -118 q 540 -256 593 -229 q 400 -283 488 -283 l 297 -283 m 90 0 l 90 732 l 285 732 l 285 0 l 90 0 m 186 810 q 101 840 138 810 q 65 925 65 869 q 83 991 65 964 q 129 1033 101 1018 q 189 1047 157 1047 q 272 1015 236 1047 q 307 928 307 983 q 271 841 307 872 q 186 810 235 810 m 543 810 q 458 840 494 810 q 422 925 422 869 q 440 991 422 964 q 485 1033 457 1018 q 546 1047 514 1047 q 629 1015 594 1047 q 664 926 664 983 q 628 840 664 869 q 543 810 592 810 z "},"j":{"ha":372,"x_min":-61,"x_max":306,"o":"m -61 -283 l -61 -110 l -7 -110 q 56 -94 36 -110 q 82 -56 76 -79 q 88 -7 88 -32 l 88 732 l 282 732 l 282 -35 q 258 -174 282 -118 q 183 -256 235 -229 q 42 -283 131 -283 l -61 -283 m 183 806 q 96 838 129 806 q 63 922 63 871 q 97 1010 63 976 q 185 1043 132 1043 q 269 1010 233 1043 q 304 924 304 978 q 270 838 304 871 q 183 806 236 806 z "},"ȷ":{"ha":372,"x_min":-61,"x_max":282,"o":"m -61 -283 l -61 -110 l -7 -110 q 56 -94 36 -110 q 82 -56 76 -79 q 88 -7 88 -32 l 88 732 l 282 732 l 282 -35 q 258 -174 282 -118 q 183 -256 235 -229 q 42 -283 131 -283 l -61 -283 z "},"ĵ":{"ha":372,"x_min":-96,"x_max":463,"o":"m -61 -283 l -61 -110 l -7 -110 q 56 -94 36 -110 q 82 -56 76 -79 q 88 -7 88 -32 l 88 732 l 282 732 l 282 -35 q 258 -174 282 -118 q 183 -256 235 -229 q 42 -283 131 -283 l -61 -283 m -94 818 l 118 1068 l 247 1068 l 463 818 l 276 818 l 182 940 l 90 818 l -94 818 z "},"k":{"ha":776,"x_min":76,"x_max":783,"o":"m 76 0 l 76 983 l 271 983 l 271 451 l 367 451 l 546 732 l 764 732 l 531 383 l 783 0 l 558 0 l 375 278 l 271 278 l 271 0 l 76 0 z "},"ķ":{"ha":776,"x_min":76,"x_max":783,"o":"m 76 0 l 76 983 l 271 983 l 271 451 l 367 451 l 546 732 l 764 732 l 531 383 l 783 0 l 558 0 l 375 278 l 271 278 l 271 0 l 76 0 m 324 -415 l 278 -349 q 317 -322 296 -339 q 356 -284 339 -304 q 379 -247 374 -264 q 317 -222 343 -244 q 290 -158 290 -199 q 321 -87 290 -111 q 392 -64 351 -64 q 472 -102 444 -65 q 497 -193 499 -139 q 473 -290 497 -246 q 409 -367 449 -335 q 324 -415 369 -399 z "},"ĸ":{"ha":776,"x_min":76,"x_max":783,"o":"m 76 0 l 76 732 l 271 732 l 271 451 l 367 451 l 544 732 l 764 732 l 531 383 l 783 0 l 557 0 l 375 278 l 271 278 l 271 0 l 76 0 z "},"l":{"ha":349,"x_min":76,"x_max":271,"o":"m 76 0 l 76 983 l 271 983 l 271 0 l 76 0 z "},"ĺ":{"ha":349,"x_min":69,"x_max":433,"o":"m 76 0 l 76 983 l 271 983 l 271 0 l 76 0 m 69 1068 l 226 1307 l 433 1307 l 236 1068 l 69 1068 z "},"ľ":{"ha":414,"x_min":76,"x_max":561,"o":"m 76 0 l 76 983 l 271 983 l 271 0 l 76 0 m 365 597 l 313 675 q 356 704 332 685 q 401 746 381 724 q 426 786 421 768 q 357 817 386 790 q 328 890 328 843 q 362 970 328 943 q 442 997 396 997 q 533 955 503 997 q 563 856 563 913 q 534 741 563 794 q 460 650 506 688 q 365 597 415 613 z "},"ļ":{"ha":349,"x_min":64,"x_max":285,"o":"m 76 0 l 76 983 l 271 983 l 271 0 l 76 0 m 110 -415 l 64 -349 q 103 -322 82 -339 q 142 -284 125 -304 q 165 -247 160 -264 q 103 -222 129 -244 q 76 -158 76 -199 q 107 -87 76 -111 q 178 -64 138 -64 q 258 -102 231 -65 q 283 -193 285 -139 q 259 -290 283 -246 q 195 -367 235 -335 q 110 -415 156 -399 z "},"ŀ":{"ha":531,"x_min":76,"x_max":550,"o":"m 76 0 l 76 983 l 271 983 l 271 0 l 76 0 m 440 394 q 363 424 393 394 q 332 497 332 453 q 363 572 332 543 q 440 600 394 600 q 518 572 486 600 q 550 497 550 544 q 519 423 550 451 q 440 394 489 394 z "},"ł":{"ha":500,"x_min":-22,"x_max":526,"o":"m 144 0 l 144 329 l 65 281 l -22 425 l 144 526 l 144 983 l 339 983 l 339 643 l 440 704 l 526 560 l 339 446 l 339 0 l 144 0 z "},"m":{"ha":1183,"x_min":76,"x_max":1113,"o":"m 76 0 l 76 732 l 251 732 l 268 650 q 330 709 296 689 q 399 736 364 729 q 463 743 433 743 q 578 718 528 743 q 658 638 628 693 q 722 701 688 678 q 796 733 757 724 q 875 743 835 743 q 1012 708 960 743 q 1088 610 1064 672 q 1113 464 1113 547 l 1113 0 l 918 0 l 918 413 q 915 464 918 438 q 902 514 913 490 q 872 553 892 538 q 815 568 851 568 q 757 553 781 568 q 719 512 733 538 q 699 456 706 486 q 693 396 693 426 l 693 0 l 499 0 l 499 414 q 496 464 499 438 q 483 514 493 490 q 452 553 474 538 q 393 568 431 568 q 315 538 342 568 q 279 467 288 508 q 271 392 271 426 l 271 0 l 76 0 z "},"n":{"ha":840,"x_min":76,"x_max":768,"o":"m 76 0 l 76 732 l 258 732 l 268 647 q 338 706 299 685 q 419 736 378 728 q 493 744 460 744 q 658 699 599 744 q 742 576 717 653 q 768 404 768 499 l 768 0 l 574 0 l 574 379 q 568 446 574 413 q 548 507 563 479 q 507 551 533 535 q 438 568 481 568 q 344 540 382 568 q 289 465 307 513 q 271 361 271 418 l 271 0 l 76 0 z "},"ń":{"ha":840,"x_min":76,"x_max":768,"o":"m 76 0 l 76 732 l 258 732 l 268 647 q 338 706 299 685 q 419 736 378 728 q 493 744 460 744 q 658 699 599 744 q 742 576 717 653 q 768 404 768 499 l 768 0 l 574 0 l 574 379 q 568 446 574 413 q 548 507 563 479 q 507 551 533 535 q 438 568 481 568 q 344 540 382 568 q 289 465 307 513 q 271 361 271 418 l 271 0 l 76 0 m 315 818 l 472 1057 l 679 1057 l 482 818 l 315 818 z "},"ŉ":{"ha":1033,"x_min":-6,"x_max":961,"o":"m 47 599 l -6 675 q 39 706 15 686 q 83 747 63 725 q 110 788 103 769 q 40 818 69 792 q 10 892 10 844 q 44 972 10 944 q 125 999 79 999 q 215 956 186 999 q 244 856 244 914 q 216 742 244 794 q 142 651 188 689 q 47 599 97 614 m 269 0 l 269 732 l 451 732 l 463 647 q 532 706 493 685 q 613 736 571 728 q 688 744 654 744 q 851 699 792 744 q 936 576 911 653 q 961 404 961 499 l 961 0 l 767 0 l 767 379 q 761 446 767 413 q 741 507 756 479 q 700 551 726 535 q 631 568 674 568 q 539 540 576 568 q 483 465 501 513 q 465 361 465 418 l 465 0 l 269 0 z "},"ň":{"ha":840,"x_min":76,"x_max":768,"o":"m 76 0 l 76 732 l 258 732 l 268 647 q 338 706 299 685 q 419 736 378 728 q 493 744 460 744 q 658 699 599 744 q 742 576 717 653 q 768 404 768 499 l 768 0 l 574 0 l 574 379 q 568 446 574 413 q 548 507 563 479 q 507 551 533 535 q 438 568 481 568 q 344 540 382 568 q 289 465 307 513 q 271 361 271 418 l 271 0 l 76 0 m 356 818 l 140 1068 l 328 1068 l 422 944 l 514 1068 l 699 1068 l 486 818 l 356 818 z "},"ņ":{"ha":840,"x_min":76,"x_max":768,"o":"m 76 0 l 76 732 l 258 732 l 268 647 q 338 706 299 685 q 419 736 378 728 q 493 744 460 744 q 658 699 599 744 q 742 576 717 653 q 768 404 768 499 l 768 0 l 574 0 l 574 379 q 568 446 574 413 q 548 507 563 479 q 507 551 533 535 q 438 568 481 568 q 344 540 382 568 q 289 465 307 513 q 271 361 271 418 l 271 0 l 76 0 m 356 -415 l 310 -349 q 349 -322 328 -339 q 388 -284 371 -304 q 411 -247 406 -264 q 349 -222 375 -244 q 322 -158 322 -199 q 353 -87 322 -111 q 424 -64 383 -64 q 503 -102 476 -65 q 529 -193 531 -139 q 505 -290 529 -246 q 441 -367 481 -335 q 356 -415 401 -399 z "},"ñ":{"ha":840,"x_min":76,"x_max":768,"o":"m 76 0 l 76 732 l 258 732 l 268 647 q 338 706 299 685 q 419 736 378 728 q 493 744 460 744 q 658 699 599 744 q 742 576 717 653 q 768 404 768 499 l 768 0 l 574 0 l 574 379 q 568 446 574 413 q 548 507 563 479 q 507 551 533 535 q 438 568 481 568 q 344 540 382 568 q 289 465 307 513 q 271 361 271 418 l 271 0 l 76 0 m 533 811 q 464 826 494 811 q 410 860 433 842 q 366 893 386 878 q 329 908 346 908 q 300 892 310 908 q 289 854 290 875 q 290 818 288 833 l 157 818 q 166 928 153 876 q 217 1013 179 979 q 324 1046 256 1046 q 387 1032 360 1046 q 435 1000 414 1018 q 475 968 457 982 q 513 954 493 954 q 541 969 533 954 q 550 1003 549 983 q 550 1038 551 1024 l 683 1038 q 676 931 688 983 q 632 844 665 878 q 533 811 599 811 z "},"ŋ":{"ha":840,"x_min":76,"x_max":768,"o":"m 419 -283 l 419 -110 l 479 -110 q 537 -98 517 -110 q 565 -63 557 -86 q 574 -7 574 -40 l 574 379 q 567 450 574 417 q 545 510 561 483 q 503 553 529 538 q 435 568 476 568 q 344 540 381 568 q 289 464 307 511 q 271 361 271 417 l 271 0 l 76 0 l 76 733 l 258 733 l 268 647 q 368 722 308 699 q 492 744 428 744 q 657 699 597 744 q 742 576 717 653 q 768 404 768 499 l 768 -31 q 744 -172 768 -115 q 667 -256 719 -228 q 528 -283 614 -283 l 419 -283 z "},"o":{"ha":832,"x_min":49,"x_max":783,"o":"m 418 -10 q 224 35 307 -10 q 94 165 140 81 q 49 364 49 249 q 95 567 49 482 q 225 699 142 653 q 417 744 308 744 q 610 697 528 744 q 738 565 692 650 q 783 363 783 481 q 738 163 783 247 q 612 35 693 79 q 418 -10 531 -10 m 415 168 q 518 196 479 168 q 574 269 557 224 q 592 364 592 314 q 574 460 592 414 q 519 535 557 506 q 415 565 481 565 q 314 535 353 565 q 258 460 275 506 q 240 364 240 414 q 258 268 240 313 q 314 196 275 224 q 415 168 353 168 z "},"ó":{"ha":832,"x_min":49,"x_max":783,"o":"m 418 -10 q 224 35 307 -10 q 94 165 140 81 q 49 364 49 249 q 95 567 49 482 q 225 699 142 653 q 417 744 308 744 q 610 697 528 744 q 738 565 692 650 q 783 363 783 481 q 738 163 783 247 q 612 35 693 79 q 418 -10 531 -10 m 415 168 q 518 196 479 168 q 574 269 557 224 q 592 364 592 314 q 574 460 592 414 q 519 535 557 506 q 415 565 481 565 q 314 535 353 565 q 258 460 275 506 q 240 364 240 414 q 258 268 240 313 q 314 196 275 224 q 415 168 353 168 m 311 818 l 468 1057 l 675 1057 l 478 818 l 311 818 z "},"ŏ":{"ha":832,"x_min":49,"x_max":783,"o":"m 418 -10 q 224 35 307 -10 q 94 165 140 81 q 49 364 49 249 q 95 567 49 482 q 225 699 142 653 q 417 744 308 744 q 610 697 528 744 q 738 565 692 650 q 783 363 783 481 q 738 163 783 247 q 612 35 693 79 q 418 -10 531 -10 m 415 168 q 518 196 479 168 q 574 269 557 224 q 592 364 592 314 q 574 460 592 414 q 519 535 557 506 q 415 565 481 565 q 314 535 353 565 q 258 460 275 506 q 240 364 240 414 q 258 268 240 313 q 314 196 275 224 q 415 168 353 168 m 415 815 q 224 873 293 815 q 153 1049 154 931 l 314 1049 q 344 974 315 994 q 417 953 372 953 q 491 974 464 953 q 519 1049 518 994 l 681 1049 q 649 919 681 971 q 558 841 617 867 q 415 815 499 815 z "},"ô":{"ha":832,"x_min":49,"x_max":783,"o":"m 418 -10 q 224 35 307 -10 q 94 165 140 81 q 49 364 49 249 q 95 567 49 482 q 225 699 142 653 q 417 744 308 744 q 610 697 528 744 q 738 565 692 650 q 783 363 783 481 q 738 163 783 247 q 612 35 693 79 q 418 -10 531 -10 m 415 168 q 518 196 479 168 q 574 269 557 224 q 592 364 592 314 q 574 460 592 414 q 519 535 557 506 q 415 565 481 565 q 314 535 353 565 q 258 460 275 506 q 240 364 240 414 q 258 268 240 313 q 314 196 275 224 q 415 168 353 168 m 138 818 l 350 1068 l 479 1068 l 694 818 l 508 818 l 414 940 l 322 818 l 138 818 z "},"ö":{"ha":832,"x_min":49,"x_max":783,"o":"m 418 -10 q 224 35 307 -10 q 94 165 140 81 q 49 364 49 249 q 95 567 49 482 q 225 699 142 653 q 417 744 308 744 q 610 697 528 744 q 738 565 692 650 q 783 363 783 481 q 738 163 783 247 q 612 35 693 79 q 418 -10 531 -10 m 415 168 q 518 196 479 168 q 574 269 557 224 q 592 364 592 314 q 574 460 592 414 q 519 535 557 506 q 415 565 481 565 q 314 535 353 565 q 258 460 275 506 q 240 364 240 414 q 258 268 240 313 q 314 196 275 224 q 415 168 353 168 m 586 810 q 508 838 540 810 q 475 917 475 865 q 509 999 475 969 q 586 1028 543 1028 q 664 999 632 1028 q 696 918 696 971 q 664 838 696 865 q 586 810 632 810 m 246 810 q 168 838 201 810 q 135 917 135 865 q 168 999 135 969 q 246 1028 201 1028 q 324 999 290 1028 q 357 917 357 971 q 324 838 357 865 q 246 810 292 810 z "},"ò":{"ha":832,"x_min":49,"x_max":783,"o":"m 418 -10 q 224 35 307 -10 q 94 165 140 81 q 49 364 49 249 q 95 567 49 482 q 225 699 142 653 q 417 744 308 744 q 610 697 528 744 q 738 565 692 650 q 783 363 783 481 q 738 163 783 247 q 612 35 693 79 q 418 -10 531 -10 m 415 168 q 518 196 479 168 q 574 269 557 224 q 592 364 592 314 q 574 460 592 414 q 519 535 557 506 q 415 565 481 565 q 314 535 353 565 q 258 460 275 506 q 240 364 240 414 q 258 268 240 313 q 314 196 275 224 q 415 168 353 168 m 358 818 l 161 1056 l 368 1056 l 525 818 l 358 818 z "},"ő":{"ha":832,"x_min":49,"x_max":786,"o":"m 418 -10 q 224 35 307 -10 q 94 165 140 81 q 49 364 49 249 q 95 567 49 482 q 225 699 142 653 q 417 744 308 744 q 610 697 528 744 q 738 565 692 650 q 783 363 783 481 q 738 163 783 247 q 612 35 693 79 q 418 -10 531 -10 m 415 168 q 518 196 479 168 q 574 269 557 224 q 592 364 592 314 q 574 460 592 414 q 519 535 557 506 q 415 565 481 565 q 314 535 353 565 q 258 460 275 506 q 240 364 240 414 q 258 268 240 313 q 314 196 275 224 q 415 168 353 168 m 444 818 l 592 1056 l 786 1056 l 600 818 l 444 818 m 193 818 l 301 1056 l 497 1056 l 344 818 l 193 818 z "},"ō":{"ha":832,"x_min":49,"x_max":783,"o":"m 418 -10 q 224 35 307 -10 q 94 165 140 81 q 49 364 49 249 q 95 567 49 482 q 225 699 142 653 q 417 744 308 744 q 610 697 528 744 q 738 565 692 650 q 783 363 783 481 q 738 163 783 247 q 612 35 693 79 q 418 -10 531 -10 m 415 168 q 518 196 479 168 q 574 269 557 224 q 592 364 592 314 q 574 460 592 414 q 519 535 557 506 q 415 565 481 565 q 314 535 353 565 q 258 460 275 506 q 240 364 240 414 q 258 268 240 313 q 314 196 275 224 q 415 168 353 168 m 163 865 l 163 1033 l 669 1033 l 669 865 l 163 865 z "},"ø":{"ha":832,"x_min":49,"x_max":783,"o":"m 85 -142 l 181 63 q 82 189 115 111 q 49 364 49 267 q 93 563 49 478 q 219 697 138 649 q 414 744 301 744 q 454 742 436 744 q 490 738 472 740 l 553 876 l 746 876 l 650 671 q 723 590 693 636 q 768 485 753 543 q 783 363 783 428 q 740 169 783 254 q 616 38 697 85 q 415 -10 535 -10 q 377 -8 396 -10 q 340 -3 358 -7 l 276 -142 l 85 -142 m 275 235 l 426 558 q 372 553 397 560 q 298 519 328 546 q 254 453 268 493 q 240 365 240 414 q 249 294 240 329 q 275 235 257 260 m 453 176 q 532 209 501 182 q 577 276 563 236 q 592 365 592 317 q 583 434 592 403 q 554 492 574 465 l 407 174 q 430 174 418 174 q 453 176 442 174 z "},"õ":{"ha":832,"x_min":49,"x_max":783,"o":"m 418 -10 q 224 35 307 -10 q 94 165 140 81 q 49 364 49 249 q 95 567 49 482 q 225 699 142 653 q 417 744 308 744 q 610 697 528 744 q 738 565 692 650 q 783 363 783 481 q 738 163 783 247 q 612 35 693 79 q 418 -10 531 -10 m 415 168 q 518 196 479 168 q 574 269 557 224 q 592 364 592 314 q 574 460 592 414 q 519 535 557 506 q 415 565 481 565 q 314 535 353 565 q 258 460 275 506 q 240 364 240 414 q 258 268 240 313 q 314 196 275 224 q 415 168 353 168 m 529 811 q 460 826 490 811 q 406 860 429 842 q 362 893 382 878 q 325 908 342 908 q 296 892 306 908 q 285 854 286 875 q 286 818 283 833 l 153 818 q 162 928 149 876 q 213 1013 175 979 q 319 1046 251 1046 q 383 1032 356 1046 q 431 1000 410 1018 q 471 968 453 982 q 508 954 489 954 q 537 969 529 954 q 546 1003 544 983 q 546 1038 547 1024 l 679 1038 q 672 931 683 983 q 628 844 661 878 q 529 811 594 811 z "},"œ":{"ha":1329,"x_min":49,"x_max":1283,"o":"m 419 -10 q 219 38 303 -10 q 92 170 136 85 q 49 367 49 256 q 93 564 49 479 q 221 697 138 649 q 417 744 304 744 q 565 718 499 744 q 679 636 631 692 q 794 717 728 690 q 942 744 861 744 q 1126 697 1050 744 q 1243 567 1203 649 q 1281 382 1283 486 q 1279 344 1281 363 q 1274 307 1278 325 l 774 307 q 826 196 781 236 q 940 156 871 156 q 1025 172 982 156 q 1082 226 1068 188 l 1275 226 q 1208 94 1257 147 q 1090 16 1160 42 q 942 -10 1021 -10 q 838 1 885 -10 q 753 35 792 13 q 679 92 715 57 q 565 15 631 39 q 419 -10 500 -10 m 415 168 q 515 194 476 168 q 573 265 554 221 q 592 364 592 308 q 572 466 592 421 q 514 538 553 511 q 415 565 475 565 q 318 538 357 565 q 260 466 279 511 q 240 364 240 421 q 259 264 240 308 q 317 194 278 219 q 415 168 356 168 m 778 443 l 1094 443 q 1074 520 1094 489 q 1018 569 1053 551 q 940 586 983 586 q 859 568 896 586 q 801 518 822 550 q 778 443 779 486 z "},"p":{"ha":867,"x_min":76,"x_max":818,"o":"m 76 -274 l 76 732 l 258 732 l 268 640 q 370 719 313 694 q 497 744 428 744 q 676 694 606 744 q 783 559 747 644 q 818 368 818 474 q 781 174 818 260 q 671 40 744 89 q 488 -10 597 -10 q 399 1 440 -10 q 325 31 357 13 q 271 74 293 50 l 271 -274 l 76 -274 m 454 165 q 557 194 519 165 q 610 269 594 224 q 625 363 625 314 q 608 463 625 415 q 553 538 592 510 q 450 567 515 567 q 351 538 392 567 q 290 464 311 510 q 269 365 269 418 q 290 267 269 313 q 351 193 310 221 q 454 165 392 165 z "},"þ":{"ha":867,"x_min":76,"x_max":818,"o":"m 76 -274 l 76 983 l 271 983 l 271 643 q 372 720 311 696 q 497 744 432 744 q 679 693 608 744 q 784 556 750 642 q 818 369 818 471 q 783 181 818 268 q 676 42 747 94 q 493 -10 604 -10 q 374 9 433 -10 q 271 74 314 28 l 271 -274 l 76 -274 m 454 165 q 554 193 517 165 q 608 266 592 221 q 625 364 625 311 q 606 468 625 422 q 547 540 586 514 q 449 567 508 567 q 352 540 392 567 q 291 467 313 513 q 269 367 269 422 q 290 265 269 311 q 352 192 311 219 q 454 165 393 165 z "},"q":{"ha":868,"x_min":49,"x_max":792,"o":"m 597 -274 l 597 79 q 496 9 556 28 q 379 -10 436 -10 q 233 19 296 -10 q 130 98 171 47 q 69 216 89 149 q 49 363 49 283 q 89 561 49 475 q 206 696 129 647 q 390 744 283 744 q 509 724 453 744 q 601 657 565 703 l 611 732 l 792 732 l 792 -274 l 597 -274 m 421 165 q 518 193 479 165 q 577 267 557 221 q 597 367 597 313 q 577 467 597 422 q 517 540 557 513 q 418 567 478 567 q 318 539 357 567 q 261 466 279 511 q 243 368 243 421 q 261 269 243 315 q 318 194 279 222 q 421 165 357 165 z "},"r":{"ha":546,"x_min":76,"x_max":531,"o":"m 76 0 l 76 732 l 251 732 l 264 644 q 326 708 292 686 q 399 737 361 729 q 475 744 436 744 q 508 744 493 744 q 531 743 524 743 l 531 556 l 485 556 q 371 533 419 556 q 297 464 322 511 q 271 343 271 417 l 271 0 l 76 0 z "},"ŕ":{"ha":546,"x_min":76,"x_max":574,"o":"m 76 0 l 76 732 l 251 732 l 264 644 q 326 708 292 686 q 399 737 361 729 q 475 744 436 744 q 508 744 493 744 q 531 743 524 743 l 531 556 l 485 556 q 371 533 419 556 q 297 464 322 511 q 271 343 271 417 l 271 0 l 76 0 m 210 818 l 367 1057 l 574 1057 l 376 818 l 210 818 z "},"ř":{"ha":546,"x_min":35,"x_max":593,"o":"m 76 0 l 76 732 l 251 732 l 264 644 q 326 708 292 686 q 399 737 361 729 q 475 744 436 744 q 508 744 493 744 q 531 743 524 743 l 531 556 l 485 556 q 371 533 419 556 q 297 464 322 511 q 271 343 271 417 l 271 0 l 76 0 m 250 818 l 35 1068 l 222 1068 l 317 944 l 408 1068 l 593 1068 l 381 818 l 250 818 z "},"ŗ":{"ha":546,"x_min":65,"x_max":531,"o":"m 76 0 l 76 732 l 251 732 l 264 644 q 326 708 292 686 q 399 737 361 729 q 475 744 436 744 q 508 744 493 744 q 531 743 524 743 l 531 556 l 485 556 q 371 533 419 556 q 297 464 322 511 q 271 343 271 417 l 271 0 l 76 0 m 111 -415 l 65 -349 q 105 -322 83 -339 q 144 -284 126 -304 q 167 -247 161 -264 q 104 -222 131 -244 q 78 -158 78 -199 q 108 -87 78 -111 q 179 -64 139 -64 q 259 -102 232 -65 q 285 -193 286 -139 q 260 -290 285 -246 q 197 -367 236 -335 q 111 -415 157 -399 z "},"s":{"ha":713,"x_min":38,"x_max":675,"o":"m 363 -10 q 257 1 311 -10 q 157 40 203 13 q 79 113 111 67 q 38 229 47 160 l 235 229 q 265 186 243 204 q 315 160 286 168 q 372 151 343 151 q 411 154 392 151 q 447 165 431 157 q 474 187 464 174 q 483 221 483 200 q 469 256 483 243 q 431 276 456 268 q 374 290 406 283 q 251 318 317 303 q 139 363 186 333 q 104 393 119 376 q 79 431 89 410 q 64 474 69 451 q 58 524 58 497 q 84 626 58 583 q 153 694 110 668 q 249 733 196 721 q 357 744 301 744 q 496 720 432 744 q 601 645 560 696 q 653 514 643 594 l 467 514 q 429 563 461 544 q 350 582 397 582 q 315 579 333 582 q 281 569 296 576 q 256 551 265 563 q 246 519 246 539 q 255 492 246 504 q 281 471 264 479 q 324 456 299 463 q 419 435 371 444 q 504 417 467 426 q 588 385 550 407 q 651 324 626 363 q 675 225 675 286 q 647 110 675 156 q 573 39 619 65 q 472 1 526 13 q 363 -10 417 -10 z "},"ś":{"ha":713,"x_min":38,"x_max":675,"o":"m 363 -10 q 257 1 311 -10 q 157 40 203 13 q 79 113 111 67 q 38 229 47 160 l 235 229 q 265 186 243 204 q 315 160 286 168 q 372 151 343 151 q 411 154 392 151 q 447 165 431 157 q 474 187 464 174 q 483 221 483 200 q 469 256 483 243 q 431 276 456 268 q 374 290 406 283 q 251 318 317 303 q 139 363 186 333 q 104 393 119 376 q 79 431 89 410 q 64 474 69 451 q 58 524 58 497 q 84 626 58 583 q 153 694 110 668 q 249 733 196 721 q 357 744 301 744 q 496 720 432 744 q 601 645 560 696 q 653 514 643 594 l 467 514 q 429 563 461 544 q 350 582 397 582 q 315 579 333 582 q 281 569 296 576 q 256 551 265 563 q 246 519 246 539 q 255 492 246 504 q 281 471 264 479 q 324 456 299 463 q 419 435 371 444 q 504 417 467 426 q 588 385 550 407 q 651 324 626 363 q 675 225 675 286 q 647 110 675 156 q 573 39 619 65 q 472 1 526 13 q 363 -10 417 -10 m 251 818 l 408 1057 l 615 1057 l 418 818 l 251 818 z "},"š":{"ha":713,"x_min":38,"x_max":675,"o":"m 363 -10 q 257 1 311 -10 q 157 40 203 13 q 79 113 111 67 q 38 229 47 160 l 235 229 q 265 186 243 204 q 315 160 286 168 q 372 151 343 151 q 411 154 392 151 q 447 165 431 157 q 474 187 464 174 q 483 221 483 200 q 469 256 483 243 q 431 276 456 268 q 374 290 406 283 q 251 318 317 303 q 139 363 186 333 q 104 393 119 376 q 79 431 89 410 q 64 474 69 451 q 58 524 58 497 q 84 626 58 583 q 153 694 110 668 q 249 733 196 721 q 357 744 301 744 q 496 720 432 744 q 601 645 560 696 q 653 514 643 594 l 467 514 q 429 563 461 544 q 350 582 397 582 q 315 579 333 582 q 281 569 296 576 q 256 551 265 563 q 246 519 246 539 q 255 492 246 504 q 281 471 264 479 q 324 456 299 463 q 419 435 371 444 q 504 417 467 426 q 588 385 550 407 q 651 324 626 363 q 675 225 675 286 q 647 110 675 156 q 573 39 619 65 q 472 1 526 13 q 363 -10 417 -10 m 292 818 l 76 1068 l 264 1068 l 358 944 l 450 1068 l 635 1068 l 422 818 l 292 818 z "},"ş":{"ha":713,"x_min":38,"x_max":675,"o":"m 363 -10 q 257 1 311 -10 q 157 40 203 13 q 79 113 111 67 q 38 229 47 160 l 235 229 q 265 186 243 204 q 315 160 286 168 q 372 151 343 151 q 411 154 392 151 q 447 165 431 157 q 474 187 464 174 q 483 221 483 200 q 469 256 483 243 q 431 276 456 268 q 374 290 406 283 q 251 318 317 303 q 139 363 186 333 q 104 393 119 376 q 79 431 89 410 q 64 474 69 451 q 58 524 58 497 q 84 626 58 583 q 153 694 110 668 q 249 733 196 721 q 357 744 301 744 q 496 720 432 744 q 601 645 560 696 q 653 514 643 594 l 467 514 q 429 563 461 544 q 350 582 397 582 q 315 579 333 582 q 281 569 296 576 q 256 551 265 563 q 246 519 246 539 q 255 492 246 504 q 281 471 264 479 q 324 456 299 463 q 419 435 371 444 q 504 417 467 426 q 588 385 550 407 q 651 324 626 363 q 675 225 675 286 q 647 110 675 156 q 573 39 619 65 q 472 1 526 13 q 363 -10 417 -10 m 342 -371 q 287 -371 310 -372 q 243 -367 264 -369 l 243 -250 q 304 -256 276 -256 q 353 -250 332 -256 q 387 -231 375 -244 q 399 -197 399 -218 q 388 -169 399 -179 q 359 -156 376 -160 q 325 -151 342 -151 q 281 -154 304 -150 q 246 -164 258 -158 l 303 46 l 431 46 l 404 -57 q 421 -57 413 -57 q 438 -58 429 -57 q 516 -96 486 -65 q 546 -192 546 -126 q 517 -292 546 -253 q 442 -349 488 -331 q 342 -371 396 -368 z "},"ŝ":{"ha":713,"x_min":38,"x_max":675,"o":"m 363 -10 q 257 1 311 -10 q 157 40 203 13 q 79 113 111 67 q 38 229 47 160 l 235 229 q 265 186 243 204 q 315 160 286 168 q 372 151 343 151 q 411 154 392 151 q 447 165 431 157 q 474 187 464 174 q 483 221 483 200 q 469 256 483 243 q 431 276 456 268 q 374 290 406 283 q 251 318 317 303 q 139 363 186 333 q 104 393 119 376 q 79 431 89 410 q 64 474 69 451 q 58 524 58 497 q 84 626 58 583 q 153 694 110 668 q 249 733 196 721 q 357 744 301 744 q 496 720 432 744 q 601 645 560 696 q 653 514 643 594 l 467 514 q 429 563 461 544 q 350 582 397 582 q 315 579 333 582 q 281 569 296 576 q 256 551 265 563 q 246 519 246 539 q 255 492 246 504 q 281 471 264 479 q 324 456 299 463 q 419 435 371 444 q 504 417 467 426 q 588 385 550 407 q 651 324 626 363 q 675 225 675 286 q 647 110 675 156 q 573 39 619 65 q 472 1 526 13 q 363 -10 417 -10 m 78 818 l 290 1068 l 419 1068 l 635 818 l 449 818 l 354 940 l 263 818 l 78 818 z "},"ș":{"ha":713,"x_min":38,"x_max":675,"o":"m 363 -10 q 257 1 311 -10 q 157 40 203 13 q 79 113 111 67 q 38 229 47 160 l 235 229 q 265 186 243 204 q 315 160 286 168 q 372 151 343 151 q 411 154 392 151 q 447 165 431 157 q 474 187 464 174 q 483 221 483 200 q 469 256 483 243 q 431 276 456 268 q 374 290 406 283 q 251 318 317 303 q 139 363 186 333 q 104 393 119 376 q 79 431 89 410 q 64 474 69 451 q 58 524 58 497 q 84 626 58 583 q 153 694 110 668 q 249 733 196 721 q 357 744 301 744 q 496 720 432 744 q 601 645 560 696 q 653 514 643 594 l 467 514 q 429 563 461 544 q 350 582 397 582 q 315 579 333 582 q 281 569 296 576 q 256 551 265 563 q 246 519 246 539 q 255 492 246 504 q 281 471 264 479 q 324 456 299 463 q 419 435 371 444 q 504 417 467 426 q 588 385 550 407 q 651 324 626 363 q 675 225 675 286 q 647 110 675 156 q 573 39 619 65 q 472 1 526 13 q 363 -10 417 -10 m 292 -415 l 246 -349 q 285 -322 264 -339 q 324 -284 307 -304 q 347 -247 342 -264 q 285 -222 311 -244 q 258 -158 258 -199 q 289 -87 258 -111 q 360 -64 319 -64 q 440 -102 413 -65 q 465 -193 467 -139 q 441 -290 465 -246 q 377 -367 417 -335 q 292 -415 338 -399 z "},"ß":{"ha":906,"x_min":76,"x_max":871,"o":"m 601 -10 q 465 16 528 -10 q 363 95 401 42 q 318 229 324 149 l 501 229 q 530 170 506 189 q 590 151 554 151 q 654 169 628 151 q 681 228 681 188 q 669 268 681 251 q 631 299 657 285 q 567 327 600 314 q 501 354 533 340 q 410 414 443 378 q 376 513 376 450 q 401 599 376 561 q 451 671 425 638 q 490 722 472 696 q 508 786 508 749 q 495 828 508 808 q 456 862 482 849 q 390 875 429 875 q 324 860 350 875 q 284 819 297 844 q 271 761 271 793 l 271 0 l 76 0 l 76 772 q 100 891 76 840 q 167 976 124 942 q 267 1026 210 1010 q 394 1043 325 1043 q 507 1030 451 1043 q 608 990 563 1017 q 680 919 653 963 q 707 815 707 876 q 693 740 707 772 q 659 683 679 707 q 618 636 639 658 q 581 589 599 613 q 564 544 564 565 q 579 502 564 518 q 631 474 594 486 q 690 449 661 461 q 747 424 718 436 q 839 347 807 396 q 871 228 871 297 q 835 93 871 146 q 738 15 799 40 q 601 -10 676 -10 z "},"t":{"ha":508,"x_min":22,"x_max":485,"o":"m 408 0 q 255 22 317 0 q 162 98 193 44 q 131 244 131 151 l 131 558 l 22 558 l 22 732 l 131 732 l 131 928 l 325 928 l 325 732 l 485 732 l 485 558 l 325 558 l 325 272 q 342 200 325 226 q 417 174 358 174 l 478 174 l 478 0 l 408 0 z "},"ŧ":{"ha":508,"x_min":22,"x_max":485,"o":"m 389 0 q 245 24 303 0 q 159 101 188 47 q 131 244 131 154 l 131 314 l 22 314 l 22 453 l 131 453 l 131 563 l 22 563 l 22 732 l 131 732 l 131 928 l 325 928 l 325 732 l 485 732 l 485 563 l 325 563 l 325 453 l 485 453 l 485 314 l 325 314 l 325 267 q 342 197 325 219 q 417 174 360 174 l 483 174 l 483 0 l 389 0 z "},"ť":{"ha":694,"x_min":22,"x_max":733,"o":"m 408 0 q 255 22 317 0 q 162 98 193 44 q 131 244 131 151 l 131 558 l 22 558 l 22 732 l 131 732 l 131 928 l 325 928 l 325 732 l 485 732 l 485 558 l 325 558 l 325 272 q 342 200 325 226 q 417 174 358 174 l 478 174 l 478 0 l 408 0 m 536 543 l 483 621 q 527 650 503 631 q 572 692 551 669 q 597 732 592 714 q 528 763 557 736 q 499 836 499 789 q 533 916 499 889 q 613 943 567 943 q 703 901 674 943 q 733 801 733 858 q 705 687 733 740 q 631 596 676 633 q 536 543 586 558 z "},"ţ":{"ha":508,"x_min":22,"x_max":489,"o":"m 408 0 q 255 22 317 0 q 162 98 193 44 q 131 244 131 151 l 131 558 l 22 558 l 22 732 l 131 732 l 131 928 l 325 928 l 325 732 l 485 732 l 485 558 l 325 558 l 325 272 q 342 200 325 226 q 417 174 358 174 l 478 174 l 478 0 l 408 0 m 283 -365 q 228 -365 251 -367 q 185 -361 206 -364 l 185 -244 q 246 -250 218 -250 q 295 -244 274 -250 q 328 -226 317 -239 q 340 -192 340 -212 q 329 -164 340 -174 q 301 -150 318 -154 q 267 -146 283 -146 q 223 -149 246 -144 q 188 -158 200 -153 l 244 51 l 372 51 l 346 -51 q 363 -51 354 -51 q 379 -53 371 -51 q 458 -90 428 -60 q 488 -186 488 -121 q 458 -286 488 -247 q 383 -344 429 -325 q 283 -365 338 -362 z "},"ț":{"ha":508,"x_min":22,"x_max":485,"o":"m 408 0 q 255 22 317 0 q 162 98 193 44 q 131 244 131 151 l 131 558 l 22 558 l 22 732 l 131 732 l 131 928 l 325 928 l 325 732 l 485 732 l 485 558 l 325 558 l 325 272 q 342 200 325 226 q 417 174 358 174 l 478 174 l 478 0 l 408 0 m 235 -410 l 189 -343 q 228 -316 207 -333 q 267 -278 250 -299 q 290 -242 285 -258 q 228 -216 254 -239 q 201 -153 201 -193 q 232 -82 201 -106 q 303 -58 263 -58 q 383 -97 356 -60 q 408 -187 410 -133 q 384 -285 408 -240 q 320 -361 360 -329 q 235 -410 281 -393 z "},"u":{"ha":813,"x_min":74,"x_max":738,"o":"m 408 -10 q 160 73 247 -10 q 74 322 74 156 l 74 732 l 268 732 l 268 336 q 283 248 268 286 q 328 188 297 210 q 410 165 360 165 q 493 189 464 165 q 533 252 522 213 q 544 336 544 292 l 544 732 l 738 732 l 738 322 q 651 69 738 149 q 408 -10 564 -10 z "},"ú":{"ha":813,"x_min":74,"x_max":738,"o":"m 408 -10 q 160 73 247 -10 q 74 322 74 156 l 74 732 l 268 732 l 268 336 q 283 248 268 286 q 328 188 297 210 q 410 165 360 165 q 493 189 464 165 q 533 252 522 213 q 544 336 544 292 l 544 732 l 738 732 l 738 322 q 651 69 738 149 q 408 -10 564 -10 m 301 818 l 458 1057 l 665 1057 l 468 818 l 301 818 z "},"ŭ":{"ha":813,"x_min":74,"x_max":738,"o":"m 408 -10 q 160 73 247 -10 q 74 322 74 156 l 74 732 l 268 732 l 268 336 q 283 248 268 286 q 328 188 297 210 q 410 165 360 165 q 493 189 464 165 q 533 252 522 213 q 544 336 544 292 l 544 732 l 738 732 l 738 322 q 651 69 738 149 q 408 -10 564 -10 m 406 815 q 214 873 283 815 q 143 1049 144 931 l 304 1049 q 334 974 306 994 q 407 953 363 953 q 481 974 454 953 q 510 1049 508 994 l 671 1049 q 639 919 671 971 q 548 841 607 867 q 406 815 489 815 z "},"û":{"ha":813,"x_min":74,"x_max":738,"o":"m 408 -10 q 160 73 247 -10 q 74 322 74 156 l 74 732 l 268 732 l 268 336 q 283 248 268 286 q 328 188 297 210 q 410 165 360 165 q 493 189 464 165 q 533 252 522 213 q 544 336 544 292 l 544 732 l 738 732 l 738 322 q 651 69 738 149 q 408 -10 564 -10 m 128 818 l 340 1068 l 469 1068 l 685 818 l 499 818 l 404 940 l 313 818 l 128 818 z "},"ü":{"ha":813,"x_min":74,"x_max":738,"o":"m 408 -10 q 160 73 247 -10 q 74 322 74 156 l 74 732 l 268 732 l 268 336 q 283 248 268 286 q 328 188 297 210 q 410 165 360 165 q 493 189 464 165 q 533 252 522 213 q 544 336 544 292 l 544 732 l 738 732 l 738 322 q 651 69 738 149 q 408 -10 564 -10 m 576 810 q 498 838 531 810 q 465 917 465 865 q 499 999 465 969 q 576 1028 533 1028 q 654 999 622 1028 q 686 918 686 971 q 654 838 686 865 q 576 810 622 810 m 236 810 q 158 838 192 810 q 125 917 125 865 q 158 999 125 969 q 236 1028 192 1028 q 314 999 281 1028 q 347 917 347 971 q 315 838 347 865 q 236 810 282 810 z "},"ù":{"ha":813,"x_min":74,"x_max":738,"o":"m 408 -10 q 160 73 247 -10 q 74 322 74 156 l 74 732 l 268 732 l 268 336 q 283 248 268 286 q 328 188 297 210 q 410 165 360 165 q 493 189 464 165 q 533 252 522 213 q 544 336 544 292 l 544 732 l 738 732 l 738 322 q 651 69 738 149 q 408 -10 564 -10 m 349 818 l 151 1056 l 358 1056 l 515 818 l 349 818 z "},"ű":{"ha":813,"x_min":74,"x_max":776,"o":"m 408 -10 q 160 73 247 -10 q 74 322 74 156 l 74 732 l 268 732 l 268 336 q 283 248 268 286 q 328 188 297 210 q 410 165 360 165 q 493 189 464 165 q 533 252 522 213 q 544 336 544 292 l 544 732 l 738 732 l 738 322 q 651 69 738 149 q 408 -10 564 -10 m 435 818 l 582 1056 l 776 1056 l 590 818 l 435 818 m 183 818 l 292 1056 l 488 1056 l 335 818 l 183 818 z "},"ū":{"ha":813,"x_min":74,"x_max":738,"o":"m 408 -10 q 160 73 247 -10 q 74 322 74 156 l 74 732 l 268 732 l 268 336 q 283 248 268 286 q 328 188 297 210 q 410 165 360 165 q 493 189 464 165 q 533 252 522 213 q 544 336 544 292 l 544 732 l 738 732 l 738 322 q 651 69 738 149 q 408 -10 564 -10 m 153 865 l 153 1033 l 660 1033 l 660 865 l 153 865 z "},"ų":{"ha":813,"x_min":74,"x_max":738,"o":"m 408 -10 q 160 73 247 -10 q 74 322 74 156 l 74 732 l 268 732 l 268 336 q 283 248 268 286 q 328 188 297 210 q 410 165 360 165 q 493 189 464 165 q 533 252 522 213 q 544 336 544 292 l 544 732 l 738 732 l 738 322 q 651 69 738 149 q 408 -10 564 -10 m 465 -289 q 332 -247 381 -287 q 283 -139 283 -207 q 316 -43 283 -85 q 399 18 349 -1 l 511 4 q 446 -37 474 -11 q 418 -99 418 -64 q 438 -148 418 -131 q 490 -165 458 -165 q 521 -162 507 -165 q 549 -151 535 -158 l 571 -264 q 517 -284 544 -279 q 465 -289 490 -289 z "},"ů":{"ha":813,"x_min":74,"x_max":738,"o":"m 408 -10 q 160 73 247 -10 q 74 322 74 156 l 74 732 l 268 732 l 268 336 q 283 248 268 286 q 328 188 297 210 q 410 165 360 165 q 493 189 464 165 q 533 252 522 213 q 544 336 544 292 l 544 732 l 738 732 l 738 322 q 651 69 738 149 q 408 -10 564 -10 m 406 794 q 287 838 333 794 q 240 950 240 881 q 288 1066 240 1021 q 407 1111 336 1111 q 524 1067 478 1111 q 571 950 571 1022 q 525 838 571 881 q 406 794 479 794 m 406 896 q 447 912 432 896 q 463 953 463 928 q 447 992 463 976 q 406 1008 431 1008 q 365 992 381 1008 q 349 953 349 976 q 364 912 349 928 q 406 896 379 896 z "},"ũ":{"ha":813,"x_min":74,"x_max":738,"o":"m 408 -10 q 160 73 247 -10 q 74 322 74 156 l 74 732 l 268 732 l 268 336 q 283 248 268 286 q 328 188 297 210 q 410 165 360 165 q 493 189 464 165 q 533 252 522 213 q 544 336 544 292 l 544 732 l 738 732 l 738 322 q 651 69 738 149 q 408 -10 564 -10 m 519 811 q 450 826 481 811 q 396 860 419 842 q 352 893 372 878 q 315 908 332 908 q 286 892 296 908 q 275 854 276 875 q 276 818 274 833 l 143 818 q 152 928 139 876 q 203 1013 165 979 q 310 1046 242 1046 q 373 1032 346 1046 q 422 1000 400 1018 q 461 968 443 982 q 499 954 479 954 q 527 969 519 954 q 536 1003 535 983 q 536 1038 538 1024 l 669 1038 q 663 931 674 983 q 618 844 651 878 q 519 811 585 811 z "},"v":{"ha":775,"x_min":0,"x_max":775,"o":"m 257 0 l 0 732 l 213 732 l 388 158 l 561 732 l 775 732 l 518 0 l 257 0 z "},"w":{"ha":1204,"x_min":3,"x_max":1201,"o":"m 233 0 l 3 732 l 215 732 l 351 222 l 496 732 l 714 732 l 858 222 l 992 732 l 1201 732 l 971 0 l 747 0 l 601 494 l 457 0 l 233 0 z "},"ẃ":{"ha":1204,"x_min":3,"x_max":1201,"o":"m 233 0 l 3 732 l 215 732 l 351 222 l 496 732 l 714 732 l 858 222 l 992 732 l 1201 732 l 971 0 l 747 0 l 601 494 l 457 0 l 233 0 m 497 818 l 654 1057 l 861 1057 l 664 818 l 497 818 z "},"ŵ":{"ha":1204,"x_min":3,"x_max":1201,"o":"m 233 0 l 3 732 l 215 732 l 351 222 l 496 732 l 714 732 l 858 222 l 992 732 l 1201 732 l 971 0 l 747 0 l 601 494 l 457 0 l 233 0 m 324 818 l 536 1068 l 665 1068 l 881 818 l 694 818 l 600 940 l 508 818 l 324 818 z "},"ẅ":{"ha":1204,"x_min":3,"x_max":1201,"o":"m 233 0 l 3 732 l 215 732 l 351 222 l 496 732 l 714 732 l 858 222 l 992 732 l 1201 732 l 971 0 l 747 0 l 601 494 l 457 0 l 233 0 m 772 810 q 694 838 726 810 q 661 917 661 865 q 695 999 661 969 q 772 1028 729 1028 q 850 999 818 1028 q 882 918 882 971 q 850 838 882 865 q 772 810 818 810 m 432 810 q 354 838 388 810 q 321 917 321 865 q 354 999 321 969 q 432 1028 388 1028 q 510 999 476 1028 q 543 917 543 971 q 510 838 543 865 q 432 810 478 810 z "},"ẁ":{"ha":1204,"x_min":3,"x_max":1201,"o":"m 233 0 l 3 732 l 215 732 l 351 222 l 496 732 l 714 732 l 858 222 l 992 732 l 1201 732 l 971 0 l 747 0 l 601 494 l 457 0 l 233 0 m 546 818 l 349 1056 l 556 1056 l 713 818 l 546 818 z "},"x":{"ha":778,"x_min":8,"x_max":769,"o":"m 8 0 l 264 374 l 21 732 l 247 732 l 392 501 l 533 732 l 753 732 l 508 369 l 769 0 l 543 0 l 383 240 l 225 0 l 8 0 z "},"y":{"ha":856,"x_min":82,"x_max":779,"o":"m 400 -337 q 235 -315 315 -337 q 83 -240 154 -293 l 149 -85 q 250 -138 193 -118 q 376 -158 307 -158 q 535 -108 483 -158 q 588 36 588 -58 l 588 75 q 528 24 564 43 q 453 -3 493 6 q 372 -11 413 -11 q 203 33 267 -11 q 110 155 139 78 q 82 331 82 232 l 82 732 l 276 732 l 276 371 q 281 299 276 335 q 300 232 285 263 q 346 183 315 201 q 428 164 376 164 q 528 197 494 164 q 573 279 561 229 q 585 383 585 329 l 585 732 l 779 732 l 779 106 q 760 -76 779 6 q 698 -217 742 -158 q 581 -306 654 -275 q 400 -337 508 -337 z "},"ý":{"ha":856,"x_min":82,"x_max":779,"o":"m 400 -337 q 235 -315 315 -337 q 83 -240 154 -293 l 149 -85 q 250 -138 193 -118 q 376 -158 307 -158 q 535 -108 483 -158 q 588 36 588 -58 l 588 75 q 528 24 564 43 q 453 -3 493 6 q 372 -11 413 -11 q 203 33 267 -11 q 110 155 139 78 q 82 331 82 232 l 82 732 l 276 732 l 276 371 q 281 299 276 335 q 300 232 285 263 q 346 183 315 201 q 428 164 376 164 q 528 197 494 164 q 573 279 561 229 q 585 383 585 329 l 585 732 l 779 732 l 779 106 q 760 -76 779 6 q 698 -217 742 -158 q 581 -306 654 -275 q 400 -337 508 -337 m 324 818 l 481 1057 l 688 1057 l 490 818 l 324 818 z "},"ŷ":{"ha":856,"x_min":82,"x_max":779,"o":"m 400 -337 q 235 -315 315 -337 q 83 -240 154 -293 l 149 -85 q 250 -138 193 -118 q 376 -158 307 -158 q 535 -108 483 -158 q 588 36 588 -58 l 588 75 q 528 24 564 43 q 453 -3 493 6 q 372 -11 413 -11 q 203 33 267 -11 q 110 155 139 78 q 82 331 82 232 l 82 732 l 276 732 l 276 371 q 281 299 276 335 q 300 232 285 263 q 346 183 315 201 q 428 164 376 164 q 528 197 494 164 q 573 279 561 229 q 585 383 585 329 l 585 732 l 779 732 l 779 106 q 760 -76 779 6 q 698 -217 742 -158 q 581 -306 654 -275 q 400 -337 508 -337 m 150 818 l 363 1068 l 492 1068 l 707 818 l 521 818 l 426 940 l 335 818 l 150 818 z "},"ÿ":{"ha":856,"x_min":82,"x_max":779,"o":"m 400 -337 q 235 -315 315 -337 q 83 -240 154 -293 l 149 -85 q 250 -138 193 -118 q 376 -158 307 -158 q 535 -108 483 -158 q 588 36 588 -58 l 588 75 q 528 24 564 43 q 453 -3 493 6 q 372 -11 413 -11 q 203 33 267 -11 q 110 155 139 78 q 82 331 82 232 l 82 732 l 276 732 l 276 371 q 281 299 276 335 q 300 232 285 263 q 346 183 315 201 q 428 164 376 164 q 528 197 494 164 q 573 279 561 229 q 585 383 585 329 l 585 732 l 779 732 l 779 106 q 760 -76 779 6 q 698 -217 742 -158 q 581 -306 654 -275 q 400 -337 508 -337 m 599 810 q 520 838 553 810 q 488 917 488 865 q 522 999 488 969 q 599 1028 556 1028 q 676 999 644 1028 q 708 918 708 971 q 676 838 708 865 q 599 810 644 810 m 258 810 q 181 838 214 810 q 147 917 147 865 q 181 999 147 969 q 258 1028 214 1028 q 336 999 303 1028 q 369 917 369 971 q 337 838 369 865 q 258 810 304 810 z "},"ỳ":{"ha":856,"x_min":82,"x_max":779,"o":"m 400 -337 q 235 -315 315 -337 q 83 -240 154 -293 l 149 -85 q 250 -138 193 -118 q 376 -158 307 -158 q 535 -108 483 -158 q 588 36 588 -58 l 588 75 q 528 24 564 43 q 453 -3 493 6 q 372 -11 413 -11 q 203 33 267 -11 q 110 155 139 78 q 82 331 82 232 l 82 732 l 276 732 l 276 371 q 281 299 276 335 q 300 232 285 263 q 346 183 315 201 q 428 164 376 164 q 528 197 494 164 q 573 279 561 229 q 585 383 585 329 l 585 732 l 779 732 l 779 106 q 760 -76 779 6 q 698 -217 742 -158 q 581 -306 654 -275 q 400 -337 508 -337 m 371 818 l 174 1056 l 381 1056 l 538 818 l 371 818 z "},"z":{"ha":708,"x_min":49,"x_max":660,"o":"m 49 0 l 49 147 l 410 558 l 49 558 l 49 732 l 660 732 l 660 586 l 297 174 l 660 174 l 660 0 l 49 0 z "},"ź":{"ha":708,"x_min":49,"x_max":660,"o":"m 49 0 l 49 147 l 410 558 l 49 558 l 49 732 l 660 732 l 660 586 l 297 174 l 660 174 l 660 0 l 49 0 m 249 818 l 406 1057 l 613 1057 l 415 818 l 249 818 z "},"ž":{"ha":708,"x_min":49,"x_max":660,"o":"m 49 0 l 49 147 l 410 558 l 49 558 l 49 732 l 660 732 l 660 586 l 297 174 l 660 174 l 660 0 l 49 0 m 290 818 l 75 1068 l 263 1068 l 357 944 l 449 1068 l 633 1068 l 421 818 l 290 818 z "},"ż":{"ha":708,"x_min":49,"x_max":660,"o":"m 49 0 l 49 147 l 410 558 l 49 558 l 49 732 l 660 732 l 660 586 l 297 174 l 660 174 l 660 0 l 49 0 m 354 806 q 267 838 300 806 q 233 922 233 871 q 268 1010 233 976 q 356 1043 303 1043 q 440 1010 404 1043 q 475 924 475 978 q 441 838 475 871 q 354 806 407 806 z "},"ª":{"ha":519,"x_min":53,"x_max":449,"o":"m 204 600 q 95 635 138 600 q 53 735 53 671 q 79 819 53 789 q 149 859 106 849 q 244 869 193 869 l 329 869 q 310 922 328 903 q 258 940 293 940 q 215 933 238 940 q 189 903 193 925 l 64 903 q 98 985 69 953 q 169 1033 126 1017 q 263 1049 213 1049 q 367 1024 326 1049 q 428 953 408 999 q 449 840 449 907 l 449 606 l 338 606 l 335 658 q 275 613 308 626 q 204 600 242 600 m 233 700 q 301 722 274 700 q 331 785 329 743 l 247 785 q 215 782 231 785 q 187 771 199 779 q 175 744 175 763 q 192 711 175 722 q 233 700 208 700 z "},"º":{"ha":532,"x_min":67,"x_max":465,"o":"m 265 597 q 148 629 192 597 q 85 712 104 661 q 67 821 67 763 q 85 932 67 881 q 149 1015 104 983 q 267 1046 193 1046 q 385 1015 342 1046 q 447 932 428 983 q 465 822 465 881 q 447 713 465 764 q 384 629 428 661 q 265 597 340 597 m 265 706 q 318 724 301 706 q 341 771 335 743 q 347 822 347 799 q 342 874 347 847 q 319 919 336 900 q 267 938 303 938 q 215 919 233 938 q 191 873 197 900 q 185 818 185 846 q 190 769 185 796 q 213 724 196 743 q 265 706 231 706 z "},"А":{"ha":988,"x_min":1,"x_max":986,"o":"m 1 0 l 385 983 l 607 983 l 986 0 l 772 0 l 711 168 l 276 168 l 215 0 l 1 0 m 340 347 l 649 347 l 496 772 l 340 347 z "},"Б":{"ha":940,"x_min":104,"x_max":881,"o":"m 104 0 l 104 983 l 828 983 l 828 799 l 303 799 l 303 603 l 515 603 q 653 591 588 603 q 769 549 718 579 q 851 464 821 519 q 881 322 881 408 q 847 165 881 228 q 756 66 813 103 q 628 15 700 29 q 482 0 557 0 l 104 0 m 303 183 l 486 183 q 556 188 521 183 q 619 206 592 193 q 665 244 647 218 q 682 313 682 269 q 667 374 682 351 q 626 409 653 397 q 566 425 600 421 q 494 429 532 429 l 303 429 l 303 183 z "},"В":{"ha":940,"x_min":103,"x_max":889,"o":"m 103 0 l 103 983 l 533 983 q 658 970 601 983 q 756 928 714 957 q 820 850 797 899 q 843 726 843 801 q 815 613 843 665 q 733 532 788 560 q 847 449 806 508 q 889 297 889 390 q 857 152 889 210 q 769 61 825 94 q 642 14 714 28 q 492 0 571 0 l 103 0 m 301 183 l 507 183 q 577 189 544 183 q 635 208 610 194 q 674 244 660 221 q 689 303 689 268 q 677 356 689 335 q 644 392 665 378 q 594 411 622 406 q 531 417 565 417 l 301 417 l 301 183 m 301 582 l 483 582 q 551 589 521 582 q 603 611 582 596 q 635 648 624 626 q 646 700 646 669 q 628 762 646 740 q 578 792 610 783 q 504 800 547 800 l 301 800 l 301 582 z "},"Г":{"ha":810,"x_min":104,"x_max":783,"o":"m 104 0 l 104 983 l 783 983 l 783 799 l 303 799 l 303 0 l 104 0 z "},"Ґ":{"ha":810,"x_min":104,"x_max":783,"o":"m 104 0 l 104 983 l 585 983 l 585 1204 l 783 1204 l 783 799 l 303 799 l 303 0 l 104 0 z "},"Д":{"ha":1022,"x_min":18,"x_max":1004,"o":"m 18 -249 l 18 183 q 103 213 75 183 q 143 285 131 242 q 163 378 156 329 q 175 476 171 426 q 181 574 179 526 q 189 782 186 681 q 192 983 192 883 l 886 983 l 886 183 l 1004 183 l 1004 -249 l 806 -249 l 806 0 l 217 0 l 217 -249 l 18 -249 m 319 183 l 688 183 l 688 799 l 375 799 l 368 489 q 366 423 368 461 q 358 343 364 385 q 344 260 353 301 q 319 183 335 218 z "},"Е":{"ha":863,"x_min":104,"x_max":813,"o":"m 104 0 l 104 983 l 813 983 l 813 799 l 303 799 l 303 576 l 740 576 l 740 399 l 303 399 l 303 183 l 813 183 l 813 0 l 104 0 z "},"Ё":{"ha":863,"x_min":104,"x_max":813,"o":"m 104 0 l 104 983 l 813 983 l 813 799 l 303 799 l 303 576 l 740 576 l 740 399 l 303 399 l 303 183 l 813 183 l 813 0 l 104 0 m 635 1061 q 556 1089 589 1061 q 524 1168 524 1117 q 558 1250 524 1221 q 635 1279 592 1279 q 713 1251 681 1279 q 744 1169 744 1222 q 713 1089 744 1117 q 635 1061 681 1061 m 294 1061 q 217 1089 250 1061 q 183 1168 183 1117 q 217 1250 183 1221 q 294 1279 250 1279 q 372 1251 339 1279 q 406 1168 406 1222 q 373 1089 406 1117 q 294 1061 340 1061 z "},"Ж":{"ha":1351,"x_min":8,"x_max":1343,"o":"m 10 0 l 283 507 l 8 983 l 233 983 l 449 576 l 575 576 l 575 983 l 775 983 l 775 576 l 901 576 l 1119 983 l 1342 983 l 1067 507 l 1343 0 l 1110 0 l 906 396 l 775 396 l 775 0 l 575 0 l 575 396 l 446 396 l 240 0 l 10 0 z "},"З":{"ha":911,"x_min":44,"x_max":858,"o":"m 460 -11 q 308 7 381 -11 q 178 63 235 25 q 85 160 121 100 q 44 308 50 221 l 236 308 q 263 245 242 271 q 315 204 283 219 q 385 182 347 189 q 463 175 422 175 q 530 181 496 175 q 593 199 564 186 q 640 238 622 213 q 658 301 658 263 q 644 361 658 339 q 606 396 631 383 q 547 413 581 408 q 478 417 514 417 l 338 417 l 338 583 l 442 583 q 512 589 479 583 q 569 609 544 594 q 608 646 594 624 q 622 700 622 668 q 596 768 622 744 q 531 801 569 792 q 451 811 492 811 q 358 798 400 811 q 290 758 315 785 q 261 689 264 731 l 68 689 q 94 811 69 760 q 160 898 119 863 q 253 955 201 933 q 360 985 304 976 q 469 994 415 994 q 595 980 533 994 q 708 933 657 965 q 790 850 760 901 q 819 725 819 799 q 810 653 819 688 q 776 588 800 618 q 708 529 751 557 q 823 439 788 504 q 858 292 858 374 q 826 155 858 213 q 737 60 793 97 q 610 6 681 24 q 460 -11 539 -11 z "},"И":{"ha":1047,"x_min":104,"x_max":943,"o":"m 104 0 l 104 983 l 303 983 l 303 336 l 774 983 l 943 983 l 943 0 l 744 0 l 744 639 l 274 0 l 104 0 z "},"Й":{"ha":1047,"x_min":104,"x_max":943,"o":"m 104 0 l 104 983 l 303 983 l 303 336 l 774 983 l 943 983 l 943 0 l 744 0 l 744 639 l 274 0 l 104 0 m 528 1039 q 387 1065 447 1039 q 293 1143 326 1092 q 256 1274 260 1194 l 421 1274 q 453 1204 422 1228 q 529 1181 483 1181 q 604 1204 576 1181 q 635 1274 632 1228 l 799 1274 q 763 1143 797 1194 q 668 1065 728 1092 q 528 1039 608 1039 z "},"К":{"ha":935,"x_min":104,"x_max":926,"o":"m 104 0 l 104 983 l 303 983 l 303 575 l 443 575 l 699 983 l 926 983 l 610 506 l 925 0 l 693 0 l 450 392 l 303 392 l 303 0 l 104 0 z "},"Л":{"ha":974,"x_min":14,"x_max":869,"o":"m 14 -4 l 14 186 q 90 204 61 186 q 133 256 118 222 q 154 333 147 289 q 164 417 161 372 q 167 502 167 461 q 168 575 168 543 l 172 983 l 869 983 l 869 0 l 669 0 l 669 799 l 360 799 l 357 564 q 352 363 356 457 q 330 195 349 269 q 265 72 311 121 q 165 13 222 29 q 14 -4 107 -4 z "},"М":{"ha":1251,"x_min":104,"x_max":1147,"o":"m 104 0 l 104 983 l 367 983 l 632 508 l 893 983 l 1147 983 l 1147 0 l 947 0 l 947 719 l 668 219 l 586 219 l 303 719 l 303 0 l 104 0 z "},"Н":{"ha":1032,"x_min":104,"x_max":928,"o":"m 104 0 l 104 983 l 303 983 l 303 576 l 728 576 l 728 983 l 928 983 l 928 0 l 728 0 l 728 393 l 303 393 l 303 0 l 104 0 z "},"О":{"ha":1074,"x_min":50,"x_max":1024,"o":"m 535 -11 q 274 53 383 -11 q 108 230 165 117 q 50 490 50 343 q 109 754 50 640 q 278 931 168 868 q 539 994 388 994 q 797 932 689 994 q 965 757 906 869 q 1024 494 1024 644 q 965 233 1024 347 q 797 53 906 118 q 535 -11 688 -11 m 538 175 q 700 221 638 175 q 791 339 763 267 q 819 490 819 411 q 803 606 819 549 q 754 708 788 663 q 667 781 721 754 q 536 808 613 808 q 375 763 438 808 q 283 646 313 718 q 253 492 253 574 q 283 338 253 410 q 376 220 313 265 q 538 175 439 175 z "},"П":{"ha":1025,"x_min":104,"x_max":921,"o":"m 104 0 l 104 983 l 921 983 l 921 0 l 722 0 l 722 800 l 303 800 l 303 0 l 104 0 z "},"Р":{"ha":904,"x_min":104,"x_max":860,"o":"m 104 0 l 104 983 l 488 983 q 684 949 600 983 q 814 841 768 915 q 860 643 860 767 q 809 450 860 528 q 671 334 758 372 q 472 296 583 296 l 303 296 l 303 0 l 104 0 m 303 474 l 469 474 q 610 516 558 474 q 663 644 663 558 q 619 760 663 722 q 479 799 575 799 l 303 799 l 303 474 z "},"С":{"ha":1000,"x_min":50,"x_max":950,"o":"m 524 -11 q 266 51 372 -11 q 105 225 160 113 q 50 488 50 338 q 106 754 50 640 q 268 931 163 868 q 522 994 374 994 q 724 956 635 994 q 867 844 813 918 q 936 661 922 769 l 744 661 q 672 769 726 729 q 526 808 617 808 q 367 763 426 808 q 282 647 308 718 q 256 496 256 575 q 283 340 256 414 q 372 221 311 267 q 531 175 432 175 q 635 192 589 175 q 710 243 681 210 q 751 322 740 276 l 950 322 q 878 140 938 215 q 726 27 818 65 q 524 -11 635 -11 z "},"Т":{"ha":826,"x_min":13,"x_max":814,"o":"m 313 0 l 313 799 l 13 799 l 13 983 l 814 983 l 814 799 l 513 799 l 513 0 l 313 0 z "},"У":{"ha":899,"x_min":13,"x_max":903,"o":"m 160 0 l 160 189 q 262 196 221 189 q 332 224 303 203 q 386 288 361 246 l 13 983 l 244 983 l 490 479 l 690 983 l 903 983 l 671 442 q 624 334 649 390 q 570 224 599 278 q 508 128 542 171 q 433 58 474 85 q 317 13 383 25 q 160 0 251 0 z "},"Ў":{"ha":899,"x_min":13,"x_max":903,"o":"m 160 0 l 160 189 q 262 196 221 189 q 332 224 303 203 q 386 288 361 246 l 13 983 l 244 983 l 490 479 l 690 983 l 903 983 l 671 442 q 624 334 649 390 q 570 224 599 278 q 508 128 542 171 q 433 58 474 85 q 317 13 383 25 q 160 0 251 0 m 472 1067 q 281 1124 350 1067 q 210 1300 211 1182 l 371 1300 q 401 1225 372 1246 q 474 1204 429 1204 q 548 1225 521 1204 q 576 1300 575 1246 l 738 1300 q 706 1170 738 1222 q 615 1092 674 1118 q 472 1067 556 1067 z "},"Ф":{"ha":1208,"x_min":50,"x_max":1158,"o":"m 504 -19 l 504 133 l 453 133 q 240 179 331 135 q 99 308 149 224 q 50 515 50 393 q 103 725 50 640 q 247 852 156 810 q 457 894 339 894 l 504 894 l 504 1026 l 703 1026 l 703 894 l 744 894 q 956 851 863 894 q 1103 725 1049 808 q 1158 518 1158 642 q 1110 309 1158 394 q 969 179 1061 224 q 751 133 878 135 l 703 133 l 703 -19 l 504 -19 m 465 304 l 504 304 l 504 722 l 465 722 q 345 696 394 722 q 270 624 296 669 q 244 518 244 578 q 268 408 244 456 q 341 332 292 360 q 465 304 390 304 m 703 304 l 743 304 q 867 332 818 304 q 939 408 915 360 q 963 518 963 456 q 937 624 963 578 q 863 696 911 669 q 742 722 814 722 l 703 722 l 703 304 z "},"Х":{"ha":929,"x_min":8,"x_max":921,"o":"m 8 0 l 342 492 l 18 983 l 258 983 l 468 639 l 675 983 l 911 983 l 588 493 l 921 0 l 681 0 l 461 344 l 235 0 l 8 0 z "},"Ч":{"ha":953,"x_min":72,"x_max":849,"o":"m 650 0 l 650 335 q 572 326 606 329 q 506 322 538 324 q 438 321 475 321 q 239 356 321 321 q 115 466 157 390 q 72 665 72 542 l 72 983 l 271 983 l 271 686 q 293 575 271 614 q 363 522 315 536 q 482 507 410 507 q 563 509 518 507 q 650 518 608 511 l 650 983 l 849 983 l 849 0 l 650 0 z "},"Ц":{"ha":1032,"x_min":104,"x_max":1015,"o":"m 815 -249 l 815 0 l 104 0 l 104 983 l 303 983 l 303 183 l 700 183 l 700 983 l 899 983 l 899 183 l 1015 183 l 1015 -249 l 815 -249 z "},"Ш":{"ha":1382,"x_min":104,"x_max":1278,"o":"m 104 0 l 104 983 l 303 983 l 303 183 l 592 183 l 592 983 l 790 983 l 790 183 l 1079 183 l 1079 983 l 1278 983 l 1278 0 l 104 0 z "},"Щ":{"ha":1410,"x_min":104,"x_max":1393,"o":"m 1194 -249 l 1194 0 l 104 0 l 104 983 l 303 983 l 303 183 l 592 183 l 592 983 l 790 983 l 790 183 l 1078 183 l 1078 983 l 1276 983 l 1276 183 l 1393 183 l 1393 -249 l 1194 -249 z "},"Ь":{"ha":919,"x_min":103,"x_max":867,"o":"m 103 0 l 103 983 l 301 983 l 301 618 l 494 618 q 640 604 572 618 q 758 558 707 590 q 838 468 808 525 q 867 325 867 411 q 833 167 867 229 q 742 67 800 104 q 612 15 685 31 q 460 0 539 0 l 103 0 m 301 183 l 465 183 q 544 188 508 183 q 608 207 581 193 q 652 248 636 221 q 668 318 668 275 q 654 383 668 358 q 614 420 640 407 q 555 438 588 433 q 483 442 522 442 l 301 442 l 301 183 z "},"Ы":{"ha":1250,"x_min":104,"x_max":1146,"o":"m 104 0 l 104 983 l 303 983 l 303 618 l 449 618 q 584 605 518 618 q 703 559 650 592 q 788 469 757 526 q 819 322 819 411 q 786 167 819 229 q 696 68 753 104 q 567 16 639 32 q 417 0 494 0 l 104 0 m 303 183 l 418 183 q 497 189 460 183 q 563 209 535 194 q 608 249 592 224 q 624 317 624 275 q 607 384 624 360 q 563 421 590 408 q 500 438 535 433 q 428 442 465 442 l 303 442 l 303 183 m 946 0 l 946 983 l 1146 983 l 1146 0 l 946 0 z "},"Ъ":{"ha":1043,"x_min":3,"x_max":990,"o":"m 228 0 l 228 799 l 3 799 l 3 983 l 426 983 l 426 618 l 622 618 q 754 606 689 618 q 873 563 819 594 q 958 472 926 531 q 990 321 990 414 q 958 167 990 229 q 871 67 926 104 q 745 15 815 31 q 599 0 675 0 l 228 0 m 426 183 l 589 183 q 668 188 631 183 q 733 207 706 193 q 778 248 761 221 q 794 318 794 275 q 781 380 794 356 q 742 417 767 404 q 684 436 717 431 q 613 442 651 442 l 426 442 l 426 183 z "},"Ѕ":{"ha":917,"x_min":63,"x_max":853,"o":"m 475 -11 q 284 21 372 -11 q 137 122 196 53 q 63 301 78 192 l 265 301 q 311 226 278 254 q 391 185 344 197 q 489 172 438 172 q 565 182 528 172 q 627 215 603 192 q 651 279 651 239 q 638 329 651 310 q 601 360 625 349 q 542 382 576 372 q 481 396 513 390 q 420 410 450 401 q 363 429 390 418 q 261 463 310 443 q 175 515 213 483 q 116 594 138 546 q 94 708 94 642 q 127 845 94 790 q 215 933 160 900 q 338 981 271 967 q 475 994 406 994 q 649 961 572 994 q 773 861 725 928 q 828 693 821 794 l 635 693 q 604 761 629 735 q 541 800 579 788 q 456 813 503 813 q 396 807 425 813 q 344 790 367 801 q 308 758 321 778 q 294 711 294 739 q 310 664 294 683 q 355 630 325 644 q 425 603 385 615 q 513 579 467 588 q 600 557 558 571 q 699 524 653 543 q 779 476 744 504 q 833 404 814 447 q 853 297 853 361 q 822 153 853 213 q 737 58 790 94 q 615 6 683 22 q 475 -11 547 -11 z "},"Є":{"ha":996,"x_min":50,"x_max":946,"o":"m 513 -11 q 256 53 360 -11 q 101 229 153 117 q 50 489 50 342 q 103 752 50 638 q 260 931 157 867 q 517 994 364 994 q 716 959 628 994 q 862 851 804 924 q 938 667 919 778 l 743 667 q 693 752 729 721 q 610 797 657 783 q 514 811 564 811 q 385 783 440 811 q 298 703 331 754 q 260 581 265 651 l 644 581 l 644 404 l 258 404 q 297 281 263 332 q 389 203 331 231 q 522 175 447 175 q 617 188 571 175 q 699 233 664 201 q 750 317 735 264 l 946 317 q 867 135 929 208 q 713 25 806 61 q 513 -11 621 -11 z "},"Э":{"ha":997,"x_min":50,"x_max":947,"o":"m 482 -11 q 280 26 372 -11 q 127 136 188 63 q 50 317 67 210 l 247 317 q 294 239 261 271 q 375 191 326 207 q 483 175 424 175 q 621 205 565 175 q 706 286 676 235 q 738 404 735 338 l 351 404 l 351 581 l 738 581 q 706 693 733 640 q 625 778 679 746 q 485 811 571 811 q 374 793 422 811 q 296 743 326 775 q 254 667 265 711 l 58 667 q 140 852 76 779 q 297 960 204 925 q 494 994 390 994 q 694 957 610 994 q 835 851 779 919 q 919 690 892 782 q 947 490 947 599 q 894 227 947 340 q 737 51 840 114 q 482 -11 633 -11 z "},"І":{"ha":407,"x_min":104,"x_max":303,"o":"m 104 0 l 104 983 l 303 983 l 303 0 l 104 0 z "},"Ї":{"ha":407,"x_min":-43,"x_max":451,"o":"m 104 0 l 104 983 l 303 983 l 303 0 l 104 0 m 67 1069 q -10 1097 22 1069 q -42 1175 -42 1124 q -9 1255 -42 1226 q 67 1283 24 1283 q 143 1255 110 1283 q 176 1175 176 1226 q 144 1097 176 1124 q 67 1069 111 1069 m 346 1069 q 268 1097 301 1069 q 235 1175 235 1124 q 268 1255 235 1226 q 346 1283 301 1283 q 421 1255 389 1283 q 453 1176 453 1226 q 422 1097 453 1124 q 346 1069 390 1069 z "},"Ј":{"ha":811,"x_min":42,"x_max":714,"o":"m 390 -11 q 253 6 315 -11 q 143 64 190 24 q 69 170 96 104 q 42 332 43 236 l 240 332 q 256 257 243 293 q 298 197 268 221 q 385 174 328 174 q 465 194 438 174 q 503 251 493 215 q 514 328 514 286 l 514 983 l 714 983 l 714 349 q 694 196 714 263 q 635 83 675 129 q 535 13 596 38 q 390 -11 474 -11 z "},"Ю":{"ha":1408,"x_min":104,"x_max":1358,"o":"m 888 -11 q 654 41 753 -11 q 499 186 556 93 q 432 399 443 279 l 303 399 l 303 0 l 104 0 l 104 983 l 303 983 l 303 578 l 429 578 q 499 795 442 701 q 654 942 557 889 q 879 994 751 994 q 1138 932 1032 994 q 1301 757 1244 869 q 1358 493 1358 644 q 1303 231 1358 344 q 1144 53 1249 117 q 888 -11 1039 -11 m 882 175 q 1040 221 981 175 q 1127 340 1100 267 q 1154 494 1154 414 q 1128 647 1154 575 q 1042 765 1101 719 q 885 810 983 810 q 758 782 810 810 q 675 708 706 754 q 631 604 644 661 q 617 490 617 547 q 631 374 617 431 q 676 273 644 318 q 759 201 708 228 q 882 175 810 175 z "},"Я":{"ha":975,"x_min":63,"x_max":871,"o":"m 63 0 l 310 368 q 149 474 206 400 q 92 665 92 549 q 123 817 92 756 q 208 915 154 878 q 334 967 263 951 q 486 983 406 983 l 871 983 l 871 0 l 672 0 l 672 335 l 507 335 l 297 0 l 63 0 m 488 513 l 672 513 l 672 799 l 471 799 q 375 785 415 799 q 312 740 335 771 q 289 658 289 710 q 318 568 289 600 q 394 524 347 536 q 488 513 440 513 z "},"Ӂ":{"ha":1342,"x_min":3,"x_max":1338,"o":"m 4 0 l 279 507 l 3 983 l 228 983 l 444 576 l 571 576 l 571 983 l 769 983 l 769 576 l 897 576 l 1114 983 l 1338 983 l 1061 507 l 1338 0 l 1104 0 l 901 396 l 769 396 l 769 0 l 571 0 l 571 396 l 440 396 l 236 0 l 4 0 m 671 1063 q 535 1087 593 1063 q 444 1160 476 1111 q 407 1283 411 1210 l 569 1283 q 600 1219 571 1240 q 674 1197 629 1197 q 745 1219 718 1197 q 774 1283 772 1240 l 936 1283 q 899 1160 933 1210 q 808 1087 865 1111 q 671 1063 750 1063 z "},"а":{"ha":789,"x_min":51,"x_max":714,"o":"m 300 -10 q 208 3 253 -10 q 128 44 164 17 q 72 114 93 72 q 51 211 51 156 q 82 331 51 286 q 164 400 113 376 q 283 432 215 424 q 422 440 350 440 l 528 440 q 513 512 528 481 q 469 560 499 543 q 394 578 440 578 q 338 570 365 578 q 293 549 311 563 q 269 513 275 535 l 72 513 q 111 617 81 574 q 188 689 142 661 q 288 730 233 717 q 401 743 343 743 q 577 703 508 743 q 680 585 646 663 q 714 394 714 507 l 714 0 l 539 0 l 536 86 q 466 27 504 49 q 386 -2 428 6 q 300 -10 344 -10 m 353 144 q 443 165 403 144 q 506 219 483 185 q 529 294 529 253 l 529 310 l 396 310 q 338 307 365 310 q 290 297 311 304 q 256 273 268 289 q 244 231 244 257 q 259 182 244 201 q 299 153 274 163 q 353 144 324 144 z "},"б":{"ha":842,"x_min":56,"x_max":793,"o":"m 429 -10 q 290 13 351 -10 q 185 76 229 35 q 112 173 140 117 q 69 295 83 229 q 56 433 56 361 q 67 623 56 538 q 106 775 78 708 q 185 888 133 842 q 318 960 236 933 q 432 990 371 979 q 563 1008 493 1000 q 660 1022 625 1017 q 717 1030 696 1026 q 756 1036 739 1033 l 756 838 q 727 832 743 835 q 694 826 711 829 q 660 822 678 824 q 624 820 642 821 q 589 817 606 819 q 469 806 531 813 q 356 781 407 799 q 275 722 306 764 q 253 682 264 706 q 238 631 243 658 q 231 572 232 603 q 306 646 263 619 q 396 683 350 672 q 481 693 442 693 q 653 649 583 693 q 758 527 722 604 q 793 354 793 450 q 748 163 793 244 q 621 35 703 81 q 429 -10 539 -10 m 429 163 q 524 188 486 163 q 580 256 561 214 q 599 343 599 297 q 580 428 599 389 q 524 490 561 467 q 432 514 488 514 q 339 490 378 514 q 280 427 300 467 q 260 342 260 388 q 278 256 260 297 q 335 188 297 214 q 429 163 372 163 z "},"в":{"ha":785,"x_min":76,"x_max":732,"o":"m 76 0 l 76 732 l 433 732 q 527 725 481 732 q 613 699 574 718 q 677 641 653 679 q 701 540 701 603 q 691 479 701 507 q 663 430 681 451 q 622 396 644 408 q 705 333 678 375 q 732 226 732 290 q 706 119 732 163 q 639 50 681 76 q 549 12 597 24 q 454 0 500 0 l 76 0 m 272 168 l 438 168 q 490 176 467 168 q 527 199 514 183 q 540 239 540 214 q 531 276 540 263 q 504 297 521 289 q 467 307 488 304 q 422 310 446 310 l 272 310 l 272 168 m 272 438 l 394 438 q 437 441 415 438 q 476 453 458 444 q 505 474 494 461 q 515 508 515 488 q 501 551 515 538 q 463 567 486 564 q 413 571 439 571 l 272 571 l 272 438 z "},"г":{"ha":624,"x_min":76,"x_max":604,"o":"m 76 0 l 76 732 l 604 732 l 604 558 l 271 558 l 271 0 l 76 0 z "},"ґ":{"ha":642,"x_min":76,"x_max":622,"o":"m 76 0 l 76 732 l 431 732 l 431 933 l 622 933 l 622 558 l 271 558 l 271 0 l 76 0 z "},"д":{"ha":865,"x_min":19,"x_max":846,"o":"m 19 -206 l 19 174 q 76 191 53 174 q 113 238 99 208 q 137 303 128 267 q 151 379 146 340 q 162 508 160 442 q 164 628 164 574 q 164 680 164 654 q 164 732 164 706 l 754 732 l 754 174 l 846 174 l 846 -206 l 654 -206 l 654 0 l 213 0 l 213 -206 l 19 -206 m 286 174 l 560 174 l 560 558 l 338 558 q 336 460 338 513 q 331 358 335 407 q 324 297 328 329 q 311 233 319 265 q 286 174 303 201 z "},"е":{"ha":799,"x_min":49,"x_max":751,"o":"m 411 -10 q 215 36 296 -10 q 92 166 135 82 q 49 363 49 250 q 93 562 49 476 q 219 696 138 647 q 411 744 300 744 q 556 717 493 744 q 663 640 619 689 q 729 524 707 590 q 750 381 751 458 q 748 343 749 361 q 743 307 747 325 l 242 307 q 265 231 246 265 q 320 176 285 196 q 408 156 356 156 q 472 163 443 156 q 522 188 501 171 q 551 226 543 204 l 743 226 q 676 92 725 144 q 557 15 626 39 q 411 -10 488 -10 m 246 443 l 564 443 q 545 513 563 481 q 494 566 528 546 q 407 586 460 586 q 319 565 354 586 q 266 512 283 544 q 246 443 249 479 z "},"ё":{"ha":799,"x_min":49,"x_max":751,"o":"m 411 -10 q 215 36 296 -10 q 92 166 135 82 q 49 363 49 250 q 93 562 49 476 q 219 696 138 647 q 411 744 300 744 q 556 717 493 744 q 663 640 619 689 q 729 524 707 590 q 750 381 751 458 q 748 343 749 361 q 743 307 747 325 l 242 307 q 265 231 246 265 q 320 176 285 196 q 408 156 356 156 q 472 163 443 156 q 522 188 501 171 q 551 226 543 204 l 743 226 q 676 92 725 144 q 557 15 626 39 q 411 -10 488 -10 m 246 443 l 564 443 q 545 513 563 481 q 494 566 528 546 q 407 586 460 586 q 319 565 354 586 q 266 512 283 544 q 246 443 249 479 m 569 810 q 491 838 524 810 q 458 917 458 865 q 492 999 458 969 q 569 1028 526 1028 q 647 999 615 1028 q 679 918 679 971 q 647 838 679 865 q 569 810 615 810 m 229 810 q 151 838 185 810 q 118 917 118 865 q 151 999 118 969 q 229 1028 185 1028 q 307 999 274 1028 q 340 917 340 971 q 308 838 340 865 q 229 810 275 810 z "},"ж":{"ha":1138,"x_min":8,"x_max":1131,"o":"m 8 0 l 210 383 l 19 732 l 222 732 l 369 450 l 471 450 l 471 732 l 665 732 l 665 450 l 769 450 l 913 732 l 1118 732 l 925 383 l 1131 0 l 911 0 l 775 278 l 665 278 l 665 0 l 471 0 l 471 278 l 363 278 l 225 0 l 8 0 z "},"з":{"ha":738,"x_min":35,"x_max":694,"o":"m 378 -10 q 261 3 319 -10 q 153 44 203 15 q 72 119 104 72 q 35 236 40 167 l 224 236 q 253 189 229 207 q 310 163 276 171 q 376 156 343 156 q 438 162 407 156 q 488 185 468 168 q 507 235 507 203 q 494 274 507 260 q 460 293 482 288 q 408 299 439 299 l 281 299 l 281 442 l 381 442 q 425 446 406 442 q 458 458 444 450 q 479 479 472 467 q 486 510 486 492 q 470 552 486 536 q 429 574 454 568 q 374 581 404 581 q 312 573 343 581 q 259 549 281 565 q 232 503 238 532 l 47 503 q 108 649 58 597 q 229 723 158 701 q 375 744 300 744 q 479 735 428 744 q 574 701 531 725 q 644 638 618 678 q 671 538 671 597 q 652 458 671 496 q 596 399 633 419 q 672 328 650 374 q 694 229 694 283 q 667 117 694 163 q 593 44 639 72 q 491 3 547 15 q 378 -10 435 -10 z "},"и":{"ha":850,"x_min":76,"x_max":774,"o":"m 76 0 l 76 732 l 271 732 l 271 299 q 292 327 281 313 q 311 353 303 342 l 604 732 l 774 732 l 774 0 l 578 0 l 578 425 q 556 395 568 410 q 533 367 544 381 l 251 0 l 76 0 z "},"й":{"ha":850,"x_min":76,"x_max":774,"o":"m 76 0 l 76 732 l 271 732 l 271 299 q 292 327 281 313 q 311 353 303 342 l 604 732 l 774 732 l 774 0 l 578 0 l 578 425 q 556 395 568 410 q 533 367 544 381 l 251 0 l 76 0 m 438 794 q 246 852 315 794 q 175 1028 176 910 l 336 1028 q 366 953 338 974 q 439 932 394 932 q 513 953 486 932 q 542 1028 540 974 l 703 1028 q 671 898 703 950 q 580 820 639 846 q 438 794 521 794 z "},"к":{"ha":793,"x_min":76,"x_max":782,"o":"m 76 0 l 76 732 l 271 732 l 271 451 l 382 451 l 561 732 l 781 732 l 551 388 l 782 0 l 558 0 l 393 278 l 271 278 l 271 0 l 76 0 z "},"л":{"ha":799,"x_min":17,"x_max":721,"o":"m 17 -1 l 17 176 q 70 192 49 176 q 107 235 92 208 q 131 310 124 265 q 140 397 138 354 q 147 521 144 457 q 149 640 149 585 q 150 732 150 696 l 721 732 l 721 0 l 528 0 l 528 558 l 328 558 q 326 460 328 514 q 321 353 325 407 q 310 251 317 300 q 285 148 301 197 q 238 63 269 99 q 153 12 204 25 q 17 -1 101 -1 z "},"м":{"ha":1011,"x_min":76,"x_max":935,"o":"m 76 0 l 76 732 l 308 732 l 508 415 l 707 732 l 935 732 l 935 0 l 742 0 l 742 474 l 535 149 l 479 149 l 271 475 l 271 0 l 76 0 z "},"н":{"ha":818,"x_min":76,"x_max":742,"o":"m 76 0 l 76 732 l 271 732 l 271 450 l 547 450 l 547 732 l 742 732 l 742 0 l 547 0 l 547 276 l 271 276 l 271 0 l 76 0 z "},"о":{"ha":832,"x_min":49,"x_max":783,"o":"m 418 -10 q 224 35 307 -10 q 94 165 140 81 q 49 364 49 249 q 95 567 49 482 q 224 699 142 653 q 417 744 307 744 q 610 697 528 744 q 738 565 692 650 q 783 363 783 481 q 738 163 783 247 q 612 35 693 79 q 418 -10 531 -10 m 415 168 q 519 196 481 168 q 574 268 557 224 q 592 363 592 313 q 574 459 592 413 q 519 535 557 506 q 415 565 481 565 q 314 535 353 565 q 258 460 275 506 q 240 363 240 414 q 258 268 240 313 q 314 196 275 224 q 415 168 353 168 z "},"п":{"ha":817,"x_min":76,"x_max":740,"o":"m 76 0 l 76 732 l 740 732 l 740 0 l 547 0 l 547 558 l 271 558 l 271 0 l 76 0 z "},"р":{"ha":861,"x_min":76,"x_max":818,"o":"m 76 -274 l 76 732 l 258 732 l 268 639 q 374 720 313 697 q 503 743 435 743 q 676 693 607 743 q 782 558 746 643 q 818 365 818 472 q 782 173 818 258 q 672 39 746 88 q 486 -10 599 -10 q 394 1 435 -10 q 323 32 353 13 q 271 72 293 51 l 271 -274 l 76 -274 m 454 165 q 557 194 519 165 q 610 269 594 224 q 625 363 625 314 q 608 463 625 415 q 553 538 592 510 q 450 567 515 567 q 351 538 392 567 q 290 464 311 510 q 269 365 269 418 q 290 267 269 313 q 351 193 310 221 q 454 165 392 165 z "},"с":{"ha":781,"x_min":49,"x_max":739,"o":"m 404 -10 q 212 36 292 -10 q 90 166 132 82 q 49 364 49 250 q 92 565 49 479 q 216 697 135 650 q 413 744 297 744 q 571 713 501 744 q 683 621 640 681 q 732 474 725 561 l 542 474 q 494 544 529 522 q 410 567 458 567 q 308 536 344 567 q 257 458 272 506 q 242 365 242 411 q 258 268 242 314 q 312 194 275 222 q 408 165 349 165 q 496 188 458 165 q 544 260 533 211 l 739 260 q 685 110 732 169 q 565 20 638 50 q 404 -10 492 -10 z "},"т":{"ha":694,"x_min":11,"x_max":683,"o":"m 250 0 l 250 558 l 11 558 l 11 732 l 683 732 l 683 558 l 443 558 l 443 0 l 250 0 z "},"у":{"ha":792,"x_min":11,"x_max":792,"o":"m 111 -335 l 111 -136 q 208 -126 169 -136 q 271 -94 246 -117 q 318 -31 296 -71 l 11 732 l 236 732 l 429 188 l 581 732 l 792 732 l 597 103 q 560 -8 582 47 q 513 -115 539 -64 q 453 -208 488 -167 q 376 -276 419 -250 q 307 -312 342 -300 q 226 -330 272 -325 q 111 -335 181 -335 z "},"ў":{"ha":804,"x_min":14,"x_max":797,"o":"m 117 -335 l 117 -136 l 132 -136 q 217 -126 182 -136 q 277 -92 251 -115 q 324 -31 303 -68 l 14 732 l 239 732 l 435 188 l 585 732 l 797 732 l 604 103 q 569 -3 589 50 q 525 -105 550 -56 q 469 -196 500 -154 q 401 -265 439 -237 q 293 -319 351 -304 q 161 -335 235 -335 l 117 -335 m 415 793 q 224 851 293 793 q 153 1026 154 910 l 315 1026 q 344 952 315 974 q 417 931 372 931 q 491 952 464 931 q 519 1026 518 974 l 682 1026 q 649 897 681 950 q 558 819 617 844 q 415 793 499 793 z "},"ф":{"ha":1074,"x_min":43,"x_max":1031,"o":"m 439 -268 l 439 -7 q 281 21 353 -3 q 155 90 208 44 q 72 205 101 136 q 43 367 43 274 q 94 575 43 492 q 234 700 144 658 q 439 742 324 742 l 439 967 l 633 967 l 633 742 q 843 699 754 742 q 981 573 932 657 q 1031 361 1031 489 q 979 159 1031 239 q 838 39 928 79 q 633 -7 749 -1 l 633 -268 l 439 -268 m 439 164 l 439 568 q 288 512 339 568 q 238 367 238 456 q 260 261 238 307 q 328 190 283 215 q 439 164 374 165 m 633 164 q 746 190 701 165 q 813 261 790 215 q 836 367 836 307 q 785 512 836 456 q 633 568 735 568 l 633 164 z "},"х":{"ha":778,"x_min":8,"x_max":769,"o":"m 8 0 l 264 374 l 21 732 l 247 732 l 392 501 l 533 732 l 753 732 l 508 369 l 769 0 l 543 0 l 383 240 l 225 0 l 8 0 z "},"ч":{"ha":758,"x_min":44,"x_max":682,"o":"m 488 0 l 488 246 q 399 239 432 240 q 340 238 367 238 q 169 270 235 238 q 74 372 104 303 q 44 544 44 440 l 44 732 l 239 732 l 239 551 q 247 478 239 510 q 283 430 256 447 q 369 413 311 413 q 426 415 394 413 q 488 422 457 418 l 488 732 l 682 732 l 682 0 l 488 0 z "},"ц":{"ha":847,"x_min":76,"x_max":832,"o":"m 638 -206 l 638 0 l 76 0 l 76 732 l 271 732 l 271 174 l 542 174 l 542 732 l 738 732 l 738 174 l 832 174 l 832 -206 l 638 -206 z "},"ш":{"ha":1158,"x_min":76,"x_max":1082,"o":"m 76 0 l 76 732 l 271 732 l 271 174 l 481 174 l 481 732 l 675 732 l 675 174 l 888 174 l 888 732 l 1082 732 l 1082 0 l 76 0 z "},"щ":{"ha":1190,"x_min":76,"x_max":1176,"o":"m 983 -206 l 983 0 l 76 0 l 76 732 l 271 732 l 271 174 l 481 174 l 481 732 l 675 732 l 675 174 l 886 174 l 886 732 l 1081 732 l 1081 174 l 1176 174 l 1176 -206 l 983 -206 z "},"ь":{"ha":760,"x_min":76,"x_max":715,"o":"m 76 0 l 76 732 l 272 732 l 272 497 l 421 497 q 538 485 485 497 q 631 447 592 474 q 693 374 671 419 q 715 258 715 328 q 690 139 715 188 q 620 60 664 90 q 519 15 576 29 q 400 0 463 0 l 76 0 m 272 171 l 369 171 q 429 174 401 171 q 478 185 457 176 q 510 210 499 194 q 522 254 522 226 q 513 294 522 279 q 485 318 503 310 q 447 330 468 326 q 400 333 425 333 l 272 333 l 272 171 z "},"ы":{"ha":1035,"x_min":76,"x_max":957,"o":"m 76 0 l 76 732 l 272 732 l 272 497 l 381 497 q 497 486 443 497 q 590 448 550 475 q 653 374 631 421 q 675 256 675 328 q 649 137 675 186 q 579 58 624 88 q 478 14 535 28 q 361 0 422 0 l 76 0 m 272 171 l 329 171 q 390 174 363 171 q 438 185 417 176 q 471 209 460 193 q 482 251 482 225 q 472 294 482 278 q 446 318 463 310 q 408 330 429 326 q 363 333 386 333 l 272 333 l 272 171 m 764 0 l 764 732 l 957 732 l 957 0 l 764 0 z "},"ъ":{"ha":825,"x_min":3,"x_max":786,"o":"m 158 0 l 158 558 l 3 558 l 3 732 l 354 732 l 354 497 l 490 497 q 607 485 553 497 q 701 447 661 474 q 764 373 742 419 q 786 257 786 326 q 760 136 786 186 q 689 57 733 86 q 587 14 644 28 q 467 0 529 0 l 158 0 m 354 171 l 436 171 q 499 174 469 171 q 549 185 528 176 q 581 210 569 193 q 592 257 592 228 q 583 294 592 279 q 559 317 575 308 q 521 329 543 325 q 474 333 499 333 l 354 333 l 354 171 z "},"ѕ":{"ha":713,"x_min":38,"x_max":675,"o":"m 363 -10 q 257 1 311 -10 q 157 40 203 13 q 79 113 111 67 q 38 229 47 160 l 235 229 q 265 186 243 204 q 315 160 286 168 q 372 151 343 151 q 411 154 392 151 q 447 165 431 157 q 474 187 464 174 q 483 221 483 200 q 469 256 483 243 q 431 276 456 268 q 374 292 406 285 q 251 318 317 303 q 139 363 186 333 q 104 393 119 376 q 79 431 89 410 q 64 474 69 451 q 58 524 58 497 q 85 626 58 585 q 154 694 111 668 q 250 733 197 721 q 357 744 303 744 q 496 720 432 744 q 601 645 560 696 q 653 514 643 594 l 467 514 q 429 563 461 544 q 350 582 397 582 q 315 579 333 582 q 281 569 296 576 q 256 551 265 563 q 246 519 246 539 q 255 492 246 504 q 281 471 264 479 q 324 456 299 463 q 419 435 371 444 q 504 417 467 426 q 588 385 550 407 q 651 324 626 363 q 675 225 675 286 q 647 110 675 156 q 573 39 619 65 q 472 1 526 13 q 363 -10 417 -10 z "},"є":{"ha":771,"x_min":43,"x_max":732,"o":"m 396 -12 q 202 33 281 -12 q 83 163 124 79 q 43 360 43 246 q 85 562 43 476 q 206 694 126 647 q 399 742 286 742 q 614 678 524 742 q 729 494 704 615 l 538 494 q 503 543 526 525 q 451 568 481 561 q 393 575 422 575 q 313 558 347 575 q 258 512 278 542 q 236 440 239 482 l 497 440 l 497 283 l 235 283 q 260 213 238 242 q 320 168 283 183 q 400 151 357 153 q 456 158 428 151 q 508 182 485 165 q 542 229 531 199 l 732 229 q 667 94 715 149 q 548 14 618 40 q 396 -12 478 -12 z "},"э":{"ha":772,"x_min":38,"x_max":728,"o":"m 381 -12 q 230 13 301 -12 q 107 91 158 38 q 38 229 56 144 l 231 229 q 266 185 243 201 q 319 160 289 168 q 381 151 349 151 q 467 171 433 151 q 519 220 501 190 q 538 283 536 250 l 276 283 l 276 440 l 536 440 q 513 508 532 478 q 462 557 494 539 q 382 575 429 575 q 319 566 349 575 q 267 539 289 557 q 235 494 244 521 l 40 494 q 108 631 57 576 q 231 714 158 686 q 388 742 304 742 q 575 696 499 742 q 690 565 651 650 q 728 364 728 481 q 688 164 728 249 q 572 33 649 79 q 381 -12 496 -12 z "},"і":{"ha":372,"x_min":65,"x_max":307,"o":"m 90 0 l 90 732 l 285 732 l 285 0 l 90 0 m 186 810 q 101 840 138 810 q 65 925 65 869 q 83 991 65 964 q 129 1033 101 1018 q 189 1047 157 1047 q 272 1015 236 1047 q 307 928 307 983 q 271 841 307 872 q 186 810 235 810 z "},"ї":{"ha":349,"x_min":-72,"x_max":422,"o":"m 76 0 l 76 732 l 271 732 l 271 0 l 76 0 m 36 818 q -40 845 -8 818 q -72 924 -72 872 q -40 1003 -72 975 q 36 1032 -7 1032 q 113 1003 79 1032 q 146 924 146 975 q 113 845 146 872 q 36 818 81 818 m 315 818 q 238 845 271 818 q 204 924 204 872 q 238 1003 204 975 q 315 1032 271 1032 q 390 1003 358 1032 q 422 925 422 975 q 391 845 422 872 q 315 818 360 818 z "},"ј":{"ha":372,"x_min":-61,"x_max":306,"o":"m -61 -283 l -61 -110 l -7 -110 q 56 -94 36 -110 q 82 -56 76 -79 q 88 -7 88 -32 l 88 732 l 282 732 l 282 -35 q 258 -174 282 -118 q 183 -256 235 -229 q 42 -283 131 -283 l -61 -283 m 185 810 q 100 840 136 810 q 64 925 64 869 q 82 991 64 964 q 128 1033 100 1018 q 188 1047 157 1047 q 271 1015 236 1047 q 306 926 306 983 q 270 840 306 869 q 185 810 235 810 z "},"ю":{"ha":1135,"x_min":76,"x_max":1092,"o":"m 733 -10 q 492 69 583 -10 q 382 279 401 147 l 271 279 l 271 0 l 76 0 l 76 732 l 271 732 l 271 453 l 382 453 q 440 604 396 539 q 558 707 485 669 q 732 744 632 744 q 923 699 842 744 q 1048 567 1004 653 q 1092 364 1092 482 q 1050 167 1092 251 q 928 36 1008 82 q 733 -10 847 -10 m 729 165 q 830 194 793 165 q 883 270 867 224 q 900 367 900 317 q 883 463 900 417 q 830 538 867 510 q 729 567 793 567 q 630 539 668 567 q 575 465 592 511 q 558 367 558 418 q 575 268 558 314 q 630 194 592 222 q 729 165 668 165 z "},"я":{"ha":794,"x_min":31,"x_max":717,"o":"m 31 0 l 229 274 q 115 351 160 294 q 71 486 71 407 q 94 608 71 560 q 160 683 118 656 q 257 721 203 710 q 372 732 311 732 l 717 732 l 717 0 l 524 0 l 524 236 l 414 236 l 260 0 l 31 0 m 417 396 l 524 396 l 524 565 l 382 565 q 333 561 354 565 q 296 547 311 557 q 272 522 281 538 q 264 483 264 506 q 278 437 264 454 q 315 411 293 419 q 365 399 338 403 q 417 396 392 396 z "},"ӂ":{"ha":1135,"x_min":3,"x_max":1133,"o":"m 3 0 l 213 383 l 14 732 l 218 732 l 372 450 l 471 450 l 471 732 l 665 732 l 665 450 l 764 450 l 915 732 l 1121 732 l 922 383 l 1133 0 l 915 0 l 771 278 l 665 278 l 665 0 l 471 0 l 471 278 l 365 278 l 219 0 l 3 0 m 567 801 q 431 825 490 801 q 338 897 371 849 q 301 1024 304 946 l 464 1024 q 480 975 467 994 q 516 946 493 956 q 568 936 539 936 q 621 946 599 936 q 656 975 643 956 q 669 1024 669 994 l 832 1024 q 797 897 831 946 q 704 825 763 849 q 567 801 646 801 z "},"²":{"ha":531,"x_min":75,"x_max":456,"o":"m 79 501 l 79 610 l 231 735 q 267 767 246 749 q 306 807 289 786 q 322 851 322 828 q 306 892 322 878 q 261 906 289 906 q 219 892 235 906 q 203 851 204 878 l 75 851 q 131 988 76 942 q 269 1035 186 1035 q 403 991 351 1035 q 456 868 456 947 q 431 774 456 814 q 371 700 407 733 q 328 663 350 681 q 286 628 307 646 l 451 628 l 451 501 l 79 501 z "},"³":{"ha":571,"x_min":75,"x_max":494,"o":"m 289 496 q 185 516 232 496 q 109 576 138 536 q 75 675 81 615 l 210 675 q 236 635 214 647 q 288 624 258 624 q 335 633 313 624 q 357 672 357 643 q 341 705 357 694 q 307 715 325 715 l 233 715 l 233 822 l 285 822 q 310 827 297 822 q 331 842 322 832 q 339 867 339 851 q 322 899 339 889 q 283 908 306 908 q 242 897 258 908 q 222 863 225 885 l 89 863 q 149 993 94 951 q 289 1035 204 1035 q 380 1021 338 1035 q 449 976 422 1007 q 476 893 476 944 q 463 832 476 861 q 422 788 449 803 q 478 736 463 771 q 494 661 494 701 q 464 568 494 604 q 387 514 433 532 q 289 496 340 496 z "}," ":{"ha":392,"x_min":0,"x_max":0,"o":""}," ":{"ha":392,"x_min":0,"x_max":0,"o":""}," ":{"ha":178,"x_min":0,"x_max":0,"o":""}," ":{"ha":178,"x_min":0,"x_max":0,"o":""},"\r":{"ha":606,"x_min":0,"x_max":0,"o":""},".":{"ha":390,"x_min":76,"x_max":314,"o":"m 196 -18 q 111 13 146 -18 q 76 100 76 43 q 112 192 76 158 q 196 225 147 225 q 279 192 244 225 q 314 101 314 160 q 279 13 314 43 q 196 -18 244 -18 z "},",":{"ha":418,"x_min":76,"x_max":342,"o":"m 132 -212 l 76 -128 q 123 -96 97 -117 q 169 -51 149 -75 q 197 -6 190 -26 q 124 26 156 -3 q 92 107 92 56 q 130 194 93 164 q 214 224 167 224 q 308 180 275 224 q 342 65 342 136 q 311 -57 342 0 q 233 -154 281 -114 q 132 -212 186 -194 z "},":":{"ha":394,"x_min":76,"x_max":318,"o":"m 197 460 q 113 490 149 460 q 76 578 76 521 q 94 645 76 618 q 139 688 111 672 q 199 703 167 703 q 283 670 249 703 q 318 579 318 638 q 282 491 318 522 q 197 460 246 460 m 197 -12 q 113 19 149 -12 q 76 107 76 50 q 94 174 76 146 q 139 217 111 201 q 199 232 167 232 q 283 199 249 232 q 318 108 318 165 q 282 19 318 51 q 197 -12 246 -12 z "},";":{"ha":418,"x_min":76,"x_max":342,"o":"m 132 -214 l 76 -128 q 123 -97 97 -117 q 169 -51 149 -76 q 197 -7 190 -26 q 124 26 156 -3 q 93 107 93 54 q 130 194 93 164 q 215 224 167 225 q 310 177 278 224 q 340 64 342 131 q 310 -58 340 -1 q 233 -156 279 -115 q 132 -214 186 -196 m 217 460 q 131 490 167 460 q 96 578 96 521 q 113 645 96 618 q 158 688 131 672 q 218 703 186 703 q 302 670 267 703 q 338 579 338 638 q 301 491 338 522 q 217 460 265 460 z "},"…":{"ha":1057,"x_min":63,"x_max":994,"o":"m 874 -12 q 789 19 825 -12 q 753 107 753 50 q 770 174 753 146 q 815 217 788 201 q 875 232 843 232 q 959 199 924 232 q 994 108 994 165 q 958 19 994 51 q 874 -12 922 -12 m 183 -12 q 99 19 135 -12 q 63 107 63 50 q 80 174 63 146 q 125 217 97 201 q 185 232 153 232 q 269 199 233 232 q 304 108 304 165 q 268 19 304 51 q 183 -12 232 -12 m 531 -12 q 446 19 482 -12 q 410 107 410 50 q 427 174 410 146 q 473 217 444 201 q 533 232 501 232 q 616 199 581 232 q 651 108 651 165 q 616 19 651 51 q 531 -12 581 -12 z "},"!":{"ha":422,"x_min":90,"x_max":332,"o":"m 121 333 l 106 983 l 319 983 l 303 333 l 121 333 m 211 -12 q 154 1 182 -12 q 108 42 126 15 q 90 107 90 68 q 108 174 90 147 q 153 213 125 200 q 213 226 181 226 q 295 196 258 226 q 332 107 332 165 q 315 42 332 68 q 269 1 297 15 q 211 -12 242 -12 z "},"¡":{"ha":422,"x_min":90,"x_max":332,"o":"m 104 -250 l 121 399 l 301 399 l 318 -250 l 104 -250 m 210 506 q 124 538 157 506 q 90 624 90 571 q 125 711 90 678 q 213 744 160 744 q 297 712 263 744 q 332 625 332 679 q 297 538 332 571 q 210 506 263 506 z "},"?":{"ha":736,"x_min":35,"x_max":676,"o":"m 253 322 q 251 340 251 331 q 250 360 250 350 q 264 436 250 403 q 301 497 278 469 q 349 547 324 524 q 400 593 375 571 q 440 633 422 613 q 468 674 457 653 q 479 718 479 696 q 465 769 479 747 q 424 801 450 790 q 360 813 399 813 q 293 801 322 813 q 247 767 264 789 q 226 713 231 744 l 35 713 q 65 846 38 792 q 139 933 93 900 q 242 980 185 965 q 361 994 300 994 q 514 967 442 994 q 631 883 586 940 q 676 732 676 826 q 660 643 676 682 q 614 569 643 604 q 547 499 585 535 q 500 453 524 475 q 460 406 476 431 q 439 343 443 381 q 438 333 439 339 q 438 322 438 328 l 253 322 m 346 -12 q 262 19 299 -12 q 225 111 225 50 q 262 199 225 169 q 346 229 299 229 q 431 199 394 229 q 467 111 467 169 q 431 19 467 50 q 346 -12 394 -12 z "},"¿":{"ha":736,"x_min":60,"x_max":701,"o":"m 483 411 q 486 392 486 401 q 486 374 486 382 q 472 297 486 331 q 435 237 458 264 q 387 186 413 210 q 336 139 361 163 q 297 100 315 119 q 268 59 279 81 q 257 15 257 38 q 272 -35 257 -14 q 313 -68 286 -57 q 376 -79 339 -79 q 444 -67 415 -79 q 489 -33 472 -56 q 510 19 506 -11 l 701 19 q 671 -112 699 -58 q 597 -199 643 -167 q 494 -247 551 -232 q 375 -261 436 -261 q 223 -235 296 -261 q 105 -150 150 -208 q 60 1 60 -92 q 76 90 60 51 q 122 164 93 129 q 189 235 151 199 q 236 280 213 258 q 276 328 260 301 q 297 389 293 354 q 298 400 297 394 q 299 411 299 406 l 483 411 m 390 744 q 474 714 438 744 q 511 622 511 683 q 474 533 511 563 q 390 503 438 503 q 306 533 342 503 q 269 622 269 563 q 306 714 269 683 q 390 744 342 744 z "},"·":{"ha":394,"x_min":76,"x_max":318,"o":"m 197 378 q 110 410 143 378 q 76 496 76 443 q 111 582 76 549 q 199 615 146 615 q 283 583 249 615 q 318 496 318 551 q 285 410 318 443 q 197 378 251 378 z "},"•":{"ha":503,"x_min":65,"x_max":438,"o":"m 253 321 q 159 343 201 321 q 91 407 117 365 q 65 504 65 449 q 119 640 65 590 q 251 690 172 690 q 347 667 304 690 q 413 603 389 644 q 438 504 438 561 q 385 372 438 422 q 253 321 332 321 z "},"*":{"ha":643,"x_min":79,"x_max":564,"o":"m 253 550 l 121 647 l 215 749 l 79 776 l 129 932 l 256 874 l 239 1011 l 404 1011 l 388 874 l 513 932 l 564 776 l 428 749 l 521 647 l 389 550 l 322 671 l 253 550 z "},"#":{"ha":946,"x_min":65,"x_max":881,"o":"m 164 0 l 193 231 l 65 231 l 65 406 l 213 406 l 233 576 l 104 576 l 104 750 l 254 750 l 282 983 l 447 983 l 421 750 l 588 750 l 615 983 l 782 983 l 753 750 l 881 750 l 881 576 l 732 576 l 713 406 l 842 406 l 842 231 l 693 231 l 664 0 l 500 0 l 526 231 l 360 231 l 333 0 l 164 0 m 379 406 l 547 406 l 567 576 l 399 576 l 379 406 z "},"/":{"ha":711,"x_min":38,"x_max":674,"o":"m 38 -226 l 479 1094 l 674 1094 l 232 -226 l 38 -226 z "},"\\":{"ha":711,"x_min":38,"x_max":674,"o":"m 478 -226 l 38 1094 l 231 1094 l 674 -226 l 478 -226 z "},"-":{"ha":646,"x_min":86,"x_max":560,"o":"m 86 315 l 86 490 l 560 490 l 560 315 l 86 315 z "},"–":{"ha":851,"x_min":86,"x_max":765,"o":"m 86 315 l 86 490 l 765 490 l 765 315 l 86 315 z "},"—":{"ha":1133,"x_min":86,"x_max":1047,"o":"m 86 315 l 86 490 l 1047 490 l 1047 315 l 86 315 z "},"_":{"ha":617,"x_min":-21,"x_max":638,"o":"m -21 -231 l -21 -60 l 638 -60 l 638 -231 l -21 -231 z "},"(":{"ha":492,"x_min":74,"x_max":550,"o":"m 313 -269 q 180 -53 233 -169 q 100 185 126 63 q 74 426 74 307 q 101 668 74 546 q 181 907 128 790 q 314 1124 235 1024 l 550 1124 q 391 899 453 1015 q 299 664 329 783 q 269 426 269 544 q 300 189 269 308 q 392 -46 331 69 q 549 -269 454 -161 l 313 -269 z "},")":{"ha":492,"x_min":-57,"x_max":418,"o":"m 179 -269 l -57 -269 q 101 -46 39 -161 q 192 189 163 69 q 222 426 222 308 q 193 664 222 544 q 101 899 164 783 q -57 1124 39 1015 l 178 1124 q 312 907 258 1024 q 392 668 365 790 q 418 426 418 546 q 392 185 418 307 q 313 -53 365 63 q 179 -269 260 -169 z "},"{":{"ha":560,"x_min":35,"x_max":494,"o":"m 351 -236 q 213 -197 267 -236 q 160 -58 160 -158 l 160 222 q 149 292 160 265 q 113 331 139 318 q 35 343 86 343 l 35 510 q 113 522 86 510 q 149 560 139 533 q 160 632 160 588 l 160 911 q 213 1050 160 1011 q 351 1089 267 1089 l 494 1089 l 494 918 l 401 918 q 361 907 372 918 q 349 878 350 896 q 347 840 347 860 l 347 597 q 331 496 347 539 q 276 426 315 453 q 318 383 303 408 q 340 326 333 358 q 347 256 347 294 l 347 13 q 349 -25 347 -7 q 361 -54 350 -43 q 401 -65 372 -65 l 494 -65 l 494 -236 l 351 -236 z "},"}":{"ha":560,"x_min":67,"x_max":526,"o":"m 210 -236 l 67 -236 l 67 -65 l 160 -65 q 201 -54 190 -65 q 213 -25 211 -43 q 214 13 214 -7 l 214 256 q 221 326 214 294 q 244 383 228 358 q 285 426 260 408 q 230 496 246 453 q 214 597 214 539 l 214 840 q 213 878 214 860 q 201 907 211 896 q 160 918 190 918 l 67 918 l 67 1089 l 210 1089 q 348 1050 294 1089 q 401 911 401 1011 l 401 632 q 412 560 401 588 q 449 522 422 533 q 526 510 476 510 l 526 343 q 449 331 476 343 q 412 292 422 318 q 401 222 401 265 l 401 -58 q 348 -197 401 -158 q 210 -236 294 -236 z "},"[":{"ha":490,"x_min":104,"x_max":458,"o":"m 104 -236 l 104 1089 l 458 1089 l 458 918 l 293 918 l 293 -67 l 458 -67 l 458 -236 l 104 -236 z "},"]":{"ha":490,"x_min":32,"x_max":386,"o":"m 32 -236 l 32 -67 l 199 -67 l 199 918 l 32 918 l 32 1089 l 386 1089 l 386 -236 l 32 -236 z "},"‚":{"ha":410,"x_min":76,"x_max":332,"o":"m 131 -214 l 76 -131 q 122 -101 97 -121 q 167 -56 146 -81 q 193 -14 188 -32 q 122 19 153 -10 q 92 97 92 47 q 128 181 92 153 q 211 210 164 210 q 302 165 272 210 q 332 61 332 119 q 303 -60 332 -4 q 228 -156 274 -117 q 131 -214 182 -196 z "},"„":{"ha":728,"x_min":76,"x_max":650,"o":"m 450 -214 l 396 -131 q 440 -101 415 -121 q 486 -56 465 -81 q 513 -14 507 -32 q 442 19 472 -10 q 411 97 411 47 q 447 181 411 153 q 531 210 482 210 q 620 165 590 210 q 650 57 650 119 q 622 -62 650 -7 q 547 -157 593 -118 q 450 -214 500 -196 m 131 -214 l 76 -131 q 122 -101 97 -121 q 167 -56 146 -81 q 193 -14 188 -32 q 122 19 153 -10 q 92 97 92 47 q 128 181 92 153 q 211 210 164 210 q 301 165 271 210 q 332 57 332 119 q 302 -62 332 -7 q 227 -157 272 -118 q 131 -214 182 -196 z "},"“":{"ha":728,"x_min":78,"x_max":651,"o":"m 519 638 q 427 683 457 639 q 397 788 397 728 q 426 910 397 854 q 501 1005 456 965 q 597 1061 547 1044 l 651 979 q 608 949 633 969 q 563 905 583 928 q 535 861 542 882 q 585 845 563 858 q 622 808 608 832 q 636 751 636 785 q 601 666 636 694 q 519 638 565 638 m 200 638 q 108 683 138 639 q 78 788 78 728 q 107 910 78 854 q 182 1005 136 965 q 279 1061 228 1044 l 333 979 q 288 949 313 969 q 243 905 264 928 q 215 861 222 882 q 267 845 244 858 q 303 808 289 832 q 317 751 317 785 q 281 666 317 694 q 200 638 246 638 z "},"”":{"ha":728,"x_min":76,"x_max":650,"o":"m 450 607 l 396 689 q 440 720 415 700 q 486 764 465 740 q 513 807 507 788 q 442 839 472 811 q 411 917 411 867 q 447 1002 411 974 q 531 1031 483 1031 q 621 985 592 1029 q 650 879 650 940 q 622 758 650 814 q 547 663 593 703 q 450 607 500 624 m 131 607 l 76 689 q 122 720 97 700 q 167 764 146 740 q 193 807 188 788 q 122 839 153 811 q 92 917 92 867 q 128 1002 92 974 q 211 1031 164 1031 q 303 985 274 1029 q 332 879 332 940 q 302 758 332 814 q 227 663 272 703 q 131 607 182 624 z "},"‘":{"ha":410,"x_min":78,"x_max":333,"o":"m 200 638 q 108 683 139 638 q 78 789 78 728 q 107 910 78 854 q 182 1005 136 965 q 279 1061 228 1044 l 333 979 q 288 949 313 969 q 243 905 264 928 q 215 861 222 882 q 267 845 244 858 q 303 808 289 832 q 317 751 317 785 q 281 666 317 694 q 200 638 246 638 z "},"’":{"ha":410,"x_min":76,"x_max":332,"o":"m 131 607 l 76 689 q 122 720 97 700 q 167 764 146 740 q 193 807 188 788 q 122 839 153 811 q 92 917 92 867 q 128 1002 92 974 q 211 1031 164 1031 q 303 985 274 1031 q 332 879 332 940 q 302 758 332 814 q 227 663 272 703 q 131 607 182 624 z "},"«":{"ha":783,"x_min":38,"x_max":718,"o":"m 221 114 l 38 378 l 221 640 l 404 640 l 218 378 l 404 114 l 221 114 m 535 114 l 353 378 l 535 640 l 718 640 l 533 378 l 718 114 l 535 114 z "},"»":{"ha":783,"x_min":65,"x_max":746,"o":"m 381 114 l 565 376 l 381 640 l 563 640 l 746 376 l 563 114 l 381 114 m 65 114 l 251 376 l 65 640 l 247 640 l 429 376 l 247 114 l 65 114 z "},"‹":{"ha":486,"x_min":38,"x_max":421,"o":"m 219 114 l 38 378 l 219 640 l 421 640 l 236 378 l 421 114 l 219 114 z "},"›":{"ha":488,"x_min":65,"x_max":450,"o":"m 65 114 l 253 378 l 65 640 l 268 640 l 450 378 l 268 114 l 65 114 z "},"\"":{"ha":572,"x_min":65,"x_max":507,"o":"m 351 604 l 322 983 l 507 983 l 472 604 l 351 604 m 94 604 l 65 983 l 250 983 l 214 604 l 94 604 z "},"'":{"ha":343,"x_min":76,"x_max":267,"o":"m 110 604 l 76 983 l 267 983 l 231 604 l 110 604 z "},"✓":{"ha":1494,"x_min":65,"x_max":1429,"o":"m 546 -15 l 65 517 l 200 647 l 543 269 l 1288 1149 l 1429 1022 l 546 -15 z "},"@":{"ha":1381,"x_min":81,"x_max":1301,"o":"m 656 -233 q 423 -192 528 -232 q 241 -77 318 -153 q 122 106 164 -1 q 81 346 81 213 q 126 618 81 497 q 258 825 172 739 q 465 956 344 911 q 736 1000 586 1001 q 971 960 867 1000 q 1149 847 1075 921 q 1263 667 1224 772 q 1301 428 1301 561 q 1286 295 1300 361 q 1241 174 1272 229 q 1160 87 1210 119 q 1036 54 1110 54 q 919 88 969 54 q 854 182 869 122 q 798 113 832 140 q 723 74 764 86 q 636 63 682 63 q 497 104 553 63 q 415 215 442 146 q 388 364 388 283 q 408 492 388 431 q 466 602 428 554 q 560 678 504 650 q 689 706 617 707 q 760 696 726 706 q 823 664 794 686 q 864 601 851 642 l 896 671 l 1007 658 q 976 481 989 564 q 961 338 964 399 q 963 278 960 308 q 982 230 967 249 q 1029 211 997 211 q 1090 238 1068 211 q 1122 301 1111 264 q 1135 372 1132 338 q 1138 424 1138 406 q 1113 588 1138 513 q 1039 719 1089 664 q 911 804 989 774 q 725 835 833 835 q 522 798 610 835 q 376 696 435 761 q 286 544 317 631 q 256 357 256 457 q 303 144 256 239 q 442 -7 350 49 q 667 -62 533 -62 q 731 -60 703 -62 q 783 -55 758 -58 q 836 -44 807 -51 l 857 -208 q 756 -228 803 -222 q 656 -233 710 -233 m 674 217 q 755 243 725 217 q 799 310 785 269 q 815 389 813 350 q 807 461 819 425 q 766 522 794 497 q 690 547 738 547 q 610 520 642 547 q 563 451 578 493 q 547 367 547 410 q 554 315 547 342 q 576 267 561 289 q 615 231 590 244 q 674 217 639 217 z "},"&":{"ha":996,"x_min":76,"x_max":979,"o":"m 397 -11 q 279 5 336 -11 q 176 53 222 21 q 103 138 131 86 q 76 263 76 190 q 98 375 76 326 q 158 463 119 424 q 247 531 197 501 q 183 626 207 571 q 160 735 160 682 q 197 872 160 814 q 297 963 233 931 q 444 994 361 994 q 575 968 515 994 q 672 889 635 942 q 708 758 708 836 q 683 648 708 696 q 615 563 657 600 q 524 496 572 525 l 668 333 q 697 399 686 360 q 710 469 707 439 l 878 469 q 847 326 868 389 q 790 210 825 263 l 979 0 l 736 0 l 664 75 q 536 8 607 26 q 397 -11 465 -11 m 406 157 q 483 167 442 157 q 553 204 524 178 l 361 415 q 303 371 325 394 q 272 324 281 347 q 263 274 263 300 q 283 208 263 235 q 338 169 304 182 q 406 157 371 157 m 408 607 q 469 645 442 625 q 515 690 497 665 q 532 744 532 715 q 522 786 532 765 q 492 820 513 807 q 438 833 471 833 q 361 804 385 833 q 338 739 338 775 q 347 689 338 713 q 372 645 356 665 q 408 607 389 625 z "},"¶":{"ha":1014,"x_min":21,"x_max":993,"o":"m 325 0 l 325 438 l 310 438 q 172 465 238 438 q 63 554 106 493 q 21 713 21 615 q 61 861 21 801 q 165 952 101 921 q 296 983 228 983 l 993 983 l 993 799 l 858 799 l 858 0 l 658 0 l 658 799 l 525 799 l 525 0 l 325 0 z "},"§":{"ha":790,"x_min":65,"x_max":722,"o":"m 406 -11 q 287 1 344 -11 q 181 40 229 13 q 101 113 132 67 q 65 226 71 158 l 267 226 q 299 178 276 197 q 350 150 321 158 q 404 142 379 142 q 458 147 432 142 q 500 166 483 151 q 517 206 517 181 q 507 239 517 228 q 482 256 497 250 q 446 265 467 263 q 353 283 404 274 q 254 308 303 293 q 171 343 206 322 q 106 410 128 371 q 83 497 83 450 q 104 583 83 544 q 164 643 125 622 q 110 705 128 667 q 93 783 93 743 q 121 885 93 844 q 194 949 149 925 q 292 983 239 974 q 399 993 346 993 q 542 972 475 993 q 653 901 610 950 q 704 772 697 853 l 507 772 q 486 814 503 799 q 446 837 469 829 q 397 844 422 844 q 347 838 371 844 q 308 819 322 832 q 293 781 293 806 q 311 742 293 756 q 354 721 329 728 q 397 711 379 714 q 470 697 433 704 q 542 682 507 690 q 608 663 578 674 q 696 599 669 640 q 722 504 722 558 q 703 419 722 458 q 654 356 685 379 q 706 293 692 331 q 719 214 719 256 q 692 109 719 151 q 619 40 664 67 q 518 1 574 13 q 406 -11 463 -11 m 503 413 q 519 428 513 418 q 530 452 525 439 q 535 476 535 465 q 508 524 535 510 q 450 546 482 538 q 376 563 415 554 q 301 579 338 572 q 280 550 288 568 q 272 515 272 532 q 281 483 272 497 q 308 460 290 469 q 350 444 325 451 q 426 428 381 438 q 503 413 471 418 z "},"©":{"ha":1278,"x_min":65,"x_max":1213,"o":"m 638 -139 q 337 -70 465 -139 q 137 126 208 -1 q 65 429 65 253 q 138 736 65 607 q 340 935 211 865 q 633 1006 468 1006 q 934 934 804 1006 q 1138 732 1064 863 q 1213 425 1213 601 q 1140 123 1213 250 q 938 -72 1067 -4 q 638 -139 808 -139 m 642 14 q 866 67 774 14 q 1008 213 958 119 q 1057 431 1057 307 q 1008 648 1057 553 q 867 797 958 743 q 644 851 775 851 q 421 797 515 851 q 276 648 326 743 q 225 429 225 553 q 274 213 225 307 q 417 67 324 119 q 642 14 511 14 m 650 140 q 499 174 563 140 q 400 273 435 208 q 365 431 365 338 q 402 592 365 526 q 503 692 439 658 q 654 726 568 726 q 827 676 758 726 q 913 508 896 625 l 749 508 q 715 563 743 547 q 649 579 688 579 q 575 557 601 579 q 539 501 549 535 q 529 432 529 468 q 539 364 529 397 q 574 309 549 331 q 647 288 599 288 q 717 305 689 288 q 751 357 744 322 l 915 357 q 866 231 903 279 q 774 162 829 183 q 650 140 719 140 z "},"®":{"ha":682,"x_min":56,"x_max":626,"o":"m 340 476 q 193 508 257 476 q 92 601 129 540 q 56 749 56 663 q 92 897 56 835 q 194 993 129 960 q 342 1026 258 1026 q 491 993 428 1026 q 590 897 554 960 q 626 749 626 835 q 590 603 626 664 q 490 509 554 542 q 340 476 425 476 m 342 563 q 482 610 428 563 q 536 751 536 658 q 484 892 536 842 q 343 943 432 943 q 199 892 254 943 q 144 749 144 840 q 199 610 144 658 q 342 563 254 563 m 238 619 l 238 897 l 354 897 q 433 876 401 897 q 465 806 465 854 q 453 753 465 775 q 414 719 440 731 l 479 619 l 390 619 l 336 708 l 315 708 l 315 619 l 238 619 m 315 774 l 357 774 q 379 781 369 774 q 389 804 389 789 q 380 824 389 818 q 356 829 371 829 l 315 829 l 315 774 z "},"℗":{"ha":1278,"x_min":65,"x_max":1213,"o":"m 639 -135 q 410 -97 515 -135 q 228 13 306 -60 q 108 191 151 86 q 65 429 65 296 q 109 669 65 563 q 231 849 153 775 q 412 963 308 924 q 635 1003 515 1003 q 860 963 756 1003 q 1044 847 965 922 q 1168 665 1124 772 q 1213 425 1213 558 q 1170 190 1213 294 q 1050 13 1128 86 q 867 -97 972 -60 q 639 -135 763 -135 m 644 19 q 867 71 776 19 q 1006 214 958 122 q 1053 426 1053 306 q 1004 646 1053 551 q 864 793 956 740 q 643 846 772 846 q 423 794 515 846 q 280 648 331 742 q 229 429 229 554 q 278 215 229 307 q 421 71 328 122 q 644 19 514 19 m 449 121 l 449 731 l 681 731 q 804 710 750 731 q 889 644 858 690 q 919 519 919 599 q 888 394 919 444 q 803 320 857 344 q 678 296 749 296 l 593 296 l 593 121 l 449 121 m 593 424 l 674 424 q 729 435 707 424 q 764 468 751 447 q 775 518 776 489 q 751 576 774 554 q 678 599 728 599 l 593 599 l 593 424 z "},"™":{"ha":1040,"x_min":65,"x_max":975,"o":"m 494 557 l 494 983 l 647 983 l 736 824 l 825 983 l 975 983 l 975 557 l 850 557 l 850 794 l 753 628 l 719 628 l 621 794 l 621 557 l 494 557 m 185 557 l 185 842 l 65 842 l 65 983 l 447 983 l 447 842 l 328 842 l 328 557 l 185 557 z "},"°":{"ha":565,"x_min":65,"x_max":500,"o":"m 282 660 q 173 683 222 660 q 94 753 124 707 q 65 865 65 799 q 96 981 65 933 q 176 1056 126 1029 q 285 1083 226 1083 q 392 1057 343 1083 q 471 983 442 1031 q 500 867 500 935 q 470 754 500 800 q 391 684 440 708 q 282 660 342 660 m 285 789 q 342 810 319 789 q 365 869 365 832 q 342 929 365 907 q 285 951 319 951 q 226 929 250 951 q 203 869 203 907 q 226 810 203 832 q 285 789 250 789 z "},"|":{"ha":393,"x_min":104,"x_max":289,"o":"m 104 -229 l 104 1107 l 289 1107 l 289 -229 l 104 -229 z "},"№":{"ha":1513,"x_min":65,"x_max":1447,"o":"m 65 0 l 65 983 l 267 983 l 667 349 l 667 983 l 865 983 l 865 0 l 668 0 l 263 631 l 263 0 l 65 0 m 992 303 l 992 464 l 1429 464 l 1429 303 l 992 303 m 1211 515 q 1089 544 1143 515 q 1004 627 1035 574 q 974 753 974 681 q 1003 878 974 825 q 1088 961 1033 932 q 1213 990 1142 990 q 1336 960 1283 990 q 1418 878 1389 931 q 1447 753 1447 825 q 1416 627 1447 681 q 1331 544 1385 574 q 1211 515 1278 515 m 1210 664 q 1261 678 1243 664 q 1286 714 1279 693 q 1293 753 1293 735 q 1286 792 1293 771 q 1261 828 1279 813 q 1210 843 1243 843 q 1159 828 1178 843 q 1133 792 1140 813 q 1126 753 1126 771 q 1134 713 1126 733 q 1160 678 1142 692 q 1210 664 1178 664 z "},"¢":{"ha":831,"x_min":65,"x_max":765,"o":"m 332 -206 l 332 0 q 184 67 243 18 q 95 191 125 115 q 65 361 65 267 q 97 542 65 463 q 189 672 129 621 q 331 738 249 724 l 331 943 l 514 943 l 514 739 q 680 660 614 726 q 757 476 746 593 l 567 476 q 517 549 554 524 q 428 574 481 574 q 328 542 365 574 q 274 464 290 511 q 258 367 258 417 q 276 268 258 314 q 332 194 294 222 q 426 165 369 165 q 518 189 478 165 q 568 260 558 213 l 765 260 q 684 81 753 147 q 515 -1 615 15 l 515 -206 l 332 -206 z "},"$":{"ha":921,"x_min":65,"x_max":854,"o":"m 374 -197 l 374 0 q 230 50 296 14 q 120 149 164 86 q 65 301 76 211 l 267 301 q 314 225 281 254 q 394 184 347 196 q 489 172 440 172 q 572 183 535 172 q 632 218 610 194 q 654 278 654 242 q 638 329 654 310 q 595 360 622 349 q 536 381 568 372 q 428 406 478 396 q 337 428 379 417 q 258 458 294 440 q 141 548 185 492 q 97 708 97 604 q 137 856 97 797 q 242 948 176 915 q 379 988 307 981 l 379 1182 l 563 1182 l 563 985 q 697 939 638 976 q 793 840 757 901 q 831 694 829 779 l 638 694 q 608 762 632 736 q 546 801 585 788 q 458 814 507 814 q 381 806 418 815 q 321 774 344 796 q 297 714 297 753 q 311 666 297 686 q 349 633 325 646 q 404 608 374 619 q 501 583 447 593 q 600 558 556 572 q 735 510 678 539 q 823 433 792 482 q 854 300 854 383 q 815 140 854 204 q 708 40 775 75 q 556 -4 640 6 l 556 -197 l 374 -197 z "},"€":{"ha":1006,"x_min":51,"x_max":954,"o":"m 635 -11 q 447 23 535 -11 q 298 124 360 57 q 211 294 236 192 l 51 294 l 83 449 l 192 449 q 192 480 192 467 q 192 506 192 493 q 193 536 192 519 l 57 536 l 88 692 l 217 692 q 376 917 267 839 q 636 994 486 994 q 802 972 728 994 q 942 886 876 950 l 846 751 q 767 803 815 782 q 651 824 719 824 q 548 806 594 824 q 469 758 501 788 q 422 692 438 728 l 764 692 l 735 536 l 383 536 q 382 508 383 524 q 381 478 381 493 q 383 449 382 463 l 724 449 l 693 294 l 425 294 q 513 201 454 236 q 647 167 571 167 q 762 185 710 167 q 854 243 814 203 l 954 110 q 813 17 893 46 q 635 -11 732 -11 z "},"₴":{"ha":843,"x_min":49,"x_max":794,"o":"m 415 -10 q 308 1 363 -10 q 208 40 254 13 q 134 110 163 67 q 106 219 106 154 q 111 267 106 243 q 125 310 117 290 l 49 310 l 49 443 l 235 443 l 342 517 l 49 517 l 49 651 l 517 651 q 550 685 538 663 q 563 729 563 707 q 549 776 564 757 q 506 806 533 796 q 440 815 478 815 q 379 808 407 815 q 332 783 351 800 q 304 733 313 765 l 107 733 q 144 859 113 808 q 225 940 175 910 q 333 983 275 969 q 447 996 390 996 q 554 984 500 996 q 654 946 608 972 q 728 875 700 919 q 756 765 756 831 q 751 719 756 740 q 740 683 747 699 q 724 653 733 667 l 794 653 l 794 517 l 613 517 l 503 443 l 794 443 l 794 310 l 324 310 q 305 285 311 300 q 299 254 299 271 q 316 206 299 225 q 363 178 333 188 q 429 169 393 169 q 493 177 467 169 q 538 201 519 185 q 564 243 556 218 l 758 243 q 724 123 754 172 q 646 44 694 74 q 538 3 597 15 q 415 -10 479 -10 z "},"₽":{"ha":965,"x_min":65,"x_max":914,"o":"m 186 0 l 186 111 l 65 111 l 65 268 l 186 268 l 186 351 l 65 351 l 65 517 l 186 517 l 186 983 l 538 983 q 685 967 617 983 q 806 914 754 950 q 885 817 857 878 q 914 668 914 757 q 865 485 914 554 q 735 383 817 415 q 553 351 653 351 l 386 351 l 386 268 l 688 268 l 688 111 l 386 111 l 386 0 l 186 0 m 386 517 l 531 517 q 627 531 586 517 q 692 577 668 544 q 717 661 717 610 q 672 767 717 736 q 538 799 626 799 l 386 799 l 386 517 z "},"£":{"ha":851,"x_min":65,"x_max":786,"o":"m 67 0 l 67 183 l 179 183 l 179 382 l 65 382 l 65 557 l 179 557 l 179 704 q 221 868 179 804 q 334 963 263 932 q 493 994 406 994 q 692 931 613 994 q 776 726 771 868 l 594 726 q 583 775 593 753 q 551 812 572 797 q 494 826 529 826 q 429 812 456 826 q 388 772 403 797 q 374 707 374 746 l 374 557 l 661 557 l 661 382 l 374 382 l 374 183 l 786 183 l 786 0 l 67 0 z "},"¥":{"ha":1013,"x_min":38,"x_max":975,"o":"m 408 0 l 408 114 l 199 114 l 199 265 l 408 265 l 408 338 l 199 338 l 199 493 l 333 493 l 38 983 l 267 983 l 508 550 l 746 983 l 975 983 l 679 493 l 815 493 l 815 338 l 607 338 l 607 265 l 815 265 l 815 114 l 607 114 l 607 0 l 408 0 z "},"+":{"ha":822,"x_min":106,"x_max":718,"o":"m 325 183 l 325 410 l 106 410 l 106 585 l 325 585 l 325 810 l 499 810 l 499 585 l 718 585 l 718 410 l 499 410 l 499 183 l 325 183 z "},"−":{"ha":822,"x_min":113,"x_max":710,"o":"m 113 410 l 113 585 l 710 585 l 710 410 l 113 410 z "},"×":{"ha":822,"x_min":85,"x_max":739,"o":"m 204 172 l 85 292 l 293 497 l 85 703 l 204 819 l 413 613 l 617 819 l 739 703 l 529 497 l 739 292 l 619 172 l 413 382 l 204 172 z "},"÷":{"ha":822,"x_min":108,"x_max":714,"o":"m 108 415 l 108 586 l 714 586 l 714 415 l 108 415 m 408 103 q 324 133 360 103 q 288 222 288 164 q 305 289 288 261 q 351 331 322 317 q 411 346 379 346 q 494 313 460 346 q 529 222 529 281 q 494 134 529 165 q 408 103 458 103 m 408 651 q 324 682 360 651 q 288 769 288 713 q 305 837 288 810 q 351 879 322 864 q 411 894 379 894 q 494 862 460 894 q 529 771 529 829 q 494 683 529 714 q 408 651 458 651 z "},"=":{"ha":822,"x_min":100,"x_max":724,"o":"m 100 578 l 100 751 l 724 751 l 724 578 l 100 578 m 100 217 l 100 392 l 724 392 l 724 217 l 100 217 z "},"≠":{"ha":822,"x_min":100,"x_max":724,"o":"m 100 0 l 199 217 l 100 217 l 100 392 l 279 392 l 363 574 l 100 574 l 100 747 l 442 747 l 539 961 l 724 961 l 626 747 l 724 747 l 724 574 l 544 574 l 463 392 l 724 392 l 724 217 l 382 217 l 283 0 l 100 0 z "},">":{"ha":822,"x_min":138,"x_max":685,"o":"m 138 107 l 138 308 l 444 494 l 138 681 l 138 883 l 685 547 l 685 447 l 138 107 z "},"<":{"ha":822,"x_min":138,"x_max":686,"o":"m 686 107 l 138 443 l 138 543 l 686 882 l 686 682 l 379 497 l 686 310 l 686 107 z "},"≥":{"ha":822,"x_min":129,"x_max":694,"o":"m 129 272 l 129 464 l 418 575 l 129 686 l 129 881 l 694 643 l 694 513 l 129 272 m 129 76 l 129 251 l 694 251 l 694 76 l 129 76 z "},"≤":{"ha":822,"x_min":129,"x_max":694,"o":"m 694 272 l 129 510 l 129 640 l 694 881 l 694 689 l 404 578 l 694 465 l 694 272 m 129 76 l 129 251 l 694 251 l 694 76 l 129 76 z "},"±":{"ha":822,"x_min":106,"x_max":718,"o":"m 325 317 l 325 486 l 106 486 l 106 661 l 325 661 l 325 883 l 499 883 l 499 661 l 718 661 l 718 486 l 499 486 l 499 317 l 325 317 m 106 76 l 106 250 l 718 250 l 718 76 l 106 76 z "},"≈":{"ha":822,"x_min":53,"x_max":769,"o":"m 554 500 q 469 519 507 500 q 398 564 431 539 q 337 608 365 589 q 279 628 308 628 q 238 611 251 628 q 222 572 225 594 q 219 528 218 549 l 57 528 q 62 628 53 579 q 95 717 71 676 q 163 781 119 757 q 269 804 206 804 q 355 785 317 804 q 425 740 393 765 q 486 696 457 715 q 544 676 515 676 q 585 692 572 676 q 602 732 599 708 q 604 776 606 756 l 765 776 q 761 676 769 725 q 728 587 753 626 q 662 524 704 547 q 554 500 619 500 m 554 169 q 469 188 507 169 q 398 232 431 207 q 337 276 365 257 q 279 296 308 296 q 238 280 251 296 q 222 241 225 264 q 219 197 218 218 l 57 197 q 62 297 53 247 q 95 386 71 346 q 163 449 119 426 q 269 472 206 472 q 355 453 317 472 q 425 409 393 435 q 486 364 457 383 q 543 344 515 344 q 585 361 572 344 q 602 401 599 378 q 604 444 606 424 l 765 444 q 761 344 769 393 q 728 256 753 296 q 662 192 704 215 q 554 169 619 169 z "},"~":{"ha":822,"x_min":47,"x_max":776,"o":"m 568 333 q 453 365 500 333 q 372 428 406 397 q 331 461 353 446 q 288 476 310 476 q 241 452 256 476 q 223 397 226 428 q 224 344 219 365 l 53 344 q 56 456 47 400 q 90 557 64 511 q 160 631 115 603 q 272 658 206 658 q 378 631 338 658 q 451 574 419 603 q 494 540 472 557 q 542 522 517 522 q 584 541 569 522 q 603 588 599 560 q 604 646 607 617 l 772 646 q 761 500 776 560 q 717 403 746 440 q 649 350 688 367 q 568 333 610 333 z "},"^":{"ha":822,"x_min":104,"x_max":718,"o":"m 104 642 l 343 988 l 474 988 l 718 642 l 529 642 l 411 829 l 290 642 l 104 642 z "},"%":{"ha":1231,"x_min":65,"x_max":1165,"o":"m 194 0 l 833 983 l 1033 983 l 397 0 l 194 0 m 929 -10 q 805 20 858 -10 q 722 104 751 50 q 692 232 692 158 q 722 360 692 306 q 807 444 753 414 q 932 474 861 474 q 1054 444 1001 474 q 1136 362 1107 415 q 1165 233 1165 308 q 1135 105 1165 160 q 1052 20 1106 50 q 929 -10 999 -10 m 929 136 q 979 149 960 136 q 1008 185 999 163 q 1017 231 1017 207 q 1008 276 1017 254 q 979 311 999 297 q 929 325 960 325 q 860 295 881 325 q 839 229 839 265 q 861 165 840 193 q 929 136 882 136 m 303 511 q 178 541 231 511 q 95 625 125 571 q 65 751 65 679 q 95 881 65 826 q 179 965 125 935 q 304 994 233 994 q 427 965 375 994 q 508 883 479 936 q 538 754 538 829 q 508 626 538 681 q 426 541 479 571 q 303 511 372 511 m 303 658 q 353 672 333 658 q 381 706 372 685 q 389 753 389 728 q 380 798 389 776 q 352 833 371 819 q 303 847 333 847 q 233 817 254 847 q 213 750 211 788 q 234 686 213 714 q 303 658 256 658 z "},"↑":{"ha":1033,"x_min":65,"x_max":968,"o":"m 432 0 l 432 610 l 200 331 l 65 447 l 517 942 l 968 447 l 835 331 l 601 610 l 601 0 l 432 0 z "},"↗":{"ha":1033,"x_min":125,"x_max":849,"o":"m 244 78 l 125 197 l 556 629 l 193 594 l 181 774 l 849 803 l 819 133 l 642 146 l 675 508 l 244 78 z "},"→":{"ha":1033,"x_min":46,"x_max":986,"o":"m 493 18 l 375 153 l 656 385 l 46 385 l 46 554 l 656 554 l 375 788 l 493 921 l 986 471 l 493 18 z "},"↘":{"ha":1033,"x_min":122,"x_max":849,"o":"m 849 139 l 181 167 l 192 346 l 554 313 l 122 743 l 243 863 l 675 432 l 640 794 l 819 807 l 849 139 z "},"↓":{"ha":1033,"x_min":65,"x_max":968,"o":"m 517 -4 l 65 489 l 200 607 l 433 326 l 433 942 l 603 942 l 603 326 l 835 607 l 968 489 l 517 -4 z "},"↙":{"ha":1033,"x_min":183,"x_max":908,"o":"m 183 138 l 213 807 l 390 794 l 358 432 l 789 864 l 908 743 l 478 313 l 839 346 l 851 168 l 183 138 z "},"←":{"ha":1033,"x_min":46,"x_max":986,"o":"m 539 19 l 46 469 l 539 922 l 657 788 l 376 556 l 986 556 l 986 386 l 376 386 l 657 154 l 539 19 z "},"↖":{"ha":1033,"x_min":183,"x_max":910,"o":"m 790 79 l 358 510 l 392 147 l 214 135 l 183 803 l 853 774 l 840 596 l 478 629 l 910 199 l 790 79 z "},"↩":{"ha":1625,"x_min":65,"x_max":1560,"o":"m 564 -367 l 65 88 l 564 540 l 669 406 l 406 174 l 1076 174 q 1235 211 1168 174 q 1340 316 1303 249 q 1378 471 1378 383 q 1340 626 1378 560 q 1235 730 1303 693 q 1076 767 1167 767 l 246 767 l 246 940 l 1097 940 q 1285 906 1200 940 q 1431 808 1369 871 q 1526 658 1493 744 q 1560 471 1560 572 q 1526 283 1560 369 q 1431 134 1493 197 q 1285 35 1369 71 q 1097 0 1200 0 l 404 0 l 671 -235 l 564 -367 z "},"↶":{"ha":1428,"x_min":65,"x_max":1363,"o":"m 572 -42 l 65 146 l 125 307 l 364 210 q 313 299 333 250 q 284 401 293 349 q 275 507 275 454 q 347 777 279 661 q 533 957 414 893 q 813 1021 653 1021 q 1089 956 968 1021 q 1283 772 1210 892 q 1363 485 1356 653 l 1179 485 q 1127 672 1174 592 q 1002 796 1081 751 q 815 840 924 840 q 619 792 699 840 q 497 664 539 743 q 456 492 456 585 q 463 413 456 453 q 485 336 471 374 q 518 268 500 299 l 603 524 l 768 460 l 572 -42 z "},"↷":{"ha":1428,"x_min":65,"x_max":1363,"o":"m 856 -42 l 658 463 l 824 525 l 908 261 q 943 331 929 292 q 965 411 957 369 q 972 492 972 453 q 931 664 972 585 q 809 792 889 743 q 613 840 729 840 q 426 796 506 840 q 300 672 346 751 q 249 485 254 592 l 65 485 q 146 772 74 653 q 340 956 218 892 q 615 1021 461 1021 q 894 956 775 1021 q 1080 776 1013 892 q 1151 506 1147 660 q 1143 400 1153 453 q 1113 299 1133 347 q 1064 210 1093 250 l 1303 307 l 1363 146 l 856 -42 z "},"↺":{"ha":1314,"x_min":67,"x_max":1249,"o":"m 626 -69 q 328 1 453 -68 q 135 194 203 71 q 67 481 67 317 q 120 743 67 622 q 285 947 174 864 l 404 813 q 288 657 325 746 q 250 481 250 568 q 274 339 250 406 q 347 220 299 272 q 463 138 394 168 q 624 108 532 108 q 790 140 721 108 q 903 224 858 171 q 969 341 947 276 q 990 474 990 406 q 979 569 992 517 q 937 678 967 622 q 854 785 907 733 l 849 515 l 694 515 l 715 1053 l 1249 1007 l 1236 853 l 972 886 q 1082 772 1036 840 q 1153 622 1128 703 q 1178 461 1178 542 q 1140 253 1176 350 q 1031 85 1103 157 q 858 -28 960 13 q 626 -69 756 -69 z "},"↻":{"ha":1314,"x_min":65,"x_max":1247,"o":"m 688 -71 q 456 -30 558 -71 q 283 84 354 11 q 174 253 211 157 q 136 461 136 350 q 161 622 136 542 q 232 770 186 701 q 342 886 278 839 l 78 853 l 65 1007 l 599 1053 l 619 515 l 465 515 l 460 785 q 378 679 408 735 q 335 572 347 624 q 324 479 322 521 q 345 344 324 410 q 411 224 367 278 q 525 140 456 171 q 690 108 594 108 q 851 138 782 108 q 967 220 919 168 q 1040 339 1015 272 q 1064 481 1064 406 q 1026 657 1064 568 q 910 813 989 746 l 1029 947 q 1194 743 1140 864 q 1247 486 1247 622 q 1180 196 1247 321 q 988 0 1113 71 q 688 -71 863 -71 z "},"⟵":{"ha":1924,"x_min":65,"x_max":1858,"o":"m 564 -76 l 65 381 l 563 835 l 675 697 l 407 467 l 1858 467 l 1858 292 l 408 292 l 675 61 l 564 -76 z "},"⟶":{"ha":1924,"x_min":65,"x_max":1858,"o":"m 1360 -76 l 1249 61 l 1517 292 l 65 292 l 65 467 l 1515 467 l 1249 697 l 1360 835 l 1858 379 l 1360 -76 z "},"̈":{"ha":0,"x_min":-281,"x_max":281,"o":"m 171 810 q 92 838 125 810 q 60 917 60 865 q 94 999 60 969 q 171 1028 128 1028 q 249 999 217 1028 q 281 918 281 971 q 249 838 281 865 q 171 810 217 810 m -169 810 q -247 838 -214 810 q -281 917 -281 865 q -247 999 -281 969 q -169 1028 -214 1028 q -92 999 -125 1028 q -58 917 -58 971 q -91 838 -58 865 q -169 810 -124 810 z "},"̇":{"ha":0,"x_min":-121,"x_max":121,"o":"m 0 806 q -87 838 -54 806 q -121 922 -121 871 q -86 1010 -121 976 q 1 1043 -51 1043 q 85 1010 50 1043 q 121 924 121 978 q 87 838 121 871 q 0 806 53 806 z "},"̀":{"ha":0,"x_min":-229,"x_max":135,"o":"m -32 818 l -229 1056 l -22 1056 l 135 818 l -32 818 z "},"́":{"ha":0,"x_min":-106,"x_max":258,"o":"m -106 821 l 51 1060 l 258 1060 l 61 821 l -106 821 z "},"̋":{"ha":0,"x_min":-232,"x_max":361,"o":"m 19 818 l 167 1056 l 361 1056 l 175 818 l 19 818 m -232 818 l -124 1056 l 72 1056 l -81 818 l -232 818 z "},"̂":{"ha":0,"x_min":-278,"x_max":279,"o":"m -278 818 l -65 1068 l 64 1068 l 279 818 l 93 818 l -1 940 l -93 818 l -278 818 z "},"̌":{"ha":0,"x_min":-279,"x_max":279,"o":"m -64 818 l -279 1068 l -92 1068 l 3 944 l 94 1068 l 279 1068 l 67 818 l -64 818 z "},"̆":{"ha":0,"x_min":-264,"x_max":264,"o":"m -1 815 q -193 873 -124 815 q -264 1049 -262 931 l -103 1049 q -73 974 -101 994 q 0 953 -44 953 q 74 974 47 953 q 103 1049 101 994 l 264 1049 q 232 919 264 971 q 141 841 200 867 q -1 815 82 815 z "},"̊":{"ha":0,"x_min":-165,"x_max":165,"o":"m 0 794 q -119 838 -72 794 q -165 950 -165 881 q -117 1066 -165 1021 q 1 1111 -69 1111 q 119 1067 72 1111 q 165 950 165 1022 q 119 838 165 881 q 0 794 74 794 m 0 896 q 42 912 26 896 q 57 953 57 928 q 41 992 57 976 q 0 1008 25 1008 q -41 992 -25 1008 q -57 953 -57 976 q -42 912 -57 928 q 0 896 -26 896 z "},"̃":{"ha":0,"x_min":-267,"x_max":268,"o":"m 114 811 q 44 826 75 811 q -10 860 14 842 q -53 893 -33 878 q -90 908 -74 908 q -119 892 -110 908 q -131 854 -129 875 q -129 818 -132 833 l -262 818 q -253 928 -267 876 q -202 1013 -240 979 q -96 1046 -164 1046 q -33 1032 -60 1046 q 16 1000 -6 1018 q 56 968 38 982 q 93 954 74 954 q 122 969 114 954 q 131 1003 129 983 q 131 1038 132 1024 l 264 1038 q 257 931 268 983 q 213 844 246 878 q 114 811 179 811 z "},"̄":{"ha":0,"x_min":-253,"x_max":254,"o":"m -253 865 l -253 1033 l 254 1033 l 254 865 l -253 865 z "},"̒":{"ha":0,"x_min":-125,"x_max":125,"o":"m -6 803 q -94 842 -64 803 q -125 940 -125 881 q -97 1049 -125 997 q -24 1138 -69 1100 q 72 1190 21 1175 l 125 1115 q 82 1087 107 1106 q 36 1047 57 1068 q 10 1006 15 1025 q 80 976 50 1003 q 110 906 110 950 q 74 828 110 854 q -6 803 39 803 z "},"̦":{"ha":0,"x_min":-110,"x_max":111,"o":"m -64 -415 l -110 -349 q -70 -322 -92 -339 q -31 -284 -49 -304 q -8 -247 -14 -264 q -71 -222 -44 -244 q -97 -158 -97 -199 q -67 -87 -97 -111 q 4 -64 -36 -64 q 84 -102 57 -65 q 110 -193 111 -139 q 85 -290 110 -246 q 22 -367 61 -335 q -64 -415 -18 -399 z "},"̧":{"ha":0,"x_min":-151,"x_max":151,"o":"m -53 -369 q -108 -369 -85 -371 q -151 -365 -131 -368 l -151 -249 q -90 -254 -118 -254 q -41 -249 -62 -254 q -8 -230 -19 -243 q 4 -196 4 -217 q -7 -168 4 -178 q -35 -154 -18 -158 q -69 -150 -53 -150 q -113 -153 -90 -149 q -149 -162 -136 -157 l -92 47 l 36 47 l 10 -56 q 26 -56 18 -56 q 43 -57 35 -56 q 122 -94 92 -64 q 151 -190 151 -125 q 122 -290 151 -251 q 47 -348 93 -329 q -53 -369 1 -367 z "},"̨":{"ha":0,"x_min":-143,"x_max":144,"o":"m 39 -289 q -94 -247 -46 -287 q -143 -139 -143 -207 q -110 -43 -143 -85 q -28 18 -78 -1 l 85 4 q 19 -37 47 -11 q -8 -99 -8 -64 q 12 -148 -8 -131 q 64 -165 32 -165 q 94 -162 81 -165 q 122 -151 108 -158 l 144 -264 q 91 -284 118 -279 q 39 -289 64 -289 z "},"¨":{"ha":850,"x_min":146,"x_max":704,"o":"m 593 793 q 516 821 549 793 q 483 900 483 849 q 517 981 483 951 q 593 1010 550 1010 q 671 981 638 1010 q 704 900 704 951 q 672 821 704 849 q 593 793 639 793 m 256 793 q 178 821 211 793 q 146 900 146 849 q 179 981 146 951 q 256 1010 213 1010 q 333 981 300 1010 q 367 900 367 951 q 334 821 367 849 q 256 793 301 793 z "},"˙":{"ha":832,"x_min":294,"x_max":538,"o":"m 415 814 q 328 847 361 814 q 294 931 294 879 q 329 1018 294 985 q 417 1051 364 1051 q 502 1019 467 1051 q 538 932 538 986 q 503 847 538 879 q 415 814 469 814 z "},"`":{"ha":0,"x_min":-229,"x_max":135,"o":"m -32 818 l -229 1056 l -22 1056 l 135 818 l -32 818 z "},"´":{"ha":0,"x_min":-106,"x_max":258,"o":"m -106 821 l 51 1060 l 258 1060 l 61 821 l -106 821 z "},"˝":{"ha":856,"x_min":168,"x_max":761,"o":"m 419 829 l 567 1068 l 761 1068 l 575 829 l 419 829 m 168 829 l 276 1068 l 471 1068 l 318 829 l 168 829 z "},"ˆ":{"ha":846,"x_min":144,"x_max":701,"o":"m 144 818 l 357 1068 l 486 1068 l 701 818 l 515 818 l 422 940 l 331 818 l 144 818 z "},"ˇ":{"ha":846,"x_min":144,"x_max":701,"o":"m 358 818 l 144 1068 l 331 1068 l 425 944 l 517 1068 l 701 1068 l 490 818 l 358 818 z "},"˘":{"ha":810,"x_min":140,"x_max":668,"o":"m 403 815 q 211 873 281 815 q 140 1049 142 931 l 301 1049 q 331 974 303 994 q 404 953 360 953 q 478 974 451 953 q 507 1049 506 994 l 668 1049 q 635 919 668 971 q 544 841 603 867 q 403 815 486 815 z "}}}
